<svg width="139" height="91" viewBox="0 0 139 91" fill="none" xmlns="http://www.w3.org/2000/svg">
<path d="M99.8537 13.199C75.162 -7.08349 52.0869 4.74798 43.6359 13.199C18.6502 18.3432 -21.18 33.7021 19.3851 53.9846C17.9146 66.4774 25.9968 91.0222 70.0892 89.2585C88.4625 90.3608 124.327 84.8493 120.798 53.9846C157.835 31.0565 122.267 17.2409 99.8537 13.199Z" fill="#858B86"/>
<ellipse cx="72.295" cy="59.4966" rx="8.81848" ry="4.40924" fill="#444348"/>
<path d="M48.5 10.3013C51 30.3014 78.5 57.8013 94 10.3014C88.0606 2.81033 67.8455 -7.67715 48.5 10.3013Z" fill="#6C6C6C"/>
<path d="M59.3242 6.27222L59.3242 37.1369" stroke="#444348" stroke-width="4.40924" stroke-linecap="round"/>
<path d="M72.5508 4.06763V39.3416" stroke="#444348" stroke-width="4.40924" stroke-linecap="round"/>
<path d="M85.7812 6.27222L85.7813 37.1369" stroke="#444348" stroke-width="4.40924" stroke-linecap="round"/>
<path d="M63.4766 60.5994C66.7835 63.9063 74.7201 68.536 80.0112 60.5994" stroke="#1B0701" stroke-width="2.20462" stroke-linecap="round"/>
<path d="M72.2891 65.0083V76.0314" stroke="#1B0701" stroke-width="2.20462" stroke-linecap="round"/>
<path d="M40.3242 46.2683C43.9986 44.0637 53.111 42.3 60.1658 52.8822" stroke="#1B0701" stroke-width="2.20462" stroke-linecap="round"/>
<path d="M103.156 46.2683C99.4819 44.0637 90.3694 42.3 83.3147 52.8822" stroke="#1B0701" stroke-width="2.20462" stroke-linecap="round"/>
<path d="M30.4048 26.427C16.4422 47.3709 4.83117 89.2587 70.088 89.2587" stroke="#1B0701" stroke-width="2.90035" stroke-linecap="round"/>
<path d="M109.771 26.427C123.734 47.3709 135.345 89.2587 70.0878 89.2587" stroke="#1B0701" stroke-width="2.90035" stroke-linecap="round"/>
<path d="M120.798 53.9846C157.835 31.0565 122.267 17.2409 99.8537 13.199C75.162 -7.08349 52.0869 4.74798 43.6359 13.199C18.6502 18.3432 -21.18 33.7021 19.3851 53.9846" stroke="#1B0701" stroke-width="2.90035" stroke-linecap="round"/>
</svg>
