<svg width="390" height="844" viewBox="0 0 390 844" fill="none" xmlns="http://www.w3.org/2000/svg">
<g clip-path="url(#clip0_1464_11045)">
<rect width="390" height="844" fill="#B6F2FF"/>
<path d="M404.425 259.566H367.507C366.761 259.566 366.156 260.17 366.156 260.916V324.848C366.156 325.594 366.761 326.199 367.507 326.199H404.425C405.171 326.199 405.776 325.594 405.776 324.848V260.916C405.776 260.17 405.171 259.566 404.425 259.566Z" fill="#90D8E8" stroke="#147388" stroke-width="0.900452"/>
<path d="M178.23 169.01H196.908C197.639 169.01 198.237 169.592 198.258 170.323L201.114 273.414C201.136 274.174 200.525 274.802 199.764 274.802H174.897C174.135 274.802 173.522 274.17 173.548 273.407L176.88 170.316C176.904 169.588 177.502 169.01 178.23 169.01Z" fill="#F7FCF8" stroke="#706969" stroke-width="0.900452"/>
<path d="M197.314 148.71C196.849 153.859 192.319 158.583 186.848 158.583C181.056 158.583 176.344 153.784 176.344 147.845C176.344 144.842 177.546 140.086 179.507 136.078C180.486 134.078 181.64 132.291 182.904 131.012C184.173 129.729 185.506 129 186.848 129C188.085 129 188.976 129.693 189.724 130.959C190.481 132.242 191.036 134.028 191.602 136.045C191.693 136.368 191.784 136.695 191.875 137.027C192.351 138.747 192.855 140.571 193.512 142.271C194.295 144.3 195.311 146.204 196.801 147.594C197.155 147.924 197.35 148.325 197.314 148.71Z" fill="#F59737" stroke="#706969" stroke-width="0.900452" stroke-linejoin="bevel"/>
<path d="M187.212 129.503C183.422 137.917 179.524 155.032 192.086 156.176" stroke="#706969" stroke-width="0.900452"/>
<path d="M160.408 315.262H212.332C212.986 315.262 213.587 314.908 213.905 314.338L231.557 282.694C232.226 281.492 231.359 280.015 229.984 280.015H143.639C142.282 280.015 141.412 281.46 142.048 282.659L158.816 314.304C159.129 314.893 159.741 315.262 160.408 315.262Z" fill="#F7FCF8" stroke="#706969" stroke-width="0.900452"/>
<path d="M232.198 271.892H141.491C140.745 271.892 140.141 272.497 140.141 273.243V279.167C140.141 279.913 140.745 280.517 141.491 280.517H232.198C232.944 280.517 233.549 279.913 233.549 279.167V273.243C233.549 272.497 232.944 271.892 232.198 271.892Z" fill="#EBE5CB" stroke="#706969" stroke-width="0.900452"/>
<path d="M200.768 163.294H173.886C173.14 163.294 172.535 163.898 172.535 164.644V167.711C172.535 168.457 173.14 169.062 173.886 169.062H200.768C201.514 169.062 202.118 168.457 202.118 167.711V164.644C202.118 163.898 201.514 163.294 200.768 163.294Z" fill="#EBE5CB" stroke="#706969" stroke-width="0.900452"/>
<path d="M312.58 191.45H271.159C270.413 191.45 269.809 192.055 269.809 192.801V317.063C269.809 317.809 270.413 318.414 271.159 318.414H312.58C313.326 318.414 313.931 317.809 313.931 317.063V192.801C313.931 192.055 313.326 191.45 312.58 191.45Z" fill="#90D8E8" stroke="#147388" stroke-width="0.900452"/>
<path d="M364.804 208.559H307.175C306.429 208.559 305.824 209.163 305.824 209.909V317.063C305.824 317.809 306.429 318.414 307.175 318.414H364.804C365.55 318.414 366.155 317.809 366.155 317.063V209.909C366.155 209.163 365.55 208.559 364.804 208.559Z" fill="#90D8E8" stroke="#147388" stroke-width="0.900452"/>
<path d="M64.9562 222.065H7.32724C6.58128 222.065 5.97656 222.67 5.97656 223.416V317.063C5.97656 317.809 6.58128 318.414 7.32724 318.414H64.9562C65.7021 318.414 66.3069 317.809 66.3069 317.063V223.416C66.3069 222.67 65.7021 222.065 64.9562 222.065Z" fill="#90D8E8" stroke="#147388" stroke-width="0.900452"/>
<path d="M115.379 247.86H67.6554C66.9094 247.86 66.3047 248.464 66.3047 249.21V326.649C66.3047 327.395 66.9094 328 67.6554 328H115.379C116.125 328 116.73 327.395 116.73 326.649V249.21C116.73 248.464 116.125 247.86 115.379 247.86Z" fill="#90D8E8" stroke="#147388" stroke-width="0.900452"/>
<path d="M147.796 269.471H118.081C117.335 269.471 116.73 270.075 116.73 270.821V321.247C116.73 321.993 117.335 322.597 118.081 322.597H147.796C148.542 322.597 149.147 321.993 149.147 321.247V270.821C149.147 270.075 148.542 269.471 147.796 269.471Z" fill="#90D8E8" stroke="#147388" stroke-width="0.900452"/>
<path d="M245.949 250.88H209.03C208.284 250.88 207.68 251.484 207.68 252.23V325.167C207.68 325.913 208.284 326.518 209.03 326.518H245.949C246.695 326.518 247.3 325.913 247.3 325.167V252.23C247.3 251.484 246.695 250.88 245.949 250.88Z" fill="#90D8E8" stroke="#147388" stroke-width="0.900452"/>
<path d="M273.86 233.771H248.648C247.902 233.771 247.297 234.376 247.297 235.122V317.063C247.297 317.809 247.902 318.414 248.648 318.414H273.86C274.606 318.414 275.211 317.809 275.211 317.063V235.122C275.211 234.376 274.606 233.771 273.86 233.771Z" fill="#90D8E8" stroke="#147388" stroke-width="0.900452"/>
<path d="M338.537 312.934C334.96 311.89 332.664 314.071 331.45 316.32C330.889 317.359 331.743 318.485 332.923 318.485H394.307C395.646 318.485 396.433 317.122 395.663 316.026C393.843 313.433 391.086 309.974 389.567 308.13C383.412 301.052 377.915 303.549 375.041 306.579C374.309 307.351 373.096 307.526 372.146 307.048C368.141 305.03 364.715 307.468 362.885 309.729C362.381 310.352 361.569 310.648 360.769 310.623C359.601 310.586 358.659 310.967 357.918 311.54C356.687 312.492 354.365 312.863 353.253 311.773C348.148 306.769 343.51 309.325 341.009 312.236C340.409 312.935 339.422 313.192 338.537 312.934Z" fill="#4A7D44" stroke="#1B0701" stroke-width="0.900452"/>
<path d="M235.144 259.115H212.633C211.638 259.115 210.832 259.922 210.832 260.916V262.717C210.832 263.712 211.638 264.518 212.633 264.518H235.144C236.139 264.518 236.945 263.712 236.945 262.717V260.916C236.945 259.922 236.139 259.115 235.144 259.115Z" fill="#147388" fill-opacity="0.5"/>
<path d="M235.144 269.02H212.633C211.638 269.02 210.832 269.827 210.832 270.821V272.622C210.832 273.617 211.638 274.423 212.633 274.423H235.144C236.139 274.423 236.945 273.617 236.945 272.622V270.821C236.945 269.827 236.139 269.02 235.144 269.02Z" fill="#147388" fill-opacity="0.5"/>
<path d="M111.777 260.916H89.2657C88.2711 260.916 87.4648 261.723 87.4648 262.717V264.518C87.4648 265.513 88.2711 266.319 89.2657 266.319H111.777C112.772 266.319 113.578 265.513 113.578 264.518V262.717C113.578 261.723 112.772 260.916 111.777 260.916Z" fill="#147388" fill-opacity="0.5"/>
<path d="M111.78 269.02H100.074C99.0797 269.02 98.2734 269.827 98.2734 270.821V272.622C98.2734 273.617 99.0797 274.423 100.074 274.423H111.78C112.775 274.423 113.581 273.617 113.581 272.622V270.821C113.581 269.827 112.775 269.02 111.78 269.02Z" fill="#147388" fill-opacity="0.5"/>
<path d="M61.3505 244.708H49.6447C48.65 244.708 47.8438 245.514 47.8438 246.509V248.31C47.8438 249.305 48.65 250.111 49.6447 250.111H61.3505C62.3451 250.111 63.1514 249.305 63.1514 248.31V246.509C63.1514 245.514 62.3451 244.708 61.3505 244.708Z" fill="#147388" fill-opacity="0.5"/>
<path d="M254.5 286.898H332.839V318.414H254.5V286.898Z" fill="#EBE5CB" stroke="#1B0701" stroke-width="0.900452"/>
<path d="M189.761 282.396H137.535V318.414H189.761V282.396Z" fill="#EBE5CB" stroke="#1B0701" stroke-width="0.900452"/>
<path d="M344.182 286.898H242.334C241.053 286.898 240.181 285.597 240.668 284.412L252.696 255.147C252.973 254.472 253.63 254.031 254.361 254.031H257.206H332.957C333.702 254.031 334.371 254.491 334.638 255.187L345.863 284.451C346.316 285.631 345.445 286.898 344.182 286.898Z" fill="#7E3822" stroke="#1B0701" stroke-width="0.900452"/>
<path d="M290.069 293.201H265.757C265.011 293.201 264.406 293.806 264.406 294.552V298.154C264.406 298.9 265.011 299.504 265.757 299.504H290.069C290.815 299.504 291.42 298.9 291.42 298.154V294.552C291.42 293.806 290.815 293.201 290.069 293.201Z" fill="#F7FCF8" stroke="#1B0701" stroke-width="0.900452"/>
<path d="M159.596 289.599H147.89C147.144 289.599 146.539 290.204 146.539 290.95V298.154C146.539 298.9 147.144 299.504 147.89 299.504H159.596C160.342 299.504 160.946 298.9 160.946 298.154V290.95C160.946 290.204 160.342 289.599 159.596 289.599Z" fill="white" stroke="#1B0701" stroke-width="0.900452"/>
<path d="M308.98 300.405H321.586C322.331 300.405 322.937 301.009 322.937 301.755V318.414H307.629V301.755C307.629 301.009 308.234 300.405 308.98 300.405Z" fill="#7E3822" stroke="#1B0701" stroke-width="0.900452"/>
<path d="M75.312 286.898H-3.02734V318.414H75.312V286.898Z" fill="#EBE5CB" stroke="#1B0701" stroke-width="0.900452"/>
<path d="M86.6499 286.898H-15.1972C-16.4786 286.898 -17.35 285.597 -16.863 284.412L-4.83636 255.147C-4.55875 254.472 -3.90088 254.031 -3.17062 254.031H-0.325548H75.4251C76.1708 254.031 76.8394 254.491 77.1065 255.187L88.3314 284.451C88.7837 285.631 87.913 286.898 86.6499 286.898Z" fill="#7E3822" stroke="#1B0701" stroke-width="0.900452"/>
<path d="M32.5379 293.201H8.22568C7.47972 293.201 6.875 293.806 6.875 294.552V298.154C6.875 298.9 7.47972 299.504 8.22568 299.504H32.5379C33.2838 299.504 33.8886 298.9 33.8886 298.154V294.552C33.8886 293.806 33.2838 293.201 32.5379 293.201Z" fill="#F7FCF8" stroke="#1B0701" stroke-width="0.900452"/>
<path d="M57.3018 280.726C56.4013 283.428 52.2592 288.2 42.8945 285.679" stroke="#45190C" stroke-width="0.900452" stroke-linecap="round"/>
<path d="M51.4483 300.405H64.0547C64.8006 300.405 65.4053 301.009 65.4053 301.755V318.414H50.0977V301.755C50.0977 301.009 50.7024 300.405 51.4483 300.405Z" fill="#F7FCF8" stroke="#1B0701" stroke-width="0.900452"/>
<path d="M137.086 304.457H191.113" stroke="#1B0701" stroke-width="0.900452"/>
<path d="M149.293 304.907V317.964" stroke="#1B0701" stroke-width="0.900452"/>
<path d="M155.598 304.907V317.964" stroke="#1B0701" stroke-width="0.900452"/>
<path d="M142.988 304.907V317.964" stroke="#1B0701" stroke-width="0.900452"/>
<path d="M130.688 304.907V317.964" stroke="#1B0701" stroke-width="0.900452"/>
<path d="M175.508 304.907V317.964" stroke="#1B0701" stroke-width="0.900452"/>
<path d="M181.812 304.907V317.964" stroke="#1B0701" stroke-width="0.900452"/>
<path d="M162.203 304.907V317.964" stroke="#1B0701" stroke-width="0.900452"/>
<path d="M171.306 301.305H166.804C166.058 301.305 165.453 301.91 165.453 302.656V317.063C165.453 317.809 166.058 318.414 166.804 318.414H171.306C172.052 318.414 172.657 317.809 172.657 317.063V302.656C172.657 301.91 172.052 301.305 171.306 301.305Z" fill="#1B0701"/>
<path d="M171.306 301.305H166.804C166.058 301.305 165.453 301.91 165.453 302.656V317.063C165.453 317.809 166.058 318.414 166.804 318.414H171.306C172.052 318.414 172.657 317.809 172.657 317.063V302.656C172.657 301.91 172.052 301.305 171.306 301.305Z" fill="black" fill-opacity="0.2"/>
<path d="M171.306 301.305H166.804C166.058 301.305 165.453 301.91 165.453 302.656V317.063C165.453 317.809 166.058 318.414 166.804 318.414H171.306C172.052 318.414 172.657 317.809 172.657 317.063V302.656C172.657 301.91 172.052 301.305 171.306 301.305Z" stroke="#1B0701" stroke-width="0.900452"/>
<path d="M229.737 225.799H225.234C224.24 225.799 223.434 226.605 223.434 227.6V316.744C223.434 317.739 224.24 318.545 225.234 318.545H229.737C230.731 318.545 231.538 317.739 231.538 316.744V227.6C231.538 226.605 230.731 225.799 229.737 225.799Z" fill="#1B0701"/>
<path d="M82.1658 313.14C77.3311 311.206 74.5503 314.665 73.434 317.435C73.213 317.984 73.6419 318.545 74.2337 318.545H140.929C141.601 318.545 142.012 317.849 141.644 317.287C139.893 314.617 136.28 310.139 134.431 307.928C127.481 300.051 121.335 303.739 118.611 307.139C118.282 307.551 117.679 307.642 117.238 307.353C112.318 304.148 108.102 307.531 106.227 310.142C105.995 310.465 105.591 310.619 105.199 310.555C102.629 310.138 100.984 311.55 100.076 313.034C99.6717 313.694 98.5931 313.857 98.1038 313.258C91.8247 305.563 85.9902 309.318 83.3575 312.814C83.0829 313.178 82.5894 313.309 82.1658 313.14Z" fill="#4A7D44" stroke="#1B0701" stroke-width="0.900452"/>
<path d="M193.75 308.585C189.581 299.583 183.197 301.282 179.963 303.606C179.536 303.913 179.312 304.418 179.312 304.944V317.063C179.312 318.057 180.118 318.864 181.113 318.864H204.169C205.292 318.864 206.156 317.838 205.792 316.776C204.024 311.61 199.895 310.884 197.042 311.352C196.195 311.491 195.297 311.182 194.858 310.445L193.75 308.585Z" fill="#4A7D44" stroke="#1B0701" stroke-width="0.900452"/>
<path d="M253.15 254.031C251.649 258.534 250.538 267.538 258.102 267.538C265.666 267.538 267.557 258.534 267.557 254.031" stroke="#45190C" stroke-width="0.900452"/>
<path d="M268.646 254.031C267.145 258.534 266.034 267.538 273.598 267.538C281.162 267.538 283.053 258.534 283.053 254.031" stroke="#45190C" stroke-width="0.900452"/>
<path d="M283.95 254.031C282.45 258.534 281.339 267.538 288.903 267.538C296.467 267.538 298.358 258.534 298.358 254.031" stroke="#45190C" stroke-width="0.900452"/>
<path d="M299.259 254.031C297.759 258.534 296.648 267.538 304.211 267.538C311.775 267.538 313.666 258.534 313.666 254.031" stroke="#45190C" stroke-width="0.900452"/>
<path d="M314.567 254.031C313.067 258.534 311.956 267.538 319.52 267.538C327.084 267.538 328.975 258.534 328.975 254.031" stroke="#45190C" stroke-width="0.900452"/>
<path d="M329.876 254.031C328.376 258.534 327.265 267.538 334.829 267.538C335.968 267.538 338.334 267.358 338.694 266.638" stroke="#45190C" stroke-width="0.900452"/>
<path d="M334.376 267.538C332.876 272.04 331.765 281.045 339.329 281.045C340.468 281.045 344.095 280.145 343.644 279.244" stroke="#45190C" stroke-width="0.900452"/>
<path d="M256.941 267.538C256.941 272.04 255.05 281.045 247.487 281.045C245.924 281.045 242.888 280.505 243.248 278.344" stroke="#45190C" stroke-width="0.900452"/>
<path d="M258.025 267.538C256.524 272.04 255.414 281.045 262.977 281.045C270.541 281.045 272.431 272.04 272.431 267.538" stroke="#45190C" stroke-width="0.900452"/>
<path d="M273.33 267.538C271.829 272.04 270.718 281.045 278.282 281.045C285.846 281.045 287.736 272.04 287.736 267.538" stroke="#45190C" stroke-width="0.900452"/>
<path d="M288.642 267.538C287.141 272.04 286.031 281.045 293.595 281.045C301.158 281.045 303.048 272.04 303.048 267.538" stroke="#45190C" stroke-width="0.900452"/>
<path d="M303.951 267.538C302.45 272.04 301.339 281.045 308.903 281.045C316.467 281.045 318.357 272.04 318.357 267.538" stroke="#45190C" stroke-width="0.900452"/>
<path d="M319.071 267.538C317.571 272.04 316.46 281.045 324.024 281.045C331.588 281.045 333.479 272.04 333.479 267.538" stroke="#45190C" stroke-width="0.900452"/>
<path d="M245.949 281.045C245.949 282.846 245.08 286.448 241.606 286.448C240.888 286.448 240.381 285.961 240.547 285.097" stroke="#45190C" stroke-width="0.900452"/>
<path d="M247.02 281.045C245.537 282.846 244.44 286.448 251.913 286.448C259.386 286.448 261.253 282.846 261.253 281.045" stroke="#45190C" stroke-width="0.900452"/>
<path d="M262.328 281.045C260.845 282.846 259.748 286.448 267.221 286.448C274.694 286.448 276.562 282.846 276.562 281.045" stroke="#45190C" stroke-width="0.900452"/>
<path d="M277.633 281.045C276.15 282.846 275.053 286.448 282.526 286.448C289.999 286.448 291.866 282.846 291.866 281.045" stroke="#45190C" stroke-width="0.900452"/>
<path d="M292.945 281.045C291.462 282.846 290.366 286.448 297.838 286.448C305.311 286.448 307.179 282.846 307.179 281.045" stroke="#45190C" stroke-width="0.900452"/>
<path d="M308.254 281.045C306.771 282.846 305.674 286.448 313.147 286.448C320.62 286.448 322.487 282.846 322.487 281.045" stroke="#45190C" stroke-width="0.900452"/>
<path d="M323.559 281.045C322.076 282.846 320.979 286.448 328.452 286.448C335.925 286.448 337.792 282.846 337.792 281.045" stroke="#45190C" stroke-width="0.900452"/>
<path d="M30.2643 254.031C30.2644 258.534 28.3737 267.538 20.8099 267.538C18.7051 267.538 17.2719 266.84 16.332 265.737" stroke="#45190C" stroke-width="0.900452"/>
<path d="M31.349 254.031C29.8482 258.534 28.7377 267.538 36.3015 267.538C43.8653 267.538 45.7559 258.534 45.7558 254.031" stroke="#45190C" stroke-width="0.900452"/>
<path d="M46.6576 254.031C45.1569 258.534 44.0462 267.538 51.61 267.538C59.1738 267.538 61.0645 258.534 61.0644 254.031" stroke="#45190C" stroke-width="0.900452"/>
<path d="M61.9662 254.031C60.4655 258.534 59.3548 267.538 66.9186 267.538C71.814 267.538 74.3331 263.766 75.5011 259.884L76.6614 254.031" stroke="#45190C" stroke-width="0.900452"/>
<path d="M24.6224 267.538C23.1217 272.04 22.0111 281.045 29.5749 281.045C37.1387 281.045 39.0294 272.04 39.0292 267.538" stroke="#45190C" stroke-width="0.900452" stroke-linecap="round"/>
<path d="M39.931 267.538C38.4303 272.04 37.3197 281.045 44.8835 281.045C52.4473 281.045 54.338 272.04 54.3378 267.538" stroke="#45190C" stroke-width="0.900452" stroke-linecap="round"/>
<path d="M55.2357 267.538C53.7349 272.04 52.6244 281.045 60.1882 281.045C67.752 281.045 69.6427 272.04 69.6425 267.538" stroke="#45190C" stroke-width="0.900452" stroke-linecap="round"/>
<path d="M70.5443 267.538C69.0435 272.04 67.933 281.045 75.4968 281.045C83.0606 281.045 83.678 276.543 83.6779 272.04" stroke="#45190C" stroke-width="0.900452" stroke-linecap="round"/>
<path d="M74.045 263.036C73.7449 264.686 74.045 267.988 77.6468 267.988C78.3679 267.988 80.0801 267.718 81.1607 266.638" stroke="#45190C" stroke-width="0.900452"/>
<path d="M41.5469 227.918C72.4624 251.33 152.483 284.107 225.239 227.918" stroke="#1B0701" stroke-width="0.900452"/>
<path d="M227.938 227.918C258.853 251.33 338.873 284.107 411.63 227.918" stroke="#1B0701" stroke-width="0.900452"/>
<path d="M263.588 313.47C268.565 311.51 271.428 314.973 272.577 317.749C272.804 318.299 272.375 318.864 271.781 318.864H203.31C202.633 318.864 202.224 318.16 202.601 317.6C204.4 314.929 208.102 310.456 209.996 308.246C217.146 300.35 223.463 304.076 226.249 307.482C226.576 307.884 227.167 307.974 227.603 307.694C232.674 304.445 237.022 307.856 238.945 310.474C239.176 310.79 239.573 310.942 239.96 310.879C242.641 310.441 244.345 311.893 245.274 313.399C245.677 314.051 246.737 314.215 247.226 313.626C253.697 305.852 259.713 309.642 262.413 313.152C262.686 313.507 263.17 313.635 263.588 313.47Z" fill="#4A7D44" stroke="#1B0701" stroke-width="0.900452"/>
<path d="M188.333 250.43H140.94C140.29 250.43 139.69 250.78 139.37 251.346L123.391 279.711C122.714 280.911 123.582 282.396 124.96 282.396H203.514C204.875 282.396 205.744 280.944 205.102 279.745L189.921 251.381C189.607 250.794 188.998 250.43 188.333 250.43Z" fill="#7E3822" stroke="#1B0701" stroke-width="0.900452"/>
<path d="M136.469 263.936C136.469 268.439 134.578 277.443 127.015 277.443C126.271 277.443 125.611 277.356 125.027 277.195" stroke="#45190C" stroke-width="0.900452"/>
<path d="M137.56 263.936C136.059 268.439 134.949 277.443 142.513 277.443C150.076 277.443 151.966 268.439 151.966 263.936" stroke="#45190C" stroke-width="0.900452"/>
<path d="M152.869 263.936C151.368 268.439 150.257 277.443 157.821 277.443C165.385 277.443 167.275 268.439 167.275 263.936" stroke="#45190C" stroke-width="0.900452"/>
<path d="M168.173 263.936C166.672 268.439 165.562 277.443 173.126 277.443C180.69 277.443 182.58 268.439 182.58 263.936" stroke="#45190C" stroke-width="0.900452"/>
<path d="M183.482 263.936C181.981 268.439 180.871 277.443 188.434 277.443C195.998 277.443 197.515 269.789 197.515 265.287" stroke="#45190C" stroke-width="0.900452"/>
<path d="M147.276 250.43C147.276 254.932 145.385 263.936 137.822 263.936C135.717 263.936 134.284 263.239 133.344 262.136" stroke="#45190C" stroke-width="0.900452"/>
<path d="M148.365 250.43C146.864 254.932 145.753 263.936 153.317 263.936C160.881 263.936 162.771 254.932 162.771 250.43" stroke="#45190C" stroke-width="0.900452"/>
<path d="M163.673 250.43C162.172 254.932 161.062 263.936 168.626 263.936C176.19 263.936 178.08 254.932 178.08 250.43" stroke="#45190C" stroke-width="0.900452"/>
<path d="M178.982 250.43C177.481 254.932 176.371 263.936 183.934 263.936C188.829 263.936 191.349 260.164 192.517 256.283" stroke="#45190C" stroke-width="0.900452"/>
<path d="M141.24 277.443C140.79 279.244 138.628 282.756 133.586 282.396" stroke="#45190C" stroke-width="0.900452"/>
<path d="M127.733 277.443C127.432 279.094 127.733 282.396 131.334 282.396" stroke="#45190C" stroke-width="0.900452"/>
<path d="M157.982 277.443C157.532 279.244 155.371 282.756 150.328 282.396" stroke="#45190C" stroke-width="0.900452"/>
<path d="M144.479 277.443C144.178 279.094 144.479 282.396 148.081 282.396" stroke="#45190C" stroke-width="0.900452"/>
<path d="M173.294 277.443C172.844 279.244 170.683 282.756 165.641 282.396" stroke="#45190C" stroke-width="0.900452"/>
<path d="M159.787 277.443C159.487 279.094 159.787 282.396 163.389 282.396" stroke="#45190C" stroke-width="0.900452"/>
<path d="M188.599 277.443C188.149 279.244 185.988 282.756 180.945 282.396" stroke="#45190C" stroke-width="0.900452"/>
<path d="M203.819 276.993C203.369 278.794 200.757 282.756 195.715 282.396" stroke="#45190C" stroke-width="0.900452"/>
<path d="M175.092 277.443C174.791 279.094 175.092 282.396 178.694 282.396" stroke="#45190C" stroke-width="0.900452"/>
<path d="M190.401 277.443C190.1 279.094 190.401 282.396 194.003 282.396" stroke="#45190C" stroke-width="0.900452"/>
<path d="M195.715 273.391C196.714 275.515 199.358 278.409 202.918 275.992" stroke="#45190C" stroke-width="0.900452"/>
<path d="M188.333 250.43H140.94C140.29 250.43 139.69 250.78 139.37 251.346L123.391 279.711C122.714 280.911 123.582 282.396 124.96 282.396H203.514C204.875 282.396 205.744 280.944 205.102 279.745L189.921 251.381C189.607 250.794 188.998 250.43 188.333 250.43Z" stroke="#1B0701" stroke-width="0.900452"/>
<path d="M230.472 278.905L228.603 278.302C228.13 278.149 227.622 278.409 227.469 278.882L226.414 282.15C226.261 282.624 226.521 283.131 226.995 283.284L228.864 283.887C229.337 284.04 229.845 283.78 229.997 283.307L231.052 280.039C231.205 279.565 230.945 279.058 230.472 278.905Z" fill="#F4F3F3"/>
<path d="M230.472 278.905L228.603 278.302C228.13 278.149 227.622 278.409 227.469 278.882L226.414 282.15C226.261 282.624 226.521 283.131 226.995 283.284L228.864 283.887C229.337 284.04 229.845 283.78 229.997 283.307L231.052 280.039C231.205 279.565 230.945 279.058 230.472 278.905Z" fill="#EBD54F"/>
<path d="M231.087 298.735H227.485C227.237 298.735 227.035 298.937 227.035 299.186V304.588C227.035 304.837 227.237 305.039 227.485 305.039H231.087C231.336 305.039 231.537 304.837 231.537 304.588V299.186C231.537 298.937 231.336 298.735 231.087 298.735Z" fill="#DAD3D3"/>
<path d="M227.488 290.631H224.786C224.538 290.631 224.336 290.833 224.336 291.082V295.584C224.336 295.832 224.538 296.034 224.786 296.034H227.488C227.736 296.034 227.938 295.832 227.938 295.584V291.082C227.938 290.833 227.736 290.631 227.488 290.631Z" fill="#F7FCF8"/>
<path d="M30.7383 225.799V229.851H52.7994V225.799" stroke="#1B0701" stroke-width="0.900452" stroke-linecap="round"/>
<path d="M77.5598 281.177C73.5078 285.229 64.2331 290.901 59.5508 281.177" stroke="#45190C" stroke-width="0.900452" stroke-linecap="round"/>
<path d="M46.0442 281.177C41.9922 285.229 32.7175 290.901 28.0352 281.177" stroke="#45190C" stroke-width="0.900452" stroke-linecap="round"/>
<path d="M216.23 225.799V229.851H238.292V225.799" stroke="#1B0701" stroke-width="0.900452" stroke-linecap="round"/>
<path d="M37.9414 227.6C37.9414 226.605 38.7477 225.799 39.7423 225.799H44.2446C45.2392 225.799 46.0455 226.605 46.0455 227.6V318.545H37.9414V227.6Z" fill="#1B0701"/>
<path d="M43.7267 282.635L40.6361 283.01C40.1424 283.07 39.7908 283.519 39.8507 284.013L40.4478 288.933C40.5077 289.426 40.9565 289.778 41.4502 289.718L44.5408 289.343C45.0345 289.283 45.3861 288.834 45.3262 288.341L44.7291 283.421C44.6692 282.927 44.2204 282.575 43.7267 282.635Z" fill="#F4F3F3"/>
<path d="M43.7267 282.635L40.6361 283.01C40.1424 283.07 39.7908 283.519 39.8507 284.013L40.4478 288.933C40.5077 289.426 40.9565 289.778 41.4502 289.718L44.5408 289.343C45.0345 289.283 45.3861 288.834 45.3262 288.341L44.7291 283.421C44.6692 282.927 44.2204 282.575 43.7267 282.635Z" fill="#F4F3F3"/>
<path d="M41.5432 295.134H38.8419C38.3446 295.134 37.9414 295.537 37.9414 296.034V304.138C37.9414 304.635 38.3446 305.039 38.8419 305.039H41.5432C42.0405 305.039 42.4437 304.635 42.4437 304.138V296.034C42.4437 295.537 42.0405 295.134 41.5432 295.134Z" fill="#DAD3D3"/>
<path d="M77.5586 280.726C78.2763 284.6 80.8119 290.464 87.0133 283.878" stroke="#45190C" stroke-width="0.900452" stroke-linecap="round"/>
<path d="M86.6499 286.898H-15.1972C-16.4786 286.898 -17.35 285.597 -16.863 284.412L-4.83636 255.147C-4.55875 254.472 -3.90088 254.031 -3.17062 254.031H-0.325548H75.4251C76.1708 254.031 76.8394 254.491 77.1065 255.187L88.3314 284.451C88.7837 285.631 87.913 286.898 86.6499 286.898Z" stroke="#1B0701" stroke-width="0.900452"/>
<path d="M335.992 216.794H313.481C312.486 216.794 311.68 217.6 311.68 218.595V220.396C311.68 221.39 312.486 222.197 313.481 222.197H335.992C336.987 222.197 337.793 221.39 337.793 220.396V218.595C337.793 217.6 336.987 216.794 335.992 216.794Z" fill="#147388" fill-opacity="0.5"/>
<path d="M362.105 224.898H339.594C338.599 224.898 337.793 225.704 337.793 226.699V228.5C337.793 229.495 338.599 230.301 339.594 230.301H362.105C363.1 230.301 363.906 229.495 363.906 228.5V226.699C363.906 225.704 363.1 224.898 362.105 224.898Z" fill="#147388" fill-opacity="0.5"/>
<path d="M335.992 235.704H313.481C312.486 235.704 311.68 236.51 311.68 237.505V239.305C311.68 240.3 312.486 241.106 313.481 241.106H335.992C336.987 241.106 337.793 240.3 337.793 239.305V237.505C337.793 236.51 336.987 235.704 335.992 235.704Z" fill="#147388" fill-opacity="0.5"/>
<path d="M297.269 197.885H274.758C273.763 197.885 272.957 198.691 272.957 199.686V201.486C272.957 202.481 273.763 203.287 274.758 203.287H297.269C298.264 203.287 299.07 202.481 299.07 201.486V199.686C299.07 198.691 298.264 197.885 297.269 197.885Z" fill="#147388" fill-opacity="0.5"/>
<path d="M297.269 207.79H274.758C273.763 207.79 272.957 208.596 272.957 209.59V211.391C272.957 212.386 273.763 213.192 274.758 213.192H297.269C298.264 213.192 299.07 212.386 299.07 211.391V209.59C299.07 208.596 298.264 207.79 297.269 207.79Z" fill="#147388" fill-opacity="0.5"/>
<path d="M268.458 236.604H254.051C253.056 236.604 252.25 237.41 252.25 238.405V240.206C252.25 241.2 253.056 242.007 254.051 242.007H268.458C269.453 242.007 270.259 241.2 270.259 240.206V238.405C270.259 237.41 269.453 236.604 268.458 236.604Z" fill="#147388" fill-opacity="0.5"/>
<path d="M393.621 269.02H371.109C370.115 269.02 369.309 269.827 369.309 270.821V272.622C369.309 273.617 370.115 274.423 371.109 274.423H393.621C394.615 274.423 395.422 273.617 395.422 272.622V270.821C395.422 269.827 394.615 269.02 393.621 269.02Z" fill="#147388" fill-opacity="0.5"/>
<path d="M393.621 278.925H371.109C370.115 278.925 369.309 279.732 369.309 280.726V282.527C369.309 283.522 370.115 284.328 371.109 284.328H393.621C394.615 284.328 395.422 283.522 395.422 282.527V280.726C395.422 279.732 394.615 278.925 393.621 278.925Z" fill="#147388" fill-opacity="0.5"/>
<path d="M0 330H390V844H0V330Z" fill="#F5F5F5"/>
<path d="M390.5 318.354H0.5V330.354H390.5V318.354Z" fill="#EBD54F"/>
<path d="M31.5 318V330" stroke="#1B0701" stroke-linecap="round"/>
<path d="M96.5 318V330" stroke="#1B0701" stroke-linecap="round"/>
<path d="M165.5 318.354V330.354" stroke="#1B0701" stroke-linecap="round"/>
<path d="M230.5 318.354V330.354" stroke="#1B0701" stroke-linecap="round"/>
<path d="M286.5 318.354V330.354" stroke="#1B0701" stroke-linecap="round"/>
<path d="M349.5 318.354V330.354" stroke="#1B0701" stroke-linecap="round"/>
<path d="M0 330.5H390.5" stroke="black" stroke-linecap="round"/>
<path d="M326.523 52.3221C318.588 49.3365 313.895 54.8333 311.856 59.5518C311.335 60.7563 312.286 62 313.598 62H428.759C430.247 62 431.15 60.4658 430.325 59.2276C427.155 54.4736 421.205 47.0244 418.102 43.2724C406.222 29.6652 395.69 35.6256 390.794 41.5109C390.041 42.4165 388.697 42.6248 387.696 42.0044C379.441 36.8897 372.373 42.4274 369.067 46.9192C368.541 47.6342 367.641 47.9754 366.761 47.8593C362.914 47.3517 360.292 49.2465 358.675 51.4807C357.663 52.8786 355.206 53.2417 354.086 51.9283C343.547 39.5653 333.813 45.6261 329.204 51.582C328.579 52.3889 327.478 52.6814 326.523 52.3221Z" fill="#F7FCF8" stroke="#147388"/>
<path d="M-11.6695 174.756C-18.2746 172.212 -22.1818 176.895 -23.8793 180.915C-24.3127 181.94 -23.521 183 -22.4287 183H73.4358C74.6746 183 75.4263 181.693 74.739 180.639C72.1002 176.589 67.1474 170.243 64.5648 167.047C54.6748 155.455 45.9077 160.533 41.8325 165.546C41.2055 166.317 40.0865 166.495 39.253 165.966C32.3818 161.61 26.4979 166.327 23.7458 170.153C23.3077 170.762 22.5591 171.053 21.8264 170.954C18.6242 170.522 16.4413 172.135 15.0947 174.039C14.2523 175.23 12.2072 175.539 11.2752 174.42C2.50163 163.889 -5.60067 169.052 -9.43804 174.125C-9.95788 174.813 -10.8746 175.062 -11.6695 174.756Z" fill="#F7FCF8" stroke="#147388"/>
</g>
<defs>
<clipPath id="clip0_1464_11045">
<rect width="390" height="844" fill="white"/>
</clipPath>
</defs>
</svg>
