<svg width="213" height="328" viewBox="0 0 213 328" fill="none" xmlns="http://www.w3.org/2000/svg">
<ellipse cx="105.5" cy="288.602" rx="105.5" ry="23.0461" fill="#676B6B" fill-opacity="0.4"/>
<path d="M152.412 324.935C224.704 311.47 222.435 273.209 181.808 252.24L172.077 272.726C202.895 285.231 177.623 300.853 150.953 304.645C144.902 305.505 140.24 311.003 141.269 317.028C142.169 322.299 147.155 325.914 152.412 324.935Z" fill="#858B86" stroke="black" stroke-width="5.46961"/>
<path d="M181.297 273.75L190.515 257.362L201.782 266.58L187.955 281.944L181.297 273.75Z" fill="#6C6C6C"/>
<path d="M177.452 297.083L191.378 309.717L179.884 318.651L167.982 301.751L177.452 297.083Z" fill="#6C6C6C"/>
<path d="M182.316 290.65C187.233 301.713 199.046 300.722 204.338 298.845L209.46 287.578V276.823L197.68 282.968L186.413 286.041L182.316 290.65Z" fill="#6C6C6C"/>
<path d="M161.216 323.427C171.528 311.955 162.549 306.015 156.771 304.478L144.769 306.527L140.324 314.721L146.103 325.988L161.216 323.427Z" fill="#6C6C6C"/>
<path d="M152.412 324.935C224.704 311.47 222.435 273.209 181.808 252.24L172.077 272.726C202.895 285.231 177.623 300.853 150.953 304.645C144.902 305.505 140.24 311.003 141.269 317.028C142.169 322.299 147.155 325.914 152.412 324.935Z" stroke="black" stroke-width="5.12136"/>
<path d="M104.209 288.367C103.223 286.891 106.342 259.157 107.655 246.029L117.496 268.675C113.163 271.038 115.691 273.27 117.496 274.09V281.967C113.229 285.085 105.538 290.36 104.209 288.367Z" fill="#858B86"/>
<path d="M96.3263 288.367C97.3118 286.891 94.193 259.157 92.8802 246.029L83.0395 268.675C87.3718 271.038 84.8446 273.27 83.0395 274.09V281.967C87.3066 285.085 94.9967 290.36 96.3263 288.367Z" fill="#858B86"/>
<path d="M35.2886 207.827C28.6041 177.37 39.8024 151.68 48.158 142.643H149.407C167.888 145.412 164.441 187.253 166.735 207.827C200.697 220.921 180.02 268.183 166.735 285.906L41.6951 285.413C9.19521 257.352 14.3179 219.46 35.2886 207.827Z" fill="#858B86" stroke="#1B0701" stroke-width="5.4745"/>
<path d="M162.651 240.309C169.085 225.371 176.756 219.741 181.373 218.202L166.109 208.81C155.968 211.586 155.243 227.099 156.866 239.852C157.259 242.939 161.421 243.167 162.651 240.309Z" fill="#6C6C6C"/>
<path d="M171.143 244.664C179.036 242.905 183.977 244.536 186.374 246.235L184.185 233.586C179.176 229.623 172.692 234.256 167.655 239.906C165.642 242.164 168.19 245.321 171.143 244.664Z" fill="#6C6C6C"/>
<path d="M162.935 258.495C170.372 261.671 173.434 265.878 174.39 268.657L179.99 257.106C178.234 250.965 170.264 250.946 162.878 252.597C159.926 253.257 160.153 257.307 162.935 258.495Z" fill="#6C6C6C"/>
<path d="M40.6418 240.309C34.2084 225.371 26.537 219.741 21.92 218.202L37.1836 208.81C47.3247 211.586 48.0497 227.099 46.4267 239.852C46.0339 242.939 41.8724 243.167 40.6418 240.309Z" fill="#6C6C6C"/>
<path d="M32.1503 244.664C24.257 242.905 19.316 244.536 16.9189 246.235L19.1084 233.586C24.1169 229.623 30.6012 234.256 35.6377 239.906C37.6507 242.164 35.1031 245.321 32.1503 244.664Z" fill="#6C6C6C"/>
<path d="M40.3579 258.495C32.9208 261.671 29.8587 265.878 28.9029 268.657L23.3027 257.106C25.0592 250.965 33.0287 250.946 40.415 252.597C43.3672 253.257 43.1399 257.307 40.3579 258.495Z" fill="#6C6C6C"/>
<path d="M35.2886 207.827C28.6041 177.37 39.8024 151.68 48.158 142.643H149.407C167.888 145.412 164.441 187.253 166.735 207.827C200.697 220.921 180.02 268.183 166.735 285.906L41.6951 285.413C9.19521 257.352 14.3179 219.46 35.2886 207.827Z" stroke="#1B0701" stroke-width="5.12136"/>
<path d="M76.4108 172.475C55.6847 172.467 43.4685 164.268 39.6296 159.544V184.126C47.5253 194.983 65.6358 186.753 78.4757 178.051C81.0069 176.335 79.4686 172.476 76.4108 172.475Z" fill="#6C6C6C"/>
<path d="M96.2799 262.995C85.2178 254.801 73.5752 260.264 69.1367 264.019V272.726L96.2799 273.75V262.995Z" fill="#6C6C6C"/>
<path d="M131.105 263.333C119.834 253.836 107.971 260.167 103.449 264.52V274.611L131.105 275.798V263.333Z" fill="#6C6C6C"/>
<path d="M77.8344 196.382C57.8952 202.038 43.9035 197.491 38.9194 193.995L45.6378 217.642C56.2001 225.927 71.3719 213.061 81.3446 201.181C83.3106 198.839 80.7761 195.547 77.8344 196.382Z" fill="#6C6C6C"/>
<path d="M89.3508 229.559C70.9932 234.695 57.952 229.929 53.2581 226.371L59.9764 250.018C69.9907 258.467 83.9016 245.938 92.9705 234.307C94.8232 231.931 92.2525 228.747 89.3508 229.559Z" fill="#6C6C6C"/>
<path d="M38.9211 158.397C37.7622 174.274 41.4369 211.988 62.4964 250.521C66.4704 259.262 72.9284 277.493 66.9681 280.49L98.7925 278.195L91.3422 197.652" stroke="#1B0701" stroke-width="5.12136" stroke-linecap="round"/>
<path d="M44.5547 146.74C61.2845 162.616 108.264 186.892 156.2 146.74H44.5547Z" fill="#6C6C6C"/>
<path d="M47.5948 266.313H52.5179C61.9795 266.313 69.6497 273.983 69.6497 283.444V285.414C69.6497 286.718 68.592 287.776 67.2873 287.776H32.8255C31.5207 287.776 30.463 286.718 30.463 285.414V283.444C30.463 273.983 38.1332 266.313 47.5948 266.313Z" fill="#858B86" stroke="#1B0701" stroke-width="5.12136"/>
<path d="M151.962 266.313H156.885C166.347 266.313 174.017 273.983 174.017 283.444V285.414C174.017 286.718 172.959 287.776 171.654 287.776H137.193C135.888 287.776 134.83 286.718 134.83 285.414V283.444C134.83 273.983 142.5 266.313 151.962 266.313Z" fill="#858B86" stroke="#1B0701" stroke-width="5.12136"/>
<path d="M125.722 33.1007C101.478 16.9383 80.8261 26.3664 73.5305 33.1007C66.235 21.3156 46.2565 -1.24457 24.7066 2.79604C19.0947 7.84683 11.9114 28.7233 28.0738 71.823C15.7257 100.444 13.2527 157.686 102.146 157.686C135.26 158.247 195.09 141.86 169.495 71.823C182.964 33.1007 180.158 14.0199 172.862 2.79604C145.925 4.1429 129.65 20.7544 125.722 33.1007Z" fill="#FFFCF3"/>
<path d="M71.8477 35.1691C82.1872 61.1983 107.438 97.6392 125.722 35.1691C118.104 25.6251 96.6627 12.2635 71.8477 35.1691Z" fill="#FFE38F"/>
<path d="M125.746 109.757C142.685 132.062 176.781 160.399 177.649 95.3142C167.75 88.162 143.512 81.0376 125.746 109.757Z" fill="#FFE38F"/>
<path d="M72.4101 109.757C55.4709 132.062 21.3755 160.399 20.5076 95.3142C30.406 88.162 54.6443 81.0376 72.4101 109.757Z" fill="#FFE38F"/>
<ellipse cx="100.465" cy="103.812" rx="13.4687" ry="6.73434" fill="#FEC6C6"/>
<path d="M86.9922 103.812C92.0429 108.863 104.165 115.934 112.246 103.812" stroke="#1B0701" stroke-width="3.36717" stroke-linecap="round"/>
<path d="M100.461 110.546V127.382" stroke="#1B0701" stroke-width="3.36717" stroke-linecap="round"/>
<ellipse cx="71.8476" cy="88.6593" rx="8.41792" ry="5.05075" transform="rotate(-90 71.8476 88.6593)" fill="black"/>
<ellipse cx="125.719" cy="88.6593" rx="8.41792" ry="5.05075" transform="rotate(-90 125.719 88.6593)" fill="black"/>
<path d="M80.6484 31.991L80.6484 70.2925" stroke="#444348" stroke-width="6.73434" stroke-linecap="round"/>
<path d="M100.848 25.8882V73.0285" stroke="#444348" stroke-width="6.73434" stroke-linecap="round"/>
<path d="M121.051 31.991L121.051 70.2925" stroke="#444348" stroke-width="6.73434" stroke-linecap="round"/>
<path d="M140.875 110.546L162.762 107.179" stroke="#1B0701" stroke-width="3.36717" stroke-linecap="round"/>
<path d="M142.557 118.682L156.031 122.331" stroke="#1B0701" stroke-width="3.36717" stroke-linecap="round"/>
<path d="M58.375 110.546L36.4884 107.179" stroke="#1B0701" stroke-width="3.36717" stroke-linecap="round"/>
<path d="M56.6927 118.682L43.219 122.331" stroke="#1B0701" stroke-width="3.36717" stroke-linecap="round"/>
<path d="M73.543 33.1017C80.8385 26.3674 101.49 16.9393 125.734 33.1017C129.662 20.7554 145.937 4.14386 172.874 2.797C180.17 14.0209 182.976 33.1017 169.507 71.8239" stroke="#1B0701" stroke-width="5.05075" stroke-linecap="round"/>
<path d="M71.8594 33.1015C67.931 20.7552 51.6564 4.14386 24.719 2.797C17.4235 14.0209 12.9339 33.1015 28.0862 71.8239" stroke="#1B0701" stroke-width="5.05075" stroke-linecap="round"/>
<path d="M28.086 71.8242C15.7397 100.445 12.9337 157.687 100.48 157.687" stroke="#1B0701" stroke-width="5.05075" stroke-linecap="round"/>
<path d="M169.512 71.8242C181.858 100.445 184.664 157.687 97.1176 157.687" stroke="#1B0701" stroke-width="5.05075" stroke-linecap="round"/>
<path d="M125.722 33.1007C101.478 16.9383 80.8261 26.3664 73.5305 33.1007C66.235 21.3156 46.2565 -1.24457 24.7066 2.79604C19.0947 7.84683 11.9114 28.7233 28.0738 71.823C15.7257 100.444 13.2527 157.686 102.146 157.686C135.26 158.247 195.09 141.86 169.495 71.823C182.964 33.1007 180.158 14.0199 172.862 2.79604C145.925 4.1429 129.65 20.7544 125.722 33.1007Z" fill="#858B86"/>
<path d="M71.8477 35.1691C82.1872 61.1983 107.438 97.6392 125.722 35.1691C118.104 25.6251 96.6627 12.2635 71.8477 35.1691Z" fill="#6C6C6C"/>
<path d="M125.746 109.757C142.685 132.062 176.781 160.399 177.649 95.3142C167.75 88.162 143.512 81.0376 125.746 109.757Z" fill="#6C6C6C"/>
<path d="M72.4101 109.757C55.4709 132.062 21.3755 160.399 20.5076 95.3142C30.406 88.162 54.6443 81.0376 72.4101 109.757Z" fill="#6C6C6C"/>
<ellipse cx="100.465" cy="103.812" rx="13.4687" ry="6.73434" fill="#444348"/>
<path d="M86.6953 103.812C91.7461 108.863 103.868 115.934 111.949 103.812" stroke="#1B0701" stroke-width="3.36717" stroke-linecap="round"/>
<path d="M100.371 110.891L100.371 123.182" stroke="#1B0701" stroke-width="3.36717" stroke-linecap="round"/>
<ellipse cx="71.8466" cy="88.6594" rx="8.41792" ry="5.05075" transform="rotate(60 71.8466 88.6594)" fill="#0F521D"/>
<ellipse cx="125.72" cy="88.6594" rx="8.41792" ry="5.05075" transform="rotate(-60 125.72 88.6594)" fill="#0F521D"/>
<path d="M80.6484 31.991L80.6484 70.2925" stroke="#444348" stroke-width="6.73434" stroke-linecap="round"/>
<path d="M100.848 25.8882V73.0285" stroke="#444348" stroke-width="6.73434" stroke-linecap="round"/>
<path d="M121.051 31.991L121.051 70.2925" stroke="#444348" stroke-width="6.73434" stroke-linecap="round"/>
<path d="M140.875 110.546L162.762 107.179" stroke="#1B0701" stroke-width="3.36717" stroke-linecap="round"/>
<path d="M142.557 118.682L156.031 122.331" stroke="#1B0701" stroke-width="3.36717" stroke-linecap="round"/>
<path d="M58.375 110.546L36.4884 107.179" stroke="#1B0701" stroke-width="3.36717" stroke-linecap="round"/>
<path d="M56.6927 118.682L43.219 122.331" stroke="#1B0701" stroke-width="3.36717" stroke-linecap="round"/>
<path d="M73.543 33.1017C80.8385 26.3674 101.49 16.9393 125.734 33.1017C129.662 20.7554 145.937 4.14386 172.874 2.797C180.17 14.0209 182.976 33.1017 169.507 71.8239" stroke="#1B0701" stroke-width="5.12136" stroke-linecap="round"/>
<path d="M71.8594 33.1015C67.931 20.7552 51.6564 4.14386 24.719 2.797C17.4235 14.0209 12.9339 33.1015 28.0862 71.8239" stroke="#1B0701" stroke-width="5.12136" stroke-linecap="round"/>
<path d="M28.086 71.8242C15.7397 100.445 12.9337 157.687 100.48 157.687" stroke="#1B0701" stroke-width="5.12136" stroke-linecap="round"/>
<path d="M169.512 71.8242C181.858 100.445 184.664 157.687 97.1176 157.687" stroke="#1B0701" stroke-width="5.12136" stroke-linecap="round"/>
<path d="M87.4727 122.158C89.8637 126.091 95.7565 131.599 100.199 122.158" stroke="#1B0701" stroke-width="3.36909" stroke-linecap="round"/>
<path d="M100.199 122.158C102.59 126.091 108.483 131.599 112.926 122.158" stroke="#1B0701" stroke-width="3.36909" stroke-linecap="round"/>
<path d="M63.3451 276.06C70.2375 272.613 62.3605 256.531 57.9297 247.998L60.8836 265.229C63.3451 267.69 62.8528 270.644 59.4066 271.137L63.3451 276.06Z" fill="#858B86"/>
<path d="M134.237 272.121C133.055 270.152 136.37 261.454 138.175 257.352L140.146 267.69C137.192 271.629 140.638 273.106 143.592 272.121L141.623 279.506C141.623 280.326 141.524 281.475 141.131 279.506C140.737 277.536 136.371 273.762 134.237 272.121Z" fill="#858B86"/>
<path d="M43.0156 278.871V286.041" stroke="#1B0701" stroke-width="3.36985" stroke-linecap="round"/>
<path d="M52.7461 278.871V286.041" stroke="#1B0701" stroke-width="3.36985" stroke-linecap="round"/>
<path d="M151.59 278.871V286.041" stroke="#1B0701" stroke-width="3.36985" stroke-linecap="round"/>
<path d="M161.324 278.871V286.041" stroke="#1B0701" stroke-width="3.36985" stroke-linecap="round"/>
<path d="M123.515 172.475C144.241 172.467 156.457 164.268 160.296 159.544V184.126C152.4 194.983 134.29 186.753 121.45 178.051C118.919 176.335 120.457 172.476 123.515 172.475Z" fill="#6C6C6C"/>
<path d="M122.087 196.829C142.027 202.486 156.018 197.938 161.002 194.442L154.284 218.089C143.722 226.374 128.55 213.508 118.577 201.628C116.611 199.286 119.146 195.995 122.087 196.829Z" fill="#6C6C6C"/>
<path d="M110.571 230.407C128.929 235.543 141.97 230.777 146.664 227.219L139.945 250.866C129.931 259.315 116.02 246.786 106.951 235.155C105.099 232.779 107.669 229.595 110.571 230.407Z" fill="#6C6C6C"/>
<path d="M161.618 158.397C162.777 174.274 159.102 211.988 138.043 250.521C134.069 259.262 127.611 277.493 133.571 280.49L101.747 278.195L109.197 197.652" stroke="#1B0701" stroke-width="5.12136" stroke-linecap="round"/>
<path d="M79.0987 271.235H84.0218C93.4834 271.235 101.154 278.906 101.154 288.367V290.337C101.154 291.641 100.096 292.699 98.7912 292.699H64.3294C63.0246 292.699 61.9669 291.641 61.9669 290.337V288.367C61.9669 278.906 69.6371 271.235 79.0987 271.235Z" fill="#858B86" stroke="#1B0701" stroke-width="5.12136"/>
<path d="M98.793 288.367C98.793 277.491 107.61 268.675 118.485 268.675H123.409C134.284 268.675 143.101 277.491 143.101 288.367V290.337C143.101 293.055 140.897 295.26 138.178 295.26H103.716C100.997 295.26 98.793 293.055 98.793 290.337V288.367Z" fill="#858B86"/>
<path d="M140.54 288.367V290.337C140.54 291.641 139.483 292.699 138.178 292.699H103.716C102.411 292.699 101.354 291.641 101.354 290.337V288.367C101.354 278.906 109.024 271.235 118.485 271.235H120.947H123.409C132.87 271.235 140.54 278.906 140.54 288.367Z" stroke="#1B0701" stroke-width="5.12136"/>
<path d="M118.812 284.505V291.675" stroke="#1B0701" stroke-width="3.36985" stroke-linecap="round"/>
<path d="M128.543 284.505V291.675" stroke="#1B0701" stroke-width="3.36985" stroke-linecap="round"/>
<path d="M73.2305 284.505V291.675" stroke="#1B0701" stroke-width="3.36985" stroke-linecap="round"/>
<path d="M82.9648 284.505V291.675" stroke="#1B0701" stroke-width="3.36985" stroke-linecap="round"/>
</svg>
