<svg width="118" height="108" viewBox="0 0 118 108" fill="none" xmlns="http://www.w3.org/2000/svg">
<path d="M75.8915 22.5797C59.6835 11.7744 45.8768 18.0775 40.9994 22.5797C36.122 14.7008 22.7654 -0.381651 8.35836 2.31967C4.60652 5.69636 -0.195833 19.6532 10.6095 48.4673C2.35419 67.6017 0.700932 105.87 60.1301 105.87C82.2684 106.246 122.267 95.2903 105.156 48.4673C114.16 22.5797 112.284 9.82335 107.407 2.31967C89.3981 3.22012 78.5178 14.3257 75.8915 22.5797Z" fill="#858B86"/>
<path d="M40.3711 24.4282C47.2614 41.7741 64.0882 66.0583 76.2732 24.4282C71.1961 18.0681 56.9078 9.16388 40.3711 24.4282Z" fill="#6C6C6C"/>
<path d="M76.2908 74.1339C87.5791 88.9976 110.3 107.882 110.879 64.5089C104.282 59.7427 88.13 54.995 76.2908 74.1339Z" fill="#6C6C6C"/>
<path d="M40.7483 74.1339C29.46 88.9976 6.73876 107.882 6.16041 64.5089C12.7567 59.7427 28.9091 54.995 40.7483 74.1339Z" fill="#6C6C6C"/>
<ellipse cx="57.9966" cy="69.8528" rx="9.00442" ry="4.50221" fill="#444348"/>
<path d="M48.9844 69.8528C52.361 73.2294 60.4844 77 66.4844 69.8528" stroke="#1B0701" stroke-width="2.2511" stroke-linecap="round"/>
<path d="M58 74L58 82" stroke="#1B0701" stroke-width="2.2511" stroke-linecap="round"/>
<path d="M51 82C52.4 83.5092 55.76 85.6222 58 82" stroke="#1B0701" stroke-width="2.25" stroke-linecap="round"/>
<path d="M58 82C59.4 83.5092 62.76 85.6222 65 82" stroke="#1B0701" stroke-width="2.25" stroke-linecap="round"/>
<ellipse cx="39.999" cy="59.3722" rx="5.62776" ry="3.37666" transform="rotate(60 39.999 59.3722)" fill="#0F521D"/>
<ellipse cx="75.3592" cy="59.3722" rx="5.62776" ry="3.37666" transform="rotate(-60 75.3592 59.3722)" fill="#0F521D"/>
<path d="M45.8984 21.8379L45.8984 47.4442" stroke="#444348" stroke-width="4.50221" stroke-linecap="round"/>
<path d="M59.4062 17.7576V49.273" stroke="#444348" stroke-width="4.50221" stroke-linecap="round"/>
<path d="M72.9102 21.8379L72.9102 47.4442" stroke="#444348" stroke-width="4.50221" stroke-linecap="round"/>
<path d="M86.1562 74.3546L100.788 72.1035" stroke="#1B0701" stroke-width="2.2511" stroke-linecap="round"/>
<path d="M87.2815 79.7943L96.2892 82.2333" stroke="#1B0701" stroke-width="2.2511" stroke-linecap="round"/>
<path d="M31 74.3546L16.3678 72.1035" stroke="#1B0701" stroke-width="2.2511" stroke-linecap="round"/>
<path d="M29.8787 79.7943L20.8709 82.2333" stroke="#1B0701" stroke-width="2.2511" stroke-linecap="round"/>
<path d="M41.125 22.5799C46.0024 18.0777 59.8092 11.7746 76.0171 22.5799C78.6434 14.3258 89.5237 3.22027 107.533 2.31982C112.41 9.8235 114.286 22.5799 105.281 48.4675" stroke="#1B0701" stroke-width="3.37666" stroke-linecap="round"/>
<path d="M40.0039 22.5798C37.3776 14.3257 26.4973 3.22027 8.48844 2.31982C3.61105 9.8235 0.609576 22.5798 10.7395 48.4675" stroke="#1B0701" stroke-width="3.37666" stroke-linecap="round"/>
<path d="M10.7425 48.4675C2.48841 67.6019 0.612487 105.871 59.1412 105.871" stroke="#1B0701" stroke-width="3.37666" stroke-linecap="round"/>
<path d="M105.289 48.4675C113.543 67.6019 115.419 105.871 56.8901 105.871" stroke="#1B0701" stroke-width="3.37666" stroke-linecap="round"/>
</svg>
