<svg width="390" height="844" viewBox="0 0 390 844" fill="none" xmlns="http://www.w3.org/2000/svg">
<g clip-path="url(#clip0_1424_8743)">
<rect width="390" height="844" fill="#B6F2FF"/>
<path d="M0 724H390V844H0V724Z" fill="#F5F5F5"/>
<path d="M-9.47797 177.322C-17.4126 174.336 -22.1063 179.833 -24.1455 184.552C-24.6661 185.756 -23.7151 187 -22.4029 187H92.758C94.2462 187 95.1492 185.466 94.3236 184.228C91.1536 179.474 85.2039 172.024 82.1014 168.272C70.2207 154.665 59.6889 160.626 54.7934 166.511C54.0401 167.416 52.6959 167.625 51.6946 167.004C43.4403 161.89 36.3721 167.427 33.066 171.919C32.5397 172.634 31.6405 172.975 30.7602 172.859C26.9135 172.352 24.2912 174.246 22.6736 176.481C21.6616 177.879 19.2048 178.242 18.0852 176.928C7.54563 164.565 -2.18758 170.626 -6.79737 176.582C-7.42184 177.389 -8.52307 177.681 -9.47797 177.322Z" fill="#F7FCF8" stroke="#147388"/>
<path d="M-35.478 453.322C-43.4126 450.336 -48.1063 455.833 -50.1455 460.552C-50.6661 461.756 -49.7151 463 -48.4029 463H66.758C68.2462 463 69.1492 461.466 68.3236 460.228C65.1536 455.474 59.2039 448.024 56.1014 444.272C44.2207 430.665 33.6889 436.626 28.7934 442.511C28.0401 443.416 26.6959 443.625 25.6946 443.004C17.4403 437.89 10.3721 443.427 7.06601 447.919C6.53968 448.634 5.64047 448.975 4.76021 448.859C0.913452 448.352 -1.70885 450.246 -3.32638 452.481C-4.33844 453.879 -6.79515 454.242 -7.91478 452.928C-18.4544 440.565 -28.1876 446.626 -32.7974 452.582C-33.4218 453.389 -34.5231 453.681 -35.478 453.322Z" fill="#F7FCF8" stroke="#147388"/>
<path d="M324.522 263.322C316.587 260.336 311.894 265.833 309.855 270.552C309.334 271.756 310.285 273 311.597 273H426.758C428.246 273 429.149 271.466 428.324 270.228C425.154 265.474 419.204 258.024 416.101 254.272C404.221 240.665 393.689 246.626 388.793 252.511C388.04 253.416 386.696 253.625 385.695 253.004C377.44 247.89 370.372 253.427 367.066 257.919C366.54 258.634 365.64 258.975 364.76 258.859C360.913 258.352 358.291 260.246 356.674 262.481C355.662 263.879 353.205 264.242 352.085 262.928C341.546 250.565 331.812 256.626 327.203 262.582C326.578 263.389 325.477 263.681 324.522 263.322Z" fill="#F7FCF8" stroke="#147388"/>
<path d="M326.522 52.3221C318.587 49.3365 313.894 54.8333 311.855 59.5518C311.334 60.7563 312.285 62 313.597 62H428.758C430.246 62 431.149 60.4658 430.324 59.2276C427.154 54.4736 421.204 47.0244 418.101 43.2724C406.221 29.6652 395.689 35.6256 390.793 41.5109C390.04 42.4165 388.696 42.6248 387.695 42.0044C379.44 36.8897 372.372 42.4274 369.066 46.9192C368.54 47.6342 367.64 47.9754 366.76 47.8593C362.913 47.3517 360.291 49.2465 358.674 51.4807C357.662 52.8786 355.205 53.2417 354.085 51.9283C343.546 39.5653 333.812 45.6261 329.203 51.582C328.578 52.3889 327.477 52.6814 326.522 52.3221Z" fill="#F7FCF8" stroke="#147388"/>
<rect x="376.5" y="646.5" width="44" height="74" rx="1.5" fill="#90D8E8" stroke="#147388"/>
<path d="M167.794 545.933H188.537C189.349 545.933 190.013 546.579 190.036 547.391L193.208 661.879C193.232 662.723 192.554 663.421 191.709 663.421H164.093C163.246 663.421 162.566 662.719 162.594 661.872L166.295 547.384C166.321 546.575 166.985 545.933 167.794 545.933Z" fill="#F7FCF8" stroke="#706969"/>
<path d="M188.988 523.389C188.471 529.107 183.44 534.354 177.365 534.354C170.932 534.354 165.699 529.024 165.699 522.428C165.699 519.093 167.034 513.812 169.212 509.361C170.299 507.139 171.581 505.155 172.985 503.735C174.394 502.31 175.874 501.5 177.365 501.5C178.738 501.5 179.728 502.27 180.558 503.676C181.399 505.1 182.015 507.084 182.644 509.324C182.745 509.682 182.846 510.046 182.947 510.414C183.476 512.325 184.036 514.35 184.765 516.238C185.635 518.492 186.763 520.606 188.418 522.15C188.811 522.516 189.027 522.962 188.988 523.389Z" fill="#F59737" stroke="#706969" stroke-linejoin="bevel"/>
<path d="M177.774 502.058C173.565 511.403 169.236 530.41 183.186 531.68" stroke="#706969"/>
<path d="M148.003 708.354L205.667 708.354C206.393 708.354 207.061 707.961 207.414 707.328L227.017 672.185C227.76 670.851 226.797 669.21 225.27 669.21L129.38 669.21C127.873 669.21 126.907 670.815 127.613 672.147L146.235 707.29C146.582 707.944 147.262 708.354 148.003 708.354Z" fill="#F7FCF8" stroke="#706969"/>
<rect x="125.5" y="660.189" width="103.735" height="9.57926" rx="1.5" fill="#EBE5CB" stroke="#706969"/>
<rect x="161.473" y="539.585" width="32.8536" height="6.40548" rx="1.5" fill="#EBE5CB" stroke="#706969"/>
<rect x="269.5" y="570.854" width="49" height="141" rx="1.5" fill="#90D8E8" stroke="#147388"/>
<rect x="309.5" y="589.854" width="67" height="122" rx="1.5" fill="#90D8E8" stroke="#147388"/>
<rect x="-23.5" y="604.854" width="67" height="107" rx="1.5" fill="#90D8E8" stroke="#147388"/>
<rect x="43.5" y="633.5" width="56" height="89" rx="1.5" fill="#90D8E8" stroke="#147388"/>
<rect x="99.5" y="657.5" width="36" height="59" rx="1.5" fill="#90D8E8" stroke="#147388"/>
<rect x="200.5" y="636.854" width="44" height="84" rx="1.5" fill="#90D8E8" stroke="#147388"/>
<rect x="244.5" y="617.854" width="31" height="94" rx="1.5" fill="#90D8E8" stroke="#147388"/>
<path d="M345.829 705.768C341.856 704.609 339.306 707.031 337.958 709.529C337.335 710.683 338.283 711.933 339.594 711.933H407.764C409.251 711.933 410.125 710.419 409.27 709.202C407.249 706.323 404.187 702.481 402.5 700.433C395.665 692.573 389.56 695.346 386.368 698.711C385.555 699.568 384.208 699.763 383.153 699.232C378.705 696.991 374.901 699.698 372.868 702.209C372.309 702.901 371.407 703.23 370.518 703.202C369.221 703.161 368.175 703.584 367.352 704.22C365.985 705.278 363.406 705.689 362.172 704.479C356.502 698.922 351.351 701.76 348.574 704.993C347.907 705.769 346.811 706.055 345.829 705.768Z" fill="#4A7D44" stroke="#1B0701"/>
<rect x="204" y="646" width="29" height="6" rx="2" fill="#147388" fill-opacity="0.5"/>
<rect x="204" y="657" width="29" height="6" rx="2" fill="#147388" fill-opacity="0.5"/>
<rect x="67" y="648" width="29" height="6" rx="2" fill="#147388" fill-opacity="0.5"/>
<rect x="79" y="657" width="17" height="6" rx="2" fill="#147388" fill-opacity="0.5"/>
<rect x="23" y="630" width="17" height="6" rx="2" fill="#147388" fill-opacity="0.5"/>
<rect y="712.354" width="390" height="12" fill="#EBD54F"/>
<path d="M252.5 676.854H339.5V711.854H252.5V676.854Z" fill="#EBE5CB" stroke="#1B0701"/>
<rect x="111.5" y="671.854" width="58" height="40" fill="#EBE5CB" stroke="#1B0701"/>
<path d="M352.091 676.854H238.984C237.561 676.854 236.593 675.409 237.134 674.093L250.491 641.593C250.799 640.843 251.529 640.354 252.34 640.354H255.5H339.625C340.453 640.354 341.196 640.864 341.492 641.637L353.958 674.137C354.461 675.447 353.494 676.854 352.091 676.854Z" fill="#7E3822" stroke="#1B0701"/>
<rect x="263.5" y="683.854" width="30" height="7" rx="1.5" fill="#F7FCF8" stroke="#1B0701"/>
<rect x="121.5" y="679.854" width="16" height="11" rx="1.5" fill="white" stroke="#1B0701"/>
<path d="M313 691.854H327C327.828 691.854 328.5 692.525 328.5 693.354V711.854H311.5V693.354C311.5 692.525 312.172 691.854 313 691.854Z" fill="#7E3822" stroke="#1B0701"/>
<rect x="-33.5" y="676.854" width="87" height="35" fill="#EBE5CB" stroke="#1B0701"/>
<path d="M66.0908 676.854H-47.0158C-48.4388 676.854 -49.4066 675.409 -48.8657 674.093L-35.5095 641.593C-35.2012 640.843 -34.4706 640.354 -33.6596 640.354H-30.5H53.6251C54.4533 640.354 55.1958 640.864 55.4924 641.637L67.9582 674.137C68.4605 675.447 67.4936 676.854 66.0908 676.854Z" fill="#7E3822" stroke="#1B0701"/>
<rect x="-22.5" y="683.854" width="30" height="7" rx="1.5" fill="#F7FCF8" stroke="#1B0701"/>
<path d="M33.5 670C32.5 673 27.9 678.3 17.5 675.5" stroke="#45190C" stroke-linecap="round"/>
<path d="M27 691.854H41C41.8284 691.854 42.5 692.525 42.5 693.354V711.854H25.5V693.354C25.5 692.525 26.1716 691.854 27 691.854Z" fill="#F7FCF8" stroke="#1B0701"/>
<path d="M111 696.354L171 696.354" stroke="#1B0701"/>
<path d="M129 696.854V711.354" stroke="#1B0701"/>
<path d="M136 696.854V711.354" stroke="#1B0701"/>
<path d="M122 696.854V711.354" stroke="#1B0701"/>
<path d="M115 696.854V711.354" stroke="#1B0701"/>
<path d="M157 696.854V711.354" stroke="#1B0701"/>
<path d="M164 696.854V711.354" stroke="#1B0701"/>
<path d="M150 696.854V711.354" stroke="#1B0701"/>
<path d="M143 696.854V711.354" stroke="#1B0701"/>
<rect x="142.5" y="692.854" width="8" height="19" rx="1.5" fill="#1B0701"/>
<rect x="142.5" y="692.854" width="8" height="19" rx="1.5" fill="black" fill-opacity="0.2"/>
<rect x="142.5" y="692.854" width="8" height="19" rx="1.5" stroke="#1B0701"/>
<rect x="218" y="609" width="9" height="103" rx="2" fill="#1B0701"/>
<path d="M61.1112 705.997C55.742 703.849 52.6537 707.691 51.4141 710.767C51.1686 711.377 51.6449 712 52.3021 712H126.371C127.117 712 127.574 711.227 127.165 710.603C125.22 707.638 121.208 702.665 119.155 700.209C111.436 691.461 104.611 695.557 101.586 699.333C101.22 699.79 100.551 699.891 100.061 699.571C94.597 696.011 89.9142 699.768 87.832 702.668C87.5746 703.026 87.1266 703.198 86.6911 703.127C83.8369 702.663 82.0103 704.231 81.0011 705.879C80.5524 706.612 79.3546 706.794 78.8112 706.128C71.8379 697.583 65.3584 701.753 62.4346 705.635C62.1297 706.039 61.5816 706.185 61.1112 705.997Z" fill="#4A7D44" stroke="#1B0701"/>
<path d="M185.034 700.939C180.404 690.941 173.314 692.828 169.722 695.409C169.248 695.75 169 696.311 169 696.895V710.354C169 711.458 169.895 712.354 171 712.354H196.605C197.852 712.354 198.811 711.215 198.407 710.035C196.443 704.298 191.858 703.492 188.69 704.012C187.749 704.166 186.752 703.823 186.264 703.004L185.034 700.939Z" fill="#4A7D44" stroke="#1B0701"/>
<path d="M251 640.354C249.334 645.354 248.1 655.354 256.5 655.354C264.9 655.354 267 645.354 267 640.354" stroke="#45190C"/>
<path d="M268.207 640.354C266.541 645.354 265.307 655.354 273.707 655.354C282.107 655.354 284.207 645.354 284.207 640.354" stroke="#45190C"/>
<path d="M285.207 640.354C283.541 645.354 282.307 655.354 290.707 655.354C299.107 655.354 301.207 645.354 301.207 640.354" stroke="#45190C"/>
<path d="M302.207 640.354C300.541 645.354 299.307 655.354 307.707 655.354C316.107 655.354 318.207 645.354 318.207 640.354" stroke="#45190C"/>
<path d="M319.207 640.354C317.541 645.354 316.307 655.354 324.707 655.354C333.107 655.354 335.207 645.354 335.207 640.354" stroke="#45190C"/>
<path d="M336.207 640.354C334.541 645.354 333.307 655.354 341.707 655.354C342.972 655.354 345.6 655.154 346 654.354" stroke="#45190C"/>
<path d="M341.207 655.354C339.541 660.354 338.307 670.354 346.707 670.354C347.972 670.354 352 669.354 351.5 668.354" stroke="#45190C"/>
<path d="M255.208 655.354C255.208 660.354 253.108 670.354 244.708 670.354C242.973 670.354 239.601 669.754 240.001 667.354" stroke="#45190C"/>
<path d="M256.415 655.354C254.748 660.354 253.515 670.354 261.915 670.354C270.315 670.354 272.414 660.354 272.414 655.354" stroke="#45190C"/>
<path d="M273.415 655.354C271.748 660.354 270.515 670.354 278.915 670.354C287.315 670.354 289.414 660.354 289.414 655.354" stroke="#45190C"/>
<path d="M290.415 655.354C288.748 660.354 287.515 670.354 295.915 670.354C304.315 670.354 306.414 660.354 306.414 655.354" stroke="#45190C"/>
<path d="M307.415 655.354C305.748 660.354 304.515 670.354 312.915 670.354C321.315 670.354 323.414 660.354 323.414 655.354" stroke="#45190C"/>
<path d="M324.207 655.354C322.541 660.354 321.307 670.354 329.707 670.354C338.107 670.354 340.207 660.354 340.207 655.354" stroke="#45190C"/>
<path d="M243.003 670.354C243.003 672.354 242.038 676.354 238.18 676.354C237.383 676.354 236.82 675.814 237.004 674.854" stroke="#45190C"/>
<path d="M244.193 670.354C242.546 672.354 241.328 676.354 249.627 676.354C257.926 676.354 260 672.354 260 670.354" stroke="#45190C"/>
<path d="M261.193 670.354C259.546 672.354 258.328 676.354 266.627 676.354C274.926 676.354 277 672.354 277 670.354" stroke="#45190C"/>
<path d="M278.193 670.354C276.546 672.354 275.328 676.354 283.627 676.354C291.926 676.354 294 672.354 294 670.354" stroke="#45190C"/>
<path d="M295.193 670.354C293.546 672.354 292.328 676.354 300.627 676.354C308.926 676.354 311 672.354 311 670.354" stroke="#45190C"/>
<path d="M312.193 670.354C310.546 672.354 309.328 676.354 317.627 676.354C325.926 676.354 328 672.354 328 670.354" stroke="#45190C"/>
<path d="M329.193 670.354C327.546 672.354 326.328 676.354 334.627 676.354C342.926 676.354 345 672.354 345 670.354" stroke="#45190C"/>
<path d="M3.47251 640.354C3.47266 645.354 1.37295 655.354 -7.02705 655.354C-9.36463 655.354 -10.9562 654.579 -12 653.354" stroke="#45190C"/>
<path d="M4.68013 640.354C3.01346 645.354 1.78013 655.354 10.1801 655.354C18.5801 655.354 20.6798 645.354 20.6797 640.354" stroke="#45190C"/>
<path d="M21.6801 640.354C20.0135 645.354 18.7801 655.354 27.1801 655.354C35.5801 655.354 37.6798 645.354 37.6797 640.354" stroke="#45190C"/>
<path d="M38.6801 640.354C37.0135 645.354 35.7801 655.354 44.1801 655.354C49.6167 655.354 52.4142 651.165 53.7114 646.854L55 640.354" stroke="#45190C"/>
<path d="M-2.79253 655.354C-4.45919 660.354 -5.69253 670.354 2.70747 670.354C11.1075 670.354 13.2072 660.354 13.207 655.354" stroke="#45190C" stroke-linecap="round"/>
<path d="M14.2075 655.354C12.5408 660.354 11.3075 670.354 19.7075 670.354C28.1075 670.354 30.2072 660.354 30.207 655.354" stroke="#45190C" stroke-linecap="round"/>
<path d="M31.2075 655.354C29.5408 660.354 28.3075 670.354 36.7075 670.354C45.1075 670.354 47.2072 660.354 47.207 655.354" stroke="#45190C" stroke-linecap="round"/>
<path d="M48.2075 655.354C46.5408 660.354 45.3075 670.354 53.7075 670.354C62.1075 670.354 62.7931 665.354 62.793 660.354" stroke="#45190C" stroke-linecap="round"/>
<path d="M52.0977 650.354C51.7644 652.187 52.0977 655.854 56.0977 655.854C56.8985 655.854 58.8 655.554 60 654.354" stroke="#45190C"/>
<path d="M16 611.354C50.3333 637.354 139.2 673.754 220 611.354" stroke="#1B0701"/>
<path d="M223 611.354C257.333 637.354 346.2 673.754 427 611.354" stroke="#1B0701"/>
<path d="M262.59 706.364C268.118 704.187 271.297 708.033 272.573 711.116C272.825 711.726 272.349 712.354 271.689 712.354H195.648C194.897 712.354 194.442 711.572 194.861 710.95C196.859 707.984 200.97 703.016 203.074 700.562C211.014 691.793 218.03 695.931 221.123 699.714C221.487 700.16 222.143 700.26 222.627 699.949C228.259 696.341 233.088 700.129 235.223 703.037C235.48 703.387 235.921 703.556 236.35 703.486C239.328 703 241.22 704.612 242.252 706.285C242.699 707.009 243.876 707.191 244.42 706.537C251.606 697.903 258.287 702.113 261.285 706.01C261.589 706.405 262.126 706.547 262.59 706.364Z" fill="#4A7D44" stroke="#1B0701"/>
<path d="M166.802 636.354L114.169 636.354C113.447 636.354 112.781 636.743 112.426 637.372L94.6798 668.872C93.9287 670.205 94.8921 671.854 96.4223 671.854L183.661 671.854C185.172 671.854 186.138 670.242 185.424 668.91L168.565 637.41C168.217 636.759 167.54 636.354 166.802 636.354Z" fill="#7E3822" stroke="#1B0701"/>
<path d="M109.207 651.354C109.207 656.354 107.107 666.354 98.7075 666.354C97.8814 666.354 97.1485 666.257 96.5 666.078" stroke="#45190C"/>
<path d="M110.415 651.354C108.748 656.354 107.515 666.354 115.915 666.354C124.315 666.354 126.414 656.354 126.414 651.354" stroke="#45190C"/>
<path d="M127.415 651.354C125.748 656.354 124.515 666.354 132.915 666.354C141.315 666.354 143.414 656.354 143.414 651.354" stroke="#45190C"/>
<path d="M144.415 651.354C142.748 656.354 141.515 666.354 149.915 666.354C158.315 666.354 160.414 656.354 160.414 651.354" stroke="#45190C"/>
<path d="M161.415 651.354C159.748 656.354 158.515 666.354 166.915 666.354C175.315 666.354 177 657.854 177 652.854" stroke="#45190C"/>
<path d="M121.207 636.354C121.207 641.354 119.107 651.354 110.707 651.354C108.37 651.354 106.778 650.579 105.734 649.354" stroke="#45190C"/>
<path d="M122.415 636.354C120.748 641.354 119.515 651.354 127.915 651.354C136.315 651.354 138.414 641.354 138.414 636.354" stroke="#45190C"/>
<path d="M139.415 636.354C137.748 641.354 136.515 651.354 144.915 651.354C153.315 651.354 155.414 641.354 155.414 636.354" stroke="#45190C"/>
<path d="M156.415 636.354C154.748 641.354 153.515 651.354 161.915 651.354C167.351 651.354 170.149 647.165 171.446 642.854" stroke="#45190C"/>
<path d="M114.5 666.354C114 668.354 111.6 672.254 106 671.854" stroke="#45190C"/>
<path d="M99.5001 666.354C99.1667 668.187 99.5001 671.854 103.5 671.854" stroke="#45190C"/>
<path d="M133.098 666.354C132.598 668.354 130.198 672.254 124.598 671.854" stroke="#45190C"/>
<path d="M118.098 666.354C117.764 668.187 118.098 671.854 122.098 671.854" stroke="#45190C"/>
<path d="M150.098 666.354C149.598 668.354 147.198 672.254 141.598 671.854" stroke="#45190C"/>
<path d="M135.098 666.354C134.764 668.187 135.098 671.854 139.098 671.854" stroke="#45190C"/>
<path d="M167.098 666.354C166.598 668.354 164.198 672.254 158.598 671.854" stroke="#45190C"/>
<path d="M184 665.854C183.5 667.854 180.6 672.254 175 671.854" stroke="#45190C"/>
<path d="M152.098 666.354C151.764 668.187 152.098 671.854 156.098 671.854" stroke="#45190C"/>
<path d="M169.098 666.354C168.764 668.187 169.098 671.854 173.098 671.854" stroke="#45190C"/>
<path d="M175 661.854C176.11 664.213 179.046 667.427 183 664.742" stroke="#45190C"/>
<path d="M166.802 636.354L114.169 636.354C113.447 636.354 112.781 636.743 112.426 637.372L94.6798 668.872C93.9287 670.205 94.8921 671.854 96.4223 671.854L183.661 671.854C185.172 671.854 186.138 670.242 185.424 668.91L168.565 637.41C168.217 636.759 167.54 636.354 166.802 636.354Z" stroke="#1B0701"/>
<path d="M31 712L31 724" stroke="#1B0701" stroke-linecap="round"/>
<path d="M96 712L96 724" stroke="#1B0701" stroke-linecap="round"/>
<path d="M165 712.354L165 724.354" stroke="#1B0701" stroke-linecap="round"/>
<path d="M230 712.354L230 724.354" stroke="#1B0701" stroke-linecap="round"/>
<path d="M286 712.354L286 724.354" stroke="#1B0701" stroke-linecap="round"/>
<path d="M349 712.354L349 724.354" stroke="#1B0701" stroke-linecap="round"/>
<rect x="222.789" y="667" width="4.18137" height="5.81439" rx="1" transform="rotate(17.8917 222.789 667)" fill="#F4F3F3"/>
<rect x="222.789" y="667" width="4.18137" height="5.81439" rx="1" transform="rotate(17.8917 222.789 667)" fill="#EBD54F"/>
<rect x="222" y="690" width="5" height="7" rx="0.5" fill="#DAD3D3"/>
<rect x="219" y="681" width="4" height="6" rx="0.5" fill="#F7FCF8"/>
<path d="M4 609V613.5H28.5V609" stroke="#1B0701" stroke-linecap="round"/>
<path d="M56 670.5C51.5 675 41.2 681.3 36 670.5" stroke="#45190C" stroke-linecap="round"/>
<path d="M21 670.5C16.5 675 6.2 681.3 1 670.5" stroke="#45190C" stroke-linecap="round"/>
<path d="M210 609V613.5H234.5V609" stroke="#1B0701" stroke-linecap="round"/>
<path d="M12 611C12 609.895 12.8954 609 14 609H19C20.1046 609 21 609.895 21 611V712H12V611Z" fill="#1B0701"/>
<rect x="14" y="672.657" width="5.45749" height="7.50405" rx="1" transform="rotate(-6.91997 14 672.657)" fill="#F4F3F3"/>
<rect x="14" y="672.657" width="5.45749" height="7.50405" rx="1" transform="rotate(-6.91997 14 672.657)" fill="#F4F3F3"/>
<rect x="12" y="686" width="5" height="11" rx="1" fill="#DAD3D3"/>
<path d="M56 670C56.7971 674.302 59.613 680.814 66.5 673.5" stroke="#45190C" stroke-linecap="round"/>
<path d="M66.0908 676.854H-47.0158C-48.4388 676.854 -49.4066 675.409 -48.8657 674.093L-35.5095 641.593C-35.2012 640.843 -34.4706 640.354 -33.6596 640.354H-30.5H53.6251C54.4533 640.354 55.1958 640.864 55.4924 641.637L67.9582 674.137C68.4605 675.447 67.4936 676.854 66.0908 676.854Z" stroke="#1B0701"/>
<rect x="316" y="599" width="29" height="6" rx="2" fill="#147388" fill-opacity="0.5"/>
<rect x="345" y="608" width="29" height="6" rx="2" fill="#147388" fill-opacity="0.5"/>
<rect x="316" y="620" width="29" height="6" rx="2" fill="#147388" fill-opacity="0.5"/>
<rect x="273" y="578" width="29" height="6" rx="2" fill="#147388" fill-opacity="0.5"/>
<rect x="273" y="589" width="29" height="6" rx="2" fill="#147388" fill-opacity="0.5"/>
<rect x="250" y="621" width="20" height="6" rx="2" fill="#147388" fill-opacity="0.5"/>
<rect x="380" y="657" width="29" height="6" rx="2" fill="#147388" fill-opacity="0.5"/>
<rect x="380" y="668" width="29" height="6" rx="2" fill="#147388" fill-opacity="0.5"/>
<path d="M-0.5 724.5H390" stroke="black" stroke-linecap="round"/>
</g>
<defs>
<clipPath id="clip0_1424_8743">
<rect width="390" height="844" fill="white"/>
</clipPath>
</defs>
</svg>
