<svg width="81" height="61" viewBox="0 0 81 61" fill="none" xmlns="http://www.w3.org/2000/svg">
<path d="M75.9686 1C68.9716 2.49934 66.8059 13.2863 66.5977 18.4923V19.7418L69.0966 20.9913L72.2202 25.3643C84.2149 19.367 79.7169 6.62254 75.9686 1Z" fill="#F39ABB" stroke="#1B0701" stroke-width="1.24945" stroke-linecap="round"/>
<path d="M1 47.8542L1 30.806C1 27.3355 2.41068 23.9592 5.14868 21.8266C29.3278 2.99423 58.0367 10.3566 69.7201 22.3587C71.4996 24.1867 72.2188 26.7315 72.2188 29.2826V47.8542C72.2188 54.7548 66.6248 60.3488 59.7243 60.3488H13.4945C6.59399 60.3488 1 54.7548 1 47.8542Z" fill="#F39ABB" stroke="#1B0701" stroke-width="1.24945" stroke-linecap="round"/>
<path d="M64.0968 25.3644C64.0968 26.1719 63.5258 27.0768 62.1599 28.0097C60.8145 28.9287 58.8266 29.7811 56.3141 30.5069C51.2974 31.9562 44.3303 32.8611 36.6088 32.8611C28.8873 32.8611 21.9202 31.9562 16.9035 30.5069C14.391 29.7811 12.4031 28.9287 11.0577 28.0097C9.69178 27.0768 9.12082 26.1719 9.12082 25.3644C9.12082 24.5568 9.69178 23.6519 11.0577 22.719C12.4031 21.8001 14.391 20.9477 16.9035 20.2218C21.9202 18.7726 28.8873 17.8676 36.6088 17.8676C44.3303 17.8676 51.2974 18.7726 56.3141 20.2218C58.8266 20.9477 60.8145 21.8001 62.1599 22.719C63.5258 23.6519 64.0968 24.5568 64.0968 25.3644Z" fill="#451C0F" stroke="#30150C" stroke-width="1.24945"/>
<path d="M18.4888 22.2406C14.9903 20.2415 12.4498 21.4076 11.6168 22.2406C2.62075 29.2375 22.8619 32.2363 34.107 32.861C57.5967 32.861 63.8856 27.8632 64.0939 25.3643C60.3455 15.9934 58.4713 17.243 51.5993 15.3688C44.7273 13.4946 50.3499 16.6183 42.8531 15.3688C35.3564 14.1194 38.4801 20.9913 34.107 20.3666C29.7339 19.7418 29.1092 22.2406 26.6103 24.1149C24.1114 25.9892 22.8619 24.7395 18.4888 22.2406Z" fill="#8A3920" stroke="black" stroke-width="1.24945" stroke-linecap="round"/>
<path d="M67.8477 20.3665C69.0971 14.744 72.2207 4.3735 74.7196 7.87197C77.2186 11.3704 73.262 19.3253 70.9713 22.8654" stroke="#1B0701" stroke-width="1.24945" stroke-linecap="round"/>
<path d="M22.822 44.0267C30.1327 35.5195 37.519 40.8763 40.3593 44.731L49.0967 39.5913C49.9296 39.1013 50.9796 39.7019 50.9796 40.6682V48.7936C50.9796 49.76 49.9296 50.3605 49.0967 49.8706L40.3593 44.731C33.2764 54.647 26.0078 49.7295 22.768 45.4682C22.4405 45.0375 22.4693 44.4371 22.822 44.0267Z" fill="#EBEDEB"/>
<path d="M40.3593 44.731C37.519 40.8763 30.1327 35.5195 22.822 44.0267C22.4693 44.4371 22.4405 45.0375 22.768 45.4682C26.0078 49.7295 33.2764 54.647 40.3593 44.731ZM40.3593 44.731L49.0967 39.5913C49.9296 39.1013 50.9796 39.7019 50.9796 40.6682V48.7936C50.9796 49.76 49.9296 50.3605 49.0967 49.8706L40.3593 44.731Z" stroke="#1B0701" stroke-width="1.24945" stroke-linecap="round"/>
<path d="M40.9844 23.7392C41.4009 22.4898 43.1084 20.2407 46.6069 21.2403C50.98 22.4898 54.1036 23.1144 55.9778 21.2403" stroke="black" stroke-width="1.24945" stroke-linecap="round"/>
<path d="M27.2403 28.4439C27.7253 27.3796 29.2256 25.5831 31.3471 26.9117C33.999 28.5724 35.9387 29.5194 37.4844 28.0786" stroke="black" stroke-width="1.24945" stroke-linecap="round"/>
<path d="M70.9699 52.8523C44.4815 58.8497 14.1198 55.3512 2.25 52.8523C3.24956 56.8505 8.91375 59.516 11.6209 60.349H59.7249C67.2216 59.8492 70.3452 55.143 70.9699 52.8523Z" fill="#CC7595"/>
<path d="M1 47.8542L1 30.806C1 27.3355 2.41068 23.9592 5.14868 21.8266C29.3278 2.99423 58.0367 10.3566 69.7201 22.3587C71.4996 24.1867 72.2188 26.7315 72.2188 29.2826V47.8542C72.2188 54.7548 66.6248 60.3488 59.7243 60.3488H13.4945C6.59399 60.3488 1 54.7548 1 47.8542Z" stroke="#1B0701" stroke-width="1.24945" stroke-linecap="round"/>
<circle cx="28.4877" cy="43.4814" r="1.24945" fill="#1B0701"/>
</svg>
