<svg width="390" height="844" viewBox="0 0 390 844" fill="none" xmlns="http://www.w3.org/2000/svg">
<g clip-path="url(#clip0_1417_10174)">
<rect width="390" height="844" fill="#B6F2FF"/>
<rect x="376.5" y="646.5" width="44" height="74" rx="1.5" fill="#90D8E8" stroke="#147388"/>
<path d="M166.295 547.384C166.321 546.575 166.985 545.933 167.794 545.933H188.537C189.349 545.933 190.013 546.579 190.036 547.391L193.208 661.879C193.232 662.723 192.554 663.421 191.709 663.421H164.093C163.246 663.421 162.566 662.719 162.594 661.872L166.295 547.384Z" fill="#F7FCF8" stroke="#706969"/>
<path d="M188.418 522.15C188.811 522.516 189.027 522.962 188.988 523.389C188.471 529.107 183.44 534.354 177.365 534.354C170.932 534.354 165.699 529.024 165.699 522.428C165.699 519.093 167.034 513.812 169.212 509.361C170.299 507.139 171.581 505.155 172.985 503.735C174.394 502.31 175.874 501.5 177.365 501.5C178.738 501.5 179.728 502.27 180.558 503.676C181.399 505.1 182.015 507.084 182.644 509.324C182.745 509.682 182.846 510.046 182.947 510.414C183.476 512.325 184.036 514.35 184.765 516.238C185.635 518.492 186.763 520.606 188.418 522.15Z" fill="#F59737" stroke="#706969" stroke-linejoin="bevel"/>
<path d="M177.774 502.058C173.565 511.403 169.236 530.41 183.186 531.68" stroke="#706969"/>
<path d="M148.003 708.354L205.667 708.354C206.393 708.354 207.061 707.961 207.414 707.328L227.017 672.185C227.76 670.851 226.797 669.21 225.27 669.21L129.38 669.21C127.873 669.21 126.907 670.815 127.613 672.147L146.235 707.29C146.582 707.944 147.262 708.354 148.003 708.354Z" fill="#F7FCF8" stroke="#706969"/>
<rect x="125.5" y="660.189" width="103.735" height="9.57926" rx="1.5" fill="#EBE5CB" stroke="#706969"/>
<rect x="161.473" y="539.585" width="32.8536" height="6.40548" rx="1.5" fill="#EBE5CB" stroke="#706969"/>
<rect x="269.5" y="570.854" width="49" height="141" rx="1.5" fill="#90D8E8" stroke="#147388"/>
<rect x="309.5" y="589.854" width="67" height="122" rx="1.5" fill="#90D8E8" stroke="#147388"/>
<rect x="-23.5" y="604.854" width="67" height="107" rx="1.5" fill="#90D8E8" stroke="#147388"/>
<rect x="43.5" y="636.854" width="56" height="89" rx="1.5" fill="#90D8E8" stroke="#147388"/>
<rect x="99.5" y="657.5" width="36" height="59" rx="1.5" fill="#90D8E8" stroke="#147388"/>
<rect x="200.5" y="636.854" width="44" height="84" rx="1.5" fill="#90D8E8" stroke="#147388"/>
<rect x="244.5" y="617.854" width="31" height="94" rx="1.5" fill="#90D8E8" stroke="#147388"/>
<path d="M345.829 705.768C341.856 704.609 339.306 707.031 337.958 709.529C337.335 710.683 338.283 711.933 339.594 711.933H407.764C409.251 711.933 410.125 710.419 409.27 709.202C407.249 706.323 404.187 702.481 402.5 700.433C395.665 692.573 389.56 695.346 386.368 698.711C385.555 699.568 384.208 699.763 383.153 699.232C378.705 696.991 374.901 699.698 372.868 702.209C372.309 702.901 371.407 703.23 370.518 703.202C369.221 703.161 368.175 703.584 367.352 704.22C365.985 705.278 363.406 705.689 362.172 704.479C356.502 698.922 351.351 701.76 348.574 704.993C347.907 705.769 346.811 706.055 345.829 705.768Z" fill="#4A7D44" stroke="#1B0701"/>
<rect x="204" y="646" width="29" height="6" rx="2" fill="#147388" fill-opacity="0.5"/>
<rect x="204" y="657" width="29" height="6" rx="2" fill="#147388" fill-opacity="0.5"/>
<rect x="67" y="648" width="29" height="6" rx="2" fill="#147388" fill-opacity="0.5"/>
<rect x="79" y="657" width="17" height="6" rx="2" fill="#147388" fill-opacity="0.5"/>
<rect x="23" y="630" width="17" height="6" rx="2" fill="#147388" fill-opacity="0.5"/>
<path d="M0 724H390V844H0V724Z" fill="#F5F5F5"/>
<rect y="712.354" width="390" height="12" fill="#EBD54F"/>
<path d="M252.5 676.854H339.5V711.854H252.5V676.854Z" fill="#EBE5CB" stroke="#1B0701"/>
<rect x="111.5" y="671.854" width="58" height="40" fill="#EBE5CB" stroke="#1B0701"/>
<path d="M352.091 676.854H238.984C237.561 676.854 236.593 675.409 237.134 674.093L250.491 641.593C250.799 640.843 251.529 640.354 252.34 640.354H255.5H339.625C340.453 640.354 341.196 640.864 341.492 641.637L353.958 674.137C354.461 675.447 353.494 676.854 352.091 676.854Z" fill="#7E3822" stroke="#1B0701"/>
<rect x="263.5" y="683.854" width="30" height="7" rx="1.5" fill="#F7FCF8" stroke="#1B0701"/>
<rect x="121.5" y="679.854" width="16" height="11" rx="1.5" fill="white" stroke="#1B0701"/>
<path d="M311.5 693.354C311.5 692.525 312.172 691.854 313 691.854H327C327.828 691.854 328.5 692.525 328.5 693.354V711.854H311.5V693.354Z" fill="#7E3822" stroke="#1B0701"/>
<rect x="-33.5" y="676.854" width="87" height="35" fill="#EBE5CB" stroke="#1B0701"/>
<path d="M66.0908 676.854H-47.0158C-48.4388 676.854 -49.4066 675.409 -48.8657 674.093L-35.5095 641.593C-35.2012 640.843 -34.4706 640.354 -33.6596 640.354H-30.5H53.6251C54.4533 640.354 55.1958 640.864 55.4924 641.637L67.9582 674.137C68.4605 675.447 67.4936 676.854 66.0908 676.854Z" fill="#7E3822" stroke="#1B0701"/>
<rect x="-22.5" y="683.854" width="30" height="7" rx="1.5" fill="#F7FCF8" stroke="#1B0701"/>
<path d="M33.5 670C32.5 673 27.9 678.3 17.5 675.5" stroke="#45190C" stroke-linecap="round"/>
<path d="M25.5 693.354C25.5 692.525 26.1716 691.854 27 691.854H41C41.8284 691.854 42.5 692.525 42.5 693.354V711.854H25.5V693.354Z" fill="#F7FCF8" stroke="#1B0701"/>
<path d="M111 696.354L171 696.354" stroke="#1B0701"/>
<path d="M129 696.854V711.354" stroke="#1B0701"/>
<path d="M136 696.854V711.354" stroke="#1B0701"/>
<path d="M122 696.854V711.354" stroke="#1B0701"/>
<path d="M115 696.854V711.354" stroke="#1B0701"/>
<path d="M157 696.854V711.354" stroke="#1B0701"/>
<path d="M164 696.854V711.354" stroke="#1B0701"/>
<path d="M150 696.854V711.354" stroke="#1B0701"/>
<path d="M143 696.854V711.354" stroke="#1B0701"/>
<rect x="142.5" y="692.854" width="8" height="19" rx="1.5" fill="#1B0701"/>
<rect x="142.5" y="692.854" width="8" height="19" rx="1.5" fill="black" fill-opacity="0.2"/>
<rect x="142.5" y="692.854" width="8" height="19" rx="1.5" stroke="#1B0701"/>
<path d="M226 696.354L286 696.354" stroke="#1B0701"/>
<path d="M244 696.854V711.354" stroke="#1B0701"/>
<path d="M251 696.854V711.354" stroke="#1B0701"/>
<path d="M237 696.854V711.354" stroke="#1B0701"/>
<path d="M229 696.854V711.354" stroke="#1B0701"/>
<path d="M272 696.854V711.354" stroke="#1B0701"/>
<path d="M279 696.854V711.354" stroke="#1B0701"/>
<rect x="257.5" y="692.854" width="8" height="19" rx="1.5" fill="#1B0701"/>
<rect x="257.5" y="692.854" width="8" height="19" rx="1.5" fill="black" fill-opacity="0.2"/>
<rect x="257.5" y="692.854" width="8" height="19" rx="1.5" stroke="#1B0701"/>
<rect x="218" y="609" width="9" height="103" rx="2" fill="#1B0701"/>
<path d="M61.1112 705.997C55.742 703.849 52.6537 707.691 51.4141 710.767C51.1686 711.377 51.6449 712 52.3021 712H126.371C127.117 712 127.574 711.227 127.165 710.603C125.22 707.638 121.208 702.665 119.155 700.209C111.436 691.461 104.611 695.557 101.586 699.333C101.22 699.79 100.551 699.891 100.061 699.571C94.597 696.011 89.9142 699.768 87.832 702.668C87.5746 703.026 87.1266 703.198 86.6911 703.127C83.8369 702.663 82.0103 704.231 81.0011 705.879C80.5524 706.612 79.3546 706.794 78.8112 706.128C71.8379 697.583 65.3584 701.753 62.4346 705.635C62.1297 706.039 61.5816 706.185 61.1112 705.997Z" fill="#4A7D44" stroke="#1B0701"/>
<path d="M-9.47797 177.322C-17.4126 174.336 -22.1063 179.833 -24.1455 184.552C-24.6661 185.756 -23.7151 187 -22.4029 187H92.758C94.2462 187 95.1492 185.466 94.3236 184.228C91.1536 179.474 85.2039 172.024 82.1014 168.272C70.2207 154.665 59.6889 160.626 54.7934 166.511C54.0401 167.416 52.6959 167.625 51.6946 167.004C43.4403 161.89 36.3721 167.427 33.066 171.919C32.5397 172.634 31.6405 172.975 30.7602 172.859C26.9135 172.352 24.2912 174.246 22.6736 176.481C21.6616 177.879 19.2048 178.242 18.0852 176.928C7.54563 164.565 -2.18758 170.626 -6.79737 176.582C-7.42184 177.389 -8.52307 177.681 -9.47797 177.322Z" fill="#F7FCF8" stroke="#147388"/>
<path d="M185.034 700.939C180.404 690.941 173.314 692.828 169.722 695.409C169.248 695.75 169 696.311 169 696.895V710.354C169 711.458 169.895 712.354 171 712.354H196.605C197.852 712.354 198.811 711.215 198.407 710.035C196.443 704.298 191.858 703.492 188.69 704.012C187.749 704.166 186.752 703.823 186.264 703.004L185.034 700.939Z" fill="#4A7D44" stroke="#1B0701"/>
<path d="M251 640.354C249.334 645.354 248.1 655.354 256.5 655.354C264.9 655.354 267 645.354 267 640.354" stroke="#45190C"/>
<path d="M268.207 640.354C266.541 645.354 265.307 655.354 273.707 655.354C282.107 655.354 284.207 645.354 284.207 640.354" stroke="#45190C"/>
<path d="M285.207 640.354C283.541 645.354 282.307 655.354 290.707 655.354C299.107 655.354 301.207 645.354 301.207 640.354" stroke="#45190C"/>
<path d="M302.207 640.354C300.541 645.354 299.307 655.354 307.707 655.354C316.107 655.354 318.207 645.354 318.207 640.354" stroke="#45190C"/>
<path d="M319.207 640.354C317.541 645.354 316.307 655.354 324.707 655.354C333.107 655.354 335.207 645.354 335.207 640.354" stroke="#45190C"/>
<path d="M336.207 640.354C334.541 645.354 333.307 655.354 341.707 655.354C342.972 655.354 345.6 655.154 346 654.354" stroke="#45190C"/>
<path d="M341.207 655.354C339.541 660.354 338.307 670.354 346.707 670.354C347.972 670.354 352 669.354 351.5 668.354" stroke="#45190C"/>
<path d="M255.208 655.354C255.208 660.354 253.108 670.354 244.708 670.354C242.973 670.354 239.601 669.754 240.001 667.354" stroke="#45190C"/>
<path d="M256.415 655.354C254.748 660.354 253.515 670.354 261.915 670.354C270.315 670.354 272.414 660.354 272.414 655.354" stroke="#45190C"/>
<path d="M273.415 655.354C271.748 660.354 270.515 670.354 278.915 670.354C287.315 670.354 289.414 660.354 289.414 655.354" stroke="#45190C"/>
<path d="M290.415 655.354C288.748 660.354 287.515 670.354 295.915 670.354C304.315 670.354 306.414 660.354 306.414 655.354" stroke="#45190C"/>
<path d="M307.415 655.354C305.748 660.354 304.515 670.354 312.915 670.354C321.315 670.354 323.414 660.354 323.414 655.354" stroke="#45190C"/>
<path d="M324.207 655.354C322.541 660.354 321.307 670.354 329.707 670.354C338.107 670.354 340.207 660.354 340.207 655.354" stroke="#45190C"/>
<path d="M243.003 670.354C243.003 672.354 242.038 676.354 238.18 676.354C237.383 676.354 236.82 675.814 237.004 674.854" stroke="#45190C"/>
<path d="M244.193 670.354C242.546 672.354 241.328 676.354 249.627 676.354C257.926 676.354 260 672.354 260 670.354" stroke="#45190C"/>
<path d="M261.193 670.354C259.546 672.354 258.328 676.354 266.627 676.354C274.926 676.354 277 672.354 277 670.354" stroke="#45190C"/>
<path d="M278.193 670.354C276.546 672.354 275.328 676.354 283.627 676.354C291.926 676.354 294 672.354 294 670.354" stroke="#45190C"/>
<path d="M295.193 670.354C293.546 672.354 292.328 676.354 300.627 676.354C308.926 676.354 311 672.354 311 670.354" stroke="#45190C"/>
<path d="M312.193 670.354C310.546 672.354 309.328 676.354 317.627 676.354C325.926 676.354 328 672.354 328 670.354" stroke="#45190C"/>
<path d="M329.193 670.354C327.546 672.354 326.328 676.354 334.627 676.354C342.926 676.354 345 672.354 345 670.354" stroke="#45190C"/>
<path d="M3.47251 640.354C3.47266 645.354 1.37295 655.354 -7.02705 655.354C-9.36463 655.354 -10.9562 654.579 -12 653.354" stroke="#45190C"/>
<path d="M4.68013 640.354C3.01346 645.354 1.78013 655.354 10.1801 655.354C18.5801 655.354 20.6798 645.354 20.6797 640.354" stroke="#45190C"/>
<path d="M21.6801 640.354C20.0135 645.354 18.7801 655.354 27.1801 655.354C35.5801 655.354 37.6798 645.354 37.6797 640.354" stroke="#45190C"/>
<path d="M38.6801 640.354C37.0135 645.354 35.7801 655.354 44.1801 655.354C49.6167 655.354 52.4142 651.165 53.7114 646.854L55 640.354" stroke="#45190C"/>
<path d="M-2.79253 655.354C-4.45919 660.354 -5.69253 670.354 2.70747 670.354C11.1075 670.354 13.2072 660.354 13.207 655.354" stroke="#45190C" stroke-linecap="round"/>
<path d="M14.2075 655.354C12.5408 660.354 11.3075 670.354 19.7075 670.354C28.1075 670.354 30.2072 660.354 30.207 655.354" stroke="#45190C" stroke-linecap="round"/>
<path d="M31.2075 655.354C29.5408 660.354 28.3075 670.354 36.7075 670.354C45.1075 670.354 47.2072 660.354 47.207 655.354" stroke="#45190C" stroke-linecap="round"/>
<path d="M48.2075 655.354C46.5408 660.354 45.3075 670.354 53.7075 670.354C62.1075 670.354 62.7931 665.354 62.793 660.354" stroke="#45190C" stroke-linecap="round"/>
<path d="M52.0977 650.354C51.7644 652.187 52.0977 655.854 56.0977 655.854C56.8985 655.854 58.8 655.554 60 654.354" stroke="#45190C"/>
<path d="M16 611.354C50.3333 637.354 139.2 673.754 220 611.354" stroke="#1B0701"/>
<path d="M223 611.354C257.333 637.354 346.2 673.754 427 611.354" stroke="#1B0701"/>
<path d="M262.59 706.364C268.118 704.187 271.297 708.033 272.573 711.116C272.825 711.726 272.349 712.354 271.689 712.354H195.648C194.897 712.354 194.442 711.572 194.861 710.95C196.859 707.984 200.97 703.016 203.074 700.562C211.014 691.793 218.03 695.931 221.123 699.714C221.487 700.16 222.143 700.26 222.627 699.949C228.259 696.341 233.088 700.129 235.223 703.037C235.48 703.387 235.921 703.556 236.35 703.486C239.328 703 241.22 704.612 242.252 706.285C242.699 707.009 243.876 707.191 244.42 706.537C251.606 697.903 258.287 702.113 261.285 706.01C261.589 706.405 262.126 706.547 262.59 706.364Z" fill="#4A7D44" stroke="#1B0701"/>
<path d="M166.802 636.354L114.169 636.354C113.447 636.354 112.781 636.743 112.426 637.372L94.6798 668.872C93.9287 670.205 94.8921 671.854 96.4223 671.854L183.661 671.854C185.172 671.854 186.138 670.242 185.424 668.91L168.565 637.41C168.217 636.759 167.54 636.354 166.802 636.354Z" fill="#7E3822" stroke="#1B0701"/>
<path d="M109.207 651.354C109.207 656.354 107.107 666.354 98.7075 666.354C97.8814 666.354 97.1485 666.257 96.5 666.078" stroke="#45190C"/>
<path d="M110.415 651.354C108.748 656.354 107.515 666.354 115.915 666.354C124.315 666.354 126.414 656.354 126.414 651.354" stroke="#45190C"/>
<path d="M127.415 651.354C125.748 656.354 124.515 666.354 132.915 666.354C141.315 666.354 143.414 656.354 143.414 651.354" stroke="#45190C"/>
<path d="M144.415 651.354C142.748 656.354 141.515 666.354 149.915 666.354C158.315 666.354 160.414 656.354 160.414 651.354" stroke="#45190C"/>
<path d="M161.415 651.354C159.748 656.354 158.515 666.354 166.915 666.354C175.315 666.354 177 657.854 177 652.854" stroke="#45190C"/>
<path d="M121.207 636.354C121.207 641.354 119.107 651.354 110.707 651.354C108.37 651.354 106.778 650.579 105.734 649.354" stroke="#45190C"/>
<path d="M122.415 636.354C120.748 641.354 119.515 651.354 127.915 651.354C136.315 651.354 138.414 641.354 138.414 636.354" stroke="#45190C"/>
<path d="M139.415 636.354C137.748 641.354 136.515 651.354 144.915 651.354C153.315 651.354 155.414 641.354 155.414 636.354" stroke="#45190C"/>
<path d="M156.415 636.354C154.748 641.354 153.515 651.354 161.915 651.354C167.351 651.354 170.149 647.165 171.446 642.854" stroke="#45190C"/>
<path d="M114.5 666.354C114 668.354 111.6 672.254 106 671.854" stroke="#45190C"/>
<path d="M99.5001 666.354C99.1667 668.187 99.5001 671.854 103.5 671.854" stroke="#45190C"/>
<path d="M133.098 666.354C132.598 668.354 130.198 672.254 124.598 671.854" stroke="#45190C"/>
<path d="M118.098 666.354C117.764 668.187 118.098 671.854 122.098 671.854" stroke="#45190C"/>
<path d="M150.098 666.354C149.598 668.354 147.198 672.254 141.598 671.854" stroke="#45190C"/>
<path d="M135.098 666.354C134.764 668.187 135.098 671.854 139.098 671.854" stroke="#45190C"/>
<path d="M167.098 666.354C166.598 668.354 164.198 672.254 158.598 671.854" stroke="#45190C"/>
<path d="M184 665.854C183.5 667.854 180.6 672.254 175 671.854" stroke="#45190C"/>
<path d="M152.098 666.354C151.764 668.187 152.098 671.854 156.098 671.854" stroke="#45190C"/>
<path d="M169.098 666.354C168.764 668.187 169.098 671.854 173.098 671.854" stroke="#45190C"/>
<path d="M175 661.854C176.11 664.213 179.046 667.427 183 664.742" stroke="#45190C"/>
<path d="M166.802 636.354L114.169 636.354C113.447 636.354 112.781 636.743 112.426 637.372L94.6798 668.872C93.9287 670.205 94.8921 671.854 96.4223 671.854L183.661 671.854C185.172 671.854 186.138 670.242 185.424 668.91L168.565 637.41C168.217 636.759 167.54 636.354 166.802 636.354Z" stroke="#1B0701"/>
<path d="M31 712L31 724" stroke="#1B0701" stroke-linecap="round"/>
<path d="M96 712L96 724" stroke="#1B0701" stroke-linecap="round"/>
<path d="M165 712.354L165 724.354" stroke="#1B0701" stroke-linecap="round"/>
<path d="M230 712.354L230 724.354" stroke="#1B0701" stroke-linecap="round"/>
<path d="M286 712.354L286 724.354" stroke="#1B0701" stroke-linecap="round"/>
<path d="M349 712.354L349 724.354" stroke="#1B0701" stroke-linecap="round"/>
<path d="M-35.478 453.322C-43.4126 450.336 -48.1063 455.833 -50.1455 460.552C-50.6661 461.756 -49.7151 463 -48.4029 463H66.758C68.2462 463 69.1492 461.466 68.3236 460.228C65.1536 455.474 59.2039 448.024 56.1014 444.272C44.2207 430.665 33.6889 436.626 28.7934 442.511C28.0401 443.416 26.6959 443.625 25.6946 443.004C17.4403 437.89 10.3721 443.427 7.06601 447.919C6.53968 448.634 5.64047 448.975 4.76021 448.859C0.913452 448.352 -1.70885 450.246 -3.32638 452.481C-4.33844 453.879 -6.79515 454.242 -7.91478 452.928C-18.4544 440.565 -28.1876 446.626 -32.7974 452.582C-33.4218 453.389 -34.5231 453.681 -35.478 453.322Z" fill="#F7FCF8" stroke="#147388"/>
<path d="M324.522 263.322C316.587 260.336 311.894 265.833 309.855 270.552C309.334 271.756 310.285 273 311.597 273H426.758C428.246 273 429.149 271.466 428.324 270.228C425.154 265.474 419.204 258.024 416.101 254.272C404.221 240.665 393.689 246.626 388.793 252.511C388.04 253.416 386.696 253.625 385.695 253.004C377.44 247.89 370.372 253.427 367.066 257.919C366.54 258.634 365.64 258.975 364.76 258.859C360.913 258.352 358.291 260.246 356.674 262.481C355.662 263.879 353.205 264.242 352.085 262.928C341.546 250.565 331.812 256.626 327.203 262.582C326.578 263.389 325.477 263.681 324.522 263.322Z" fill="#F7FCF8" stroke="#147388"/>
<path d="M326.522 52.3221C318.587 49.3365 313.894 54.8333 311.855 59.5518C311.334 60.7563 312.285 62 313.597 62H428.758C430.246 62 431.149 60.4658 430.324 59.2276C427.154 54.4736 421.204 47.0244 418.101 43.2724C406.221 29.6652 395.689 35.6256 390.793 41.5109C390.04 42.4165 388.696 42.6248 387.695 42.0044C379.44 36.8897 372.372 42.4274 369.066 46.9192C368.54 47.6342 367.64 47.9754 366.76 47.8593C362.913 47.3517 360.291 49.2465 358.674 51.4807C357.662 52.8786 355.205 53.2417 354.085 51.9283C343.546 39.5653 333.812 45.6261 329.203 51.582C328.578 52.3889 327.477 52.6814 326.522 52.3221Z" fill="#F7FCF8" stroke="#147388"/>
<rect x="222.789" y="667" width="4.18137" height="5.81439" rx="1" transform="rotate(17.8917 222.789 667)" fill="#F4F3F3"/>
<rect x="222.789" y="667" width="4.18137" height="5.81439" rx="1" transform="rotate(17.8917 222.789 667)" fill="#EBD54F"/>
<rect x="222" y="690" width="5" height="7" rx="0.5" fill="#DAD3D3"/>
<rect x="219" y="681" width="4" height="6" rx="0.5" fill="#F7FCF8"/>
<path d="M4 609V613.5H28.5V609" stroke="#1B0701" stroke-linecap="round"/>
<path d="M-44 696.354L16 696.354" stroke="#1B0701"/>
<path d="M2 696.854V711.354" stroke="#1B0701"/>
<path d="M9 696.854V711.354" stroke="#1B0701"/>
<path d="M56 670.5C51.5 675 41.2 681.3 36 670.5" stroke="#45190C" stroke-linecap="round"/>
<path d="M21 670.5C16.5 675 6.2 681.3 1 670.5" stroke="#45190C" stroke-linecap="round"/>
<path d="M210 609V613.5H234.5V609" stroke="#1B0701" stroke-linecap="round"/>
<path d="M12 611C12 609.895 12.8954 609 14 609H19C20.1046 609 21 609.895 21 611V712H12V611Z" fill="#1B0701"/>
<rect x="14" y="672.657" width="5.45749" height="7.50405" rx="1" transform="rotate(-6.91997 14 672.657)" fill="#F4F3F3"/>
<rect x="14" y="672.657" width="5.45749" height="7.50405" rx="1" transform="rotate(-6.91997 14 672.657)" fill="#F4F3F3"/>
<rect x="12" y="686" width="5" height="11" rx="1" fill="#DAD3D3"/>
<path d="M56 670C56.7971 674.302 59.613 680.814 66.5 673.5" stroke="#45190C" stroke-linecap="round"/>
<path d="M66.0908 676.854H-47.0158C-48.4388 676.854 -49.4066 675.409 -48.8657 674.093L-35.5095 641.593C-35.2012 640.843 -34.4706 640.354 -33.6596 640.354H-30.5H53.6251C54.4533 640.354 55.1958 640.864 55.4924 641.637L67.9582 674.137C68.4605 675.447 67.4936 676.854 66.0908 676.854Z" stroke="#1B0701"/>
<rect x="316" y="599" width="29" height="6" rx="2" fill="#147388" fill-opacity="0.5"/>
<rect x="345" y="608" width="29" height="6" rx="2" fill="#147388" fill-opacity="0.5"/>
<rect x="316" y="620" width="29" height="6" rx="2" fill="#147388" fill-opacity="0.5"/>
<rect x="273" y="578" width="29" height="6" rx="2" fill="#147388" fill-opacity="0.5"/>
<rect x="273" y="589" width="29" height="6" rx="2" fill="#147388" fill-opacity="0.5"/>
<rect x="250" y="621" width="20" height="6" rx="2" fill="#147388" fill-opacity="0.5"/>
<rect x="380" y="657" width="29" height="6" rx="2" fill="#147388" fill-opacity="0.5"/>
<rect x="380" y="668" width="29" height="6" rx="2" fill="#147388" fill-opacity="0.5"/>
<path d="M10.566 779.659C12.0774 780.081 13.4291 779.842 13.616 779.119C13.8041 778.391 12.7477 777.486 11.2362 777.064C9.71046 776.639 8.36721 776.874 8.1791 777.602C7.99099 778.33 9.04025 779.233 10.566 779.659ZM11.4131 776.38C12.9246 776.801 14.275 776.568 14.4631 775.84C14.6499 775.116 13.5948 774.207 12.0833 773.785C10.5576 773.359 9.21308 773.6 9.02621 774.323C8.8381 775.051 9.88736 775.954 11.4131 776.38ZM14.2812 783.322C15.807 783.747 17.1502 783.512 17.3359 782.794C17.5252 782.061 16.4688 781.156 14.9502 780.732C13.4388 780.31 12.0883 780.544 11.899 781.277C11.7134 781.995 12.7698 782.9 14.2812 783.322ZM16.3953 775.138C17.9139 775.562 19.2643 775.328 19.4524 774.6C19.6393 773.877 18.59 772.974 17.0642 772.548C15.5528 772.127 14.2024 772.36 14.0155 773.083C13.8274 773.812 14.8838 774.716 16.3953 775.138ZM20.4276 783.341C22.0178 783.784 23.3352 783.382 23.6055 782.335C23.7363 781.829 23.6245 781.4 23.5386 781.019C23.4663 780.704 23.4081 780.424 23.4878 780.115C23.5663 779.812 23.7528 779.595 23.9659 779.365C24.2237 779.08 24.5274 778.767 24.6582 778.26C24.9285 777.214 23.9824 776.179 22.3921 775.736C21.0813 775.37 20.2625 775.715 19.5505 776.034C19.1584 776.214 18.7928 776.381 18.3611 776.447C18.017 776.5 17.6504 776.522 17.248 776.534C16.03 776.582 14.839 776.555 14.5624 777.625C14.2846 778.701 15.3286 779.297 16.361 779.968C16.7024 780.192 17.002 780.4 17.2751 780.621C17.6243 780.904 17.8591 781.244 18.1117 781.604C18.5745 782.25 19.1167 782.975 20.4276 783.341Z" fill="#160601" fill-opacity="0.3"/>
<path d="M31.5269 775.156C33.0384 775.577 34.39 775.339 34.5769 774.616C34.765 773.888 33.7086 772.983 32.1972 772.561C30.6714 772.136 29.3281 772.371 29.14 773.099C28.9519 773.827 30.0012 774.73 31.5269 775.156ZM32.3741 771.876C33.8855 772.298 35.2359 772.065 35.424 771.337C35.6109 770.613 34.5557 769.704 33.0443 769.282C31.5185 768.856 30.174 769.096 29.9871 769.82C29.799 770.548 30.8483 771.451 32.3741 771.876ZM35.2422 778.819C36.7679 779.244 38.1112 779.009 38.2968 778.29C38.4862 777.557 37.4297 776.653 35.9111 776.229C34.3997 775.807 33.0493 776.041 32.8599 776.774C32.6743 777.492 33.7307 778.397 35.2422 778.819ZM37.3562 770.635C38.8748 771.059 40.2252 770.825 40.4133 770.097C40.6002 769.374 39.5509 768.471 38.0252 768.045C36.5137 767.624 35.1633 767.857 34.9765 768.58C34.7884 769.308 35.8448 770.213 37.3562 770.635ZM41.3885 778.838C42.9787 779.281 44.2961 778.879 44.5665 777.832C44.6973 777.326 44.5855 776.896 44.4995 776.516C44.4272 776.201 44.369 775.921 44.4487 775.612C44.5272 775.308 44.7138 775.092 44.9268 774.862C45.1847 774.577 45.4883 774.263 45.6191 773.757C45.8895 772.711 44.9433 771.676 43.3531 771.233C42.0422 770.867 41.2234 771.212 40.5114 771.531C40.1193 771.711 39.7537 771.878 39.322 771.943C38.9779 771.997 38.6113 772.019 38.209 772.031C36.9909 772.079 35.7999 772.052 35.5234 773.122C35.2456 774.198 36.2895 774.794 37.322 775.465C37.6633 775.689 37.9629 775.897 38.2361 776.118C38.5852 776.401 38.82 776.741 39.0726 777.101C39.5354 777.747 40.0776 778.472 41.3885 778.838Z" fill="#160601" fill-opacity="0.4"/>
<path d="M-3.43399 744.156C-1.92256 744.577 -0.570893 744.339 -0.384029 743.616C-0.19592 742.888 -1.25234 741.983 -2.76378 741.561C-4.28954 741.136 -5.63279 741.371 -5.8209 742.099C-6.00901 742.827 -4.95975 743.73 -3.43399 744.156ZM-2.58688 740.876C-1.07544 741.298 0.274975 741.065 0.463084 740.337C0.649948 739.613 -0.405226 738.704 -1.91666 738.282C-3.44242 737.856 -4.78692 738.096 -4.97379 738.82C-5.1619 739.548 -4.11264 740.451 -2.58688 740.876ZM0.28123 747.819C1.80699 748.244 3.15025 748.009 3.33586 747.29C3.52522 746.557 2.4688 745.653 0.9502 745.229C-0.561236 744.807 -1.91165 745.041 -2.10101 745.774C-2.28663 746.492 -1.23021 747.397 0.28123 747.819ZM2.39528 739.635C3.91388 740.059 5.26429 739.825 5.4524 739.097C5.63927 738.374 4.59001 737.471 3.06425 737.045C1.55281 736.624 0.202393 736.857 0.0155298 737.58C-0.172579 738.308 0.88384 739.213 2.39528 739.635ZM6.42756 747.838C8.0178 748.281 9.3352 747.879 9.60553 746.832C9.73633 746.326 9.62452 745.896 9.53856 745.516C9.46631 745.201 9.40807 744.921 9.48779 744.612C9.56628 744.308 9.75283 744.092 9.96586 743.862C10.2237 743.577 10.5274 743.263 10.6582 742.757C10.9285 741.711 9.98235 740.676 8.39212 740.233C7.08125 739.867 6.26247 740.212 5.55051 740.531C5.15841 740.711 4.79277 740.878 4.36111 740.943C4.01697 740.997 3.6504 741.019 3.24801 741.031C2.02996 741.079 0.838999 741.052 0.562442 742.122C0.284638 743.198 1.3286 743.794 2.36104 744.465C2.70238 744.689 3.00199 744.897 3.27512 745.118C3.62425 745.401 3.85908 745.741 4.11167 746.101C4.57447 746.747 5.1167 747.472 6.42756 747.838Z" fill="#160601" fill-opacity="0.4"/>
<path d="M96.3123 835.126C98.0497 835.097 99.4101 834.382 99.3812 833.509C99.3521 832.631 97.946 831.967 96.2086 831.996C94.4547 832.025 93.1024 832.734 93.1315 833.613C93.1606 834.491 94.5584 835.155 96.3123 835.126ZM96.1812 831.17C97.9186 831.141 99.2792 830.431 99.2501 829.553C99.2212 828.68 97.815 828.011 96.0776 828.039C94.3237 828.068 92.9716 828.783 93.0005 829.656C93.0295 830.535 94.4274 831.199 96.1812 831.17ZM101.408 837.999C103.162 837.97 104.514 837.261 104.486 836.394C104.456 835.509 103.05 834.846 101.305 834.875C99.5674 834.903 98.2068 835.613 98.2361 836.497C98.2648 837.364 99.6708 838.028 101.408 837.999ZM101.081 828.125C102.827 828.097 104.187 827.387 104.158 826.508C104.13 825.636 102.732 824.972 100.978 825.001C99.2404 825.03 97.8798 825.739 97.9087 826.612C97.9378 827.49 99.3439 828.154 101.081 828.125ZM107.941 835.982C109.769 835.951 111.041 835.063 110.999 833.8C110.979 833.189 110.725 832.745 110.514 832.347C110.339 832.018 110.189 831.724 110.176 831.351C110.164 830.985 110.294 830.68 110.448 830.352C110.632 829.947 110.856 829.495 110.836 828.884C110.794 827.621 109.465 826.776 107.637 826.806C106.13 826.831 105.369 827.49 104.713 828.083C104.353 828.415 104.018 828.723 103.58 828.94C103.231 829.114 102.849 829.26 102.425 829.407C101.147 829.865 99.874 830.229 99.9167 831.521C99.9597 832.819 101.256 833.141 102.563 833.55C102.996 833.688 103.379 833.822 103.738 833.979C104.198 834.181 104.554 834.483 104.936 834.803C105.63 835.374 106.434 836.007 107.941 835.982Z" fill="#160601" fill-opacity="0.4"/>
<path d="M117.312 822.347C119.05 822.321 120.41 821.66 120.381 820.855C120.352 820.044 118.946 819.431 117.209 819.458C115.455 819.484 114.102 820.139 114.131 820.95C114.161 821.761 115.558 822.374 117.312 822.347ZM117.181 818.695C118.919 818.668 120.279 818.014 120.25 817.203C120.221 816.397 118.815 815.779 117.078 815.805C115.324 815.832 113.972 816.492 114 817.298C114.03 818.109 115.427 818.722 117.181 818.695ZM122.408 824.999C124.162 824.972 125.514 824.318 125.486 823.517C125.456 822.701 124.05 822.088 122.305 822.115C120.567 822.142 119.207 822.796 119.236 823.613C119.265 824.413 120.671 825.026 122.408 824.999ZM122.081 815.885C123.827 815.858 125.187 815.203 125.158 814.392C125.13 813.587 123.732 812.974 121.978 813.001C120.24 813.027 118.88 813.682 118.909 814.488C118.938 815.299 120.344 815.911 122.081 815.885ZM128.941 823.137C130.769 823.109 132.041 822.289 131.999 821.123C131.979 820.559 131.725 820.15 131.514 819.782C131.339 819.478 131.189 819.207 131.176 818.863C131.164 818.525 131.294 818.243 131.448 817.94C131.632 817.566 131.856 817.149 131.836 816.585C131.794 815.42 130.465 814.639 128.637 814.667C127.13 814.69 126.369 815.298 125.713 815.846C125.353 816.152 125.018 816.437 124.58 816.637C124.231 816.798 123.849 816.933 123.425 817.068C122.147 817.491 120.874 817.827 120.917 819.019C120.96 820.217 122.256 820.514 123.563 820.892C123.996 821.02 124.379 821.143 124.738 821.288C125.198 821.474 125.554 821.754 125.936 822.049C126.63 822.576 127.434 823.16 128.941 823.137Z" fill="#160601" fill-opacity="0.4"/>
<path d="M63.3123 804.347C65.0497 804.321 66.4101 803.66 66.3812 802.855C66.3521 802.044 64.946 801.431 63.2086 801.458C61.4547 801.484 60.1024 802.139 60.1315 802.95C60.1606 803.761 61.5584 804.374 63.3123 804.347ZM63.1812 800.695C64.9186 800.668 66.2792 800.014 66.2501 799.203C66.2212 798.397 64.815 797.779 63.0776 797.805C61.3237 797.832 59.9716 798.492 60.0005 799.298C60.0295 800.109 61.4274 800.722 63.1812 800.695ZM68.4082 806.999C70.1621 806.972 71.5145 806.318 71.4858 805.517C71.4565 804.701 70.0504 804.088 68.3048 804.115C66.5674 804.142 65.2068 804.796 65.2361 805.613C65.2648 806.413 66.6708 807.026 68.4082 806.999ZM68.0813 797.885C69.8269 797.858 71.1875 797.203 71.1584 796.392C71.1295 795.587 69.7317 794.974 67.9778 795.001C66.2404 795.027 64.8798 795.682 64.9087 796.488C64.9378 797.299 66.3439 797.911 68.0813 797.885ZM74.9406 805.137C76.7685 805.109 78.0408 804.289 77.999 803.123C77.9788 802.559 77.7251 802.15 77.5142 801.782C77.3386 801.478 77.1888 801.207 77.1764 800.863C77.1643 800.525 77.2943 800.243 77.4481 799.94C77.6325 799.566 77.8564 799.149 77.8362 798.585C77.7944 797.42 76.4647 796.639 74.6367 796.667C73.1299 796.69 72.369 797.298 71.7131 797.846C71.3533 798.152 71.0175 798.437 70.5798 798.637C70.2313 798.798 69.849 798.933 69.4254 799.068C68.1471 799.491 66.874 799.827 66.9167 801.019C66.9597 802.217 68.2556 802.514 69.5626 802.892C69.9956 803.02 70.379 803.143 70.7384 803.288C71.1983 803.474 71.5543 803.754 71.9356 804.049C72.6301 804.576 73.4337 805.16 74.9406 805.137Z" fill="#160601" fill-opacity="0.2"/>
<path d="M178.754 794.664C180.506 794.122 181.684 793.033 181.41 792.204C181.134 791.369 179.524 791.148 177.771 791.69C176.002 792.237 174.831 793.318 175.107 794.153C175.383 794.988 176.985 795.211 178.754 794.664ZM177.512 790.905C179.264 790.363 180.444 789.28 180.168 788.445C179.894 787.616 178.281 787.389 176.529 787.931C174.76 788.478 173.591 789.565 173.865 790.394C174.141 791.229 175.743 791.452 177.512 790.905ZM184.723 795.913C186.492 795.367 187.663 794.285 187.391 793.462C187.113 792.621 185.503 792.401 183.742 792.945C181.99 793.487 180.81 794.571 181.088 795.411C181.36 796.234 182.971 796.455 184.723 795.913ZM181.623 786.533C183.384 785.988 184.563 784.905 184.287 784.07C184.013 783.241 182.411 783.017 180.642 783.564C178.89 784.106 177.71 785.19 177.984 786.019C178.26 786.854 179.871 787.075 181.623 786.533ZM190.776 792.043C192.62 791.473 193.659 790.244 193.263 789.044C193.071 788.464 192.69 788.113 192.364 787.793C192.094 787.529 191.86 787.291 191.743 786.937C191.628 786.589 191.674 786.258 191.738 785.897C191.811 785.454 191.911 784.954 191.719 784.373C191.323 783.174 189.739 782.756 187.895 783.326C186.375 783.796 185.789 784.653 185.291 785.417C185.019 785.842 184.766 786.237 184.383 786.575C184.079 786.846 183.732 787.099 183.344 787.365C182.178 788.183 180.99 788.91 181.395 790.137C181.803 791.37 183.206 791.295 184.645 791.301C185.123 791.306 185.548 791.32 185.957 791.365C186.479 791.422 186.925 791.607 187.401 791.801C188.264 792.144 189.256 792.513 190.776 792.043Z" fill="#160601" fill-opacity="0.4"/>
<path d="M205.496 806.126C207.33 806.097 208.766 805.382 208.736 804.509C208.705 803.631 207.221 802.967 205.387 802.996C203.536 803.025 202.108 803.734 202.139 804.613C202.169 805.491 203.645 806.155 205.496 806.126ZM205.358 802.17C207.192 802.141 208.628 801.431 208.597 800.553C208.567 799.68 207.082 799.011 205.249 799.039C203.397 799.068 201.97 799.783 202 800.656C202.031 801.535 203.507 802.199 205.358 802.17ZM210.875 808.999C212.727 808.97 214.154 808.261 214.124 807.394C214.093 806.509 212.609 805.846 210.766 805.875C208.932 805.903 207.496 806.613 207.527 807.497C207.557 808.364 209.041 809.028 210.875 808.999ZM210.53 799.125C212.373 799.097 213.809 798.387 213.778 797.508C213.748 796.636 212.272 795.972 210.421 796.001C208.587 796.03 207.151 796.739 207.181 797.612C207.212 798.49 208.696 799.154 210.53 799.125ZM217.771 806.982C219.7 806.951 221.043 806.063 220.999 804.8C220.978 804.189 220.71 803.745 220.487 803.347C220.302 803.018 220.144 802.724 220.131 802.351C220.118 801.985 220.255 801.68 220.417 801.352C220.612 800.947 220.848 800.495 220.827 799.884C220.783 798.621 219.379 797.776 217.45 797.806C215.859 797.831 215.056 798.49 214.364 799.083C213.984 799.415 213.63 799.723 213.168 799.94C212.8 800.114 212.396 800.26 211.949 800.407C210.6 800.865 209.256 801.229 209.301 802.521C209.346 803.819 210.714 804.141 212.094 804.55C212.551 804.688 212.956 804.822 213.335 804.979C213.82 805.181 214.196 805.483 214.599 805.803C215.332 806.374 216.18 807.007 217.771 806.982Z" fill="#160601" fill-opacity="0.3"/>
<path d="M281.496 776.126C283.33 776.097 284.766 775.382 284.736 774.509C284.705 773.631 283.221 772.967 281.387 772.996C279.536 773.025 278.108 773.734 278.139 774.613C278.169 775.491 279.645 776.155 281.496 776.126ZM281.358 772.17C283.192 772.141 284.628 771.431 284.597 770.553C284.567 769.68 283.082 769.011 281.249 769.039C279.397 769.068 277.97 769.783 278 770.656C278.031 771.535 279.507 772.199 281.358 772.17ZM286.875 778.999C288.727 778.97 290.154 778.261 290.124 777.394C290.093 776.509 288.609 775.846 286.766 775.875C284.932 775.903 283.496 776.613 283.527 777.497C283.557 778.364 285.041 779.028 286.875 778.999ZM286.53 769.125C288.373 769.097 289.809 768.387 289.778 767.508C289.748 766.636 288.272 765.972 286.421 766.001C284.587 766.03 283.151 766.739 283.181 767.612C283.212 768.49 284.696 769.154 286.53 769.125ZM293.771 776.982C295.7 776.951 297.043 776.063 296.999 774.8C296.978 774.189 296.71 773.745 296.487 773.347C296.302 773.018 296.144 772.724 296.131 772.351C296.118 771.985 296.255 771.68 296.417 771.352C296.612 770.947 296.848 770.495 296.827 769.884C296.783 768.621 295.379 767.776 293.45 767.806C291.859 767.831 291.056 768.49 290.364 769.083C289.984 769.415 289.63 769.723 289.168 769.94C288.8 770.114 288.396 770.26 287.949 770.407C286.6 770.865 285.256 771.229 285.301 772.521C285.346 773.819 286.714 774.141 288.094 774.55C288.551 774.688 288.956 774.822 289.335 774.979C289.82 775.181 290.196 775.483 290.599 775.803C291.332 776.374 292.18 777.007 293.771 776.982Z" fill="#160601" fill-opacity="0.4"/>
<path d="M305.496 789.126C307.33 789.097 308.766 788.382 308.736 787.509C308.705 786.631 307.221 785.967 305.387 785.996C303.536 786.025 302.108 786.734 302.139 787.613C302.169 788.491 303.645 789.155 305.496 789.126ZM305.358 785.17C307.192 785.141 308.628 784.431 308.597 783.553C308.567 782.68 307.082 782.011 305.249 782.039C303.397 782.068 301.97 782.783 302 783.656C302.031 784.535 303.507 785.199 305.358 785.17ZM310.875 791.999C312.727 791.97 314.154 791.261 314.124 790.394C314.093 789.509 312.609 788.846 310.766 788.875C308.932 788.903 307.496 789.613 307.527 790.497C307.557 791.364 309.041 792.028 310.875 791.999ZM310.53 782.125C312.373 782.097 313.809 781.387 313.778 780.508C313.748 779.636 312.272 778.972 310.421 779.001C308.587 779.03 307.151 779.739 307.181 780.612C307.212 781.49 308.696 782.154 310.53 782.125ZM317.771 789.982C319.7 789.951 321.043 789.063 320.999 787.8C320.978 787.189 320.71 786.745 320.487 786.347C320.302 786.018 320.144 785.724 320.131 785.351C320.118 784.985 320.255 784.68 320.417 784.352C320.612 783.947 320.848 783.495 320.827 782.884C320.783 781.621 319.379 780.776 317.45 780.806C315.859 780.831 315.056 781.49 314.364 782.083C313.984 782.415 313.63 782.723 313.168 782.94C312.8 783.114 312.396 783.26 311.949 783.407C310.6 783.865 309.256 784.229 309.301 785.521C309.346 786.819 310.714 787.141 312.094 787.55C312.551 787.688 312.956 787.822 313.335 787.979C313.82 788.181 314.196 788.483 314.599 788.803C315.332 789.374 316.18 790.007 317.771 789.982Z" fill="#160601" fill-opacity="0.4"/>
<path d="M352.496 756.126C354.33 756.097 355.766 755.382 355.736 754.509C355.705 753.631 354.221 752.967 352.387 752.996C350.536 753.025 349.108 753.734 349.139 754.613C349.169 755.491 350.645 756.155 352.496 756.126ZM352.358 752.17C354.192 752.141 355.628 751.431 355.597 750.553C355.567 749.68 354.082 749.011 352.249 749.039C350.397 749.068 348.97 749.783 349 750.656C349.031 751.535 350.507 752.199 352.358 752.17ZM357.875 758.999C359.727 758.97 361.154 758.261 361.124 757.394C361.093 756.509 359.609 755.846 357.766 755.875C355.932 755.903 354.496 756.613 354.527 757.497C354.557 758.364 356.041 759.028 357.875 758.999ZM357.53 749.125C359.373 749.097 360.809 748.387 360.778 747.508C360.748 746.636 359.272 745.972 357.421 746.001C355.587 746.03 354.151 746.739 354.181 747.612C354.212 748.49 355.696 749.154 357.53 749.125ZM364.771 756.982C366.7 756.951 368.043 756.063 367.999 754.8C367.978 754.189 367.71 753.745 367.487 753.347C367.302 753.018 367.144 752.724 367.131 752.351C367.118 751.985 367.255 751.68 367.417 751.352C367.612 750.947 367.848 750.495 367.827 749.884C367.783 748.621 366.379 747.776 364.45 747.806C362.859 747.831 362.056 748.49 361.364 749.083C360.984 749.415 360.63 749.723 360.168 749.94C359.8 750.114 359.396 750.26 358.949 750.407C357.6 750.865 356.256 751.229 356.301 752.521C356.346 753.819 357.714 754.141 359.094 754.55C359.551 754.688 359.956 754.822 360.335 754.979C360.82 755.181 361.196 755.483 361.599 755.803C362.332 756.374 363.18 757.007 364.771 756.982Z" fill="#160601" fill-opacity="0.2"/>
<path d="M376.496 769.126C378.33 769.097 379.766 768.382 379.736 767.509C379.705 766.631 378.221 765.967 376.387 765.996C374.536 766.025 373.108 766.734 373.139 767.613C373.169 768.491 374.645 769.155 376.496 769.126ZM376.358 765.17C378.192 765.141 379.628 764.431 379.597 763.553C379.567 762.68 378.082 762.011 376.249 762.039C374.397 762.068 372.97 762.783 373 763.656C373.031 764.535 374.507 765.199 376.358 765.17ZM381.875 771.999C383.727 771.97 385.154 771.261 385.124 770.394C385.093 769.509 383.609 768.846 381.766 768.875C379.932 768.903 378.496 769.613 378.527 770.497C378.557 771.364 380.041 772.028 381.875 771.999ZM381.53 762.125C383.373 762.097 384.809 761.387 384.778 760.508C384.748 759.636 383.272 758.972 381.421 759.001C379.587 759.03 378.151 759.739 378.181 760.612C378.212 761.49 379.696 762.154 381.53 762.125ZM388.771 769.982C390.7 769.951 392.043 769.063 391.999 767.8C391.978 767.189 391.71 766.745 391.487 766.347C391.302 766.018 391.144 765.724 391.131 765.351C391.118 764.985 391.255 764.68 391.417 764.352C391.612 763.947 391.848 763.495 391.827 762.884C391.783 761.621 390.379 760.776 388.45 760.806C386.859 760.831 386.056 761.49 385.364 762.083C384.984 762.415 384.63 762.723 384.168 762.94C383.8 763.114 383.396 763.26 382.949 763.407C381.6 763.865 380.256 764.229 380.301 765.521C380.346 766.819 381.714 767.141 383.094 767.55C383.551 767.688 383.956 767.822 384.335 767.979C384.82 768.181 385.196 768.483 385.599 768.803C386.332 769.374 387.18 770.007 388.771 769.982Z" fill="#160601" fill-opacity="0.2"/>
</g>
<defs>
<clipPath id="clip0_1417_10174">
<rect width="390" height="844" fill="white"/>
</clipPath>
</defs>
</svg>
