<svg width="130" height="103" viewBox="0 0 130 103" fill="none" xmlns="http://www.w3.org/2000/svg">
<circle cx="100.811" cy="52.8607" r="13.6567" fill="#F7FCF8"/>
<circle cx="24.9399" cy="52.8607" r="13.6567" fill="#F7FCF8"/>
<rect x="4.60742" y="62.8755" width="121.393" height="35.811" rx="12.1393" fill="#F7FCF8"/>
<circle cx="64.696" cy="44.6667" r="40.6667" fill="#F7FCF8"/>
<path d="M72.7184 27.8091C65.8504 23.2304 59.9998 25.9013 57.933 27.8091C55.8662 24.4704 50.2065 18.0793 44.1015 19.224C42.5117 20.6548 40.4767 26.569 45.0554 38.7789C41.5573 46.887 40.8567 63.1032 66.0396 63.1032C75.4206 63.2622 92.37 58.62 85.1191 38.7789C88.9347 27.8091 88.1398 22.4036 86.073 19.224C78.4418 19.6055 73.8313 24.3115 72.7184 27.8091Z" fill="#FFFCF3"/>
<path d="M57.4551 28.3948C60.3842 35.7687 67.5375 46.0922 72.7174 28.3948C70.5591 25.6911 64.485 21.9058 57.4551 28.3948Z" fill="#FFE38F"/>
<path d="M72.7242 49.5253C77.523 55.844 87.182 63.8718 87.4279 45.4336C84.6237 43.4074 77.7572 41.3891 72.7242 49.5253Z" fill="#FFE38F"/>
<path d="M57.6137 49.5253C52.8149 55.844 43.1559 63.8718 42.91 45.4336C45.7142 43.4074 52.5807 41.3891 57.6137 49.5253Z" fill="#FFE38F"/>
<ellipse cx="65.5636" cy="47.8409" rx="3.81559" ry="1.9078" fill="#FEC6C6"/>
<path d="M61.7461 47.8408C63.1769 49.2717 66.611 51.2749 68.9003 47.8408" stroke="#1B0701" stroke-width="0.953894" stroke-linecap="round"/>
<path d="M65.5605 49.7487V54.5181" stroke="#1B0701" stroke-width="0.953894" stroke-linecap="round"/>
<ellipse cx="57.4543" cy="43.5484" rx="2.38474" ry="1.43085" transform="rotate(-90 57.4543 43.5484)" fill="black"/>
<ellipse cx="72.718" cy="43.5484" rx="2.38474" ry="1.43085" transform="rotate(-90 72.718 43.5484)" fill="black"/>
<path d="M59.9492 27.4944L59.9492 38.345" stroke="#444348" stroke-width="1.90779" stroke-linecap="round"/>
<path d="M65.6738 25.7655V39.1201" stroke="#444348" stroke-width="1.90779" stroke-linecap="round"/>
<path d="M71.3965 27.4944L71.3965 38.345" stroke="#444348" stroke-width="1.90779" stroke-linecap="round"/>
<path d="M77.0117 49.7487L83.2121 48.7948" stroke="#1B0701" stroke-width="0.953894" stroke-linecap="round"/>
<path d="M77.4871 52.0537L81.3041 53.0872" stroke="#1B0701" stroke-width="0.953894" stroke-linecap="round"/>
<path d="M53.6406 49.7487L47.4403 48.7948" stroke="#1B0701" stroke-width="0.953894" stroke-linecap="round"/>
<path d="M53.1633 52.0537L49.3463 53.0872" stroke="#1B0701" stroke-width="0.953894" stroke-linecap="round"/>
<path d="M57.9316 27.8093C59.9984 25.9015 65.849 23.2305 72.7171 27.8093C73.8299 24.3116 78.4404 19.6057 86.0716 19.2241C88.1384 22.4038 88.9333 27.8093 85.1177 38.779" stroke="#1B0701" stroke-width="1.43084" stroke-linecap="round"/>
<path d="M57.457 27.8092C56.3442 24.3116 51.7336 19.6057 44.1025 19.2241C42.0357 22.4038 40.7638 27.8092 45.0564 38.779" stroke="#1B0701" stroke-width="1.43084" stroke-linecap="round"/>
<path d="M45.0546 38.7789C41.557 46.8871 40.7621 63.1033 65.5634 63.1033" stroke="#1B0701" stroke-width="1.43084" stroke-linecap="round"/>
<path d="M85.1211 38.7789C88.6188 46.8871 89.4137 63.1033 64.6123 63.1033" stroke="#1B0701" stroke-width="1.43084" stroke-linecap="round"/>
<path d="M26.5257 46.7276C25.8164 48.131 26.0431 49.6484 27.0408 50.1526C28.0451 50.6602 29.3946 49.9395 30.1039 48.5361C30.8199 47.1194 30.5965 45.612 29.5922 45.1044C28.5879 44.5968 27.2417 45.3109 26.5257 46.7276ZM31.0484 49.0134C30.3391 50.4168 30.5592 51.9309 31.5635 52.4385C32.5611 52.9427 33.9174 52.2253 34.6266 50.822C35.3427 49.4053 35.1126 47.8945 34.1149 47.3903C33.1106 46.8827 31.7644 47.5968 31.0484 49.0134ZM21.1064 49.0571C20.3904 50.4738 20.6139 51.9812 21.6049 52.482C22.6158 52.993 23.9654 52.2723 24.6781 50.8623C25.3874 49.4589 25.1673 47.9448 24.1563 47.4339C23.1653 46.933 21.8157 47.6537 21.1064 49.0571ZM32.3933 54.7617C31.6806 56.1717 31.9007 57.6857 32.905 58.1933C33.9027 58.6976 35.2489 57.9835 35.9649 56.5668C36.6742 55.1635 36.4541 53.6494 35.4565 53.1452C34.4521 52.6376 33.1026 53.3583 32.3933 54.7617ZM20.5954 55.4872C19.8491 56.9637 20.309 58.5155 21.7523 59.2449C22.4506 59.5979 23.0602 59.6638 23.5998 59.7362C24.0462 59.7948 24.4425 59.8531 24.8682 60.0683C25.2872 60.28 25.5759 60.5679 25.8812 60.8892C26.2594 61.2808 26.6741 61.7325 27.3724 62.0854C28.8157 62.8149 30.3378 62.2649 31.0841 60.7884C31.6993 59.5712 31.2803 58.5662 30.8909 57.6847C30.6697 57.1972 30.465 56.743 30.4071 56.2628C30.3588 55.8794 30.3572 55.4861 30.3723 55.0595C30.4013 53.7632 30.5333 52.5273 29.0567 51.7811C27.5735 51.0314 26.6567 51.8707 25.6368 52.6661C25.2957 52.9279 24.9814 53.1532 24.6507 53.3451C24.2263 53.5899 23.7326 53.691 23.2089 53.8021C22.2682 54.0113 21.2105 54.27 20.5954 55.4872Z" fill="#F39ABB"/>
<path d="M92.8783 51.8996C93.836 53.1468 95.3019 53.5996 96.1885 52.9188C97.081 52.2335 97.016 50.7049 96.0583 49.4577C95.0915 48.1988 93.6361 47.7473 92.7436 48.4326C91.8511 49.118 91.9116 50.6407 92.8783 51.8996ZM96.8976 48.8132C97.8553 50.0604 99.3153 50.5178 100.208 49.8324C101.094 49.1516 101.035 47.6185 100.078 46.3714C99.1108 45.1124 97.6494 44.6654 96.7628 45.3462C95.8703 46.0316 95.9308 47.5543 96.8976 48.8132ZM92.6308 57.7931C93.5975 59.0521 95.053 59.5036 95.9337 58.8273C96.8321 58.1374 96.767 56.6088 95.8048 55.3558C94.8471 54.1086 93.3871 53.6512 92.4887 54.3411C91.608 55.0174 91.6731 56.546 92.6308 57.7931ZM102.661 50.0908C103.623 51.3438 105.083 51.8012 105.976 51.1159C106.862 50.4351 106.802 48.9124 105.835 47.6534C104.878 46.4063 103.418 45.9489 102.531 46.6297C101.638 47.315 101.703 48.8436 102.661 50.0908ZM98.2051 61.0388C99.2127 62.351 100.81 62.6086 102.093 61.6237C102.714 61.1471 103.037 60.6262 103.336 60.1712C103.582 59.7943 103.807 59.4623 104.185 59.1718C104.557 58.8859 104.942 58.7503 105.363 58.6144C105.88 58.443 106.467 58.265 107.088 57.7884C108.37 56.8035 108.534 55.1933 107.526 53.8811C106.696 52.7995 105.608 52.7418 104.645 52.711C104.11 52.6992 103.612 52.6869 103.154 52.5312C102.787 52.4086 102.432 52.2398 102.054 52.0413C100.898 51.4538 99.8416 50.7995 98.5295 51.8071C97.2114 52.8193 97.5707 54.0091 97.8459 55.273C97.9342 55.6938 98.0011 56.0746 98.0308 56.4559C98.0676 56.9443 97.945 57.4331 97.8182 57.9533C97.5994 58.8919 97.3745 59.9572 98.2051 61.0388Z" fill="#F39ABB"/>
<path d="M21.0212 90.8059L16.5903 82.7636H15.3461V90.8059H10.1565V69.5015H18.8665C20.5457 69.5015 21.9721 69.7948 23.1455 70.3816C24.3392 70.9683 25.2295 71.7776 25.8162 72.8094C26.4029 73.821 26.6963 74.954 26.6963 76.2084C26.6963 77.6247 26.2916 78.8892 25.4824 80.002C24.6933 81.1147 23.5198 81.9038 21.962 82.3691L26.8784 90.8059H21.0212ZM15.3461 79.0915H18.563C19.5139 79.0915 20.222 78.8588 20.6873 78.3935C21.1729 77.9282 21.4157 77.2706 21.4157 76.4209C21.4157 75.6116 21.1729 74.9743 20.6873 74.5089C20.222 74.0436 19.5139 73.8109 18.563 73.8109H15.3461V79.0915ZM45.9171 82.0656C45.9171 82.5512 45.8868 83.057 45.8261 83.583H34.0813C34.1623 84.6351 34.4961 85.4444 35.0828 86.0109C35.6898 86.5572 36.4282 86.8303 37.2982 86.8303C38.5931 86.8303 39.4934 86.284 39.9992 85.1915H45.5226C45.2393 86.3043 44.7234 87.3058 43.9748 88.196C43.2465 89.0862 42.3259 89.7842 41.2131 90.29C40.1004 90.7958 38.8561 91.0487 37.4803 91.0487C35.8213 91.0487 34.3443 90.6946 33.0495 89.9865C31.7546 89.2784 30.743 88.2668 30.0147 86.9517C29.2863 85.6366 28.9221 84.099 28.9221 82.3388C28.9221 80.5786 29.2762 79.0409 29.9843 77.7258C30.7127 76.4108 31.7243 75.3991 33.0191 74.691C34.314 73.9829 35.8011 73.6288 37.4803 73.6288C39.1191 73.6288 40.5758 73.9728 41.8505 74.6607C43.1251 75.3486 44.1165 76.3298 44.8246 77.6044C45.5529 78.8791 45.9171 80.3661 45.9171 82.0656ZM40.6062 80.7C40.6062 79.8097 40.3027 79.1016 39.6957 78.5756C39.0888 78.0496 38.3301 77.7865 37.4196 77.7865C36.5496 77.7865 35.8112 78.0394 35.2042 78.5452C34.6175 79.051 34.2533 79.7693 34.1117 80.7H40.6062ZM55.5439 91.0487C54.0669 91.0487 52.7519 90.7958 51.5986 90.29C50.4454 89.7842 49.535 89.0963 48.8673 88.2263C48.1996 87.3361 47.8253 86.3447 47.7444 85.2522H52.8733C52.9339 85.8389 53.2071 86.3144 53.6927 86.6786C54.1782 87.0427 54.7751 87.2248 55.4832 87.2248C56.1306 87.2248 56.6263 87.1034 56.9703 86.8606C57.3344 86.5976 57.5165 86.2638 57.5165 85.8592C57.5165 85.3736 57.2636 85.0195 56.7578 84.797C56.252 84.5542 55.4326 84.2912 54.2996 84.0079C53.0857 83.7247 52.0741 83.4313 51.2648 83.1278C50.4555 82.8041 49.7575 82.3084 49.1708 81.6408C48.584 80.9529 48.2907 80.0323 48.2907 78.8791C48.2907 77.9079 48.5537 77.0278 49.0797 76.2388C49.626 75.4295 50.415 74.7922 51.4469 74.3268C52.499 73.8615 53.7432 73.6288 55.1797 73.6288C57.3041 73.6288 58.9732 74.1549 60.1872 75.2069C61.4213 76.259 62.1294 77.655 62.3115 79.395H57.5165C57.4356 78.8083 57.1726 78.3429 56.7275 77.999C56.3026 77.655 55.7361 77.4831 55.028 77.4831C54.421 77.4831 53.9557 77.6044 53.632 77.8472C53.3082 78.0698 53.1464 78.3834 53.1464 78.788C53.1464 79.2736 53.3993 79.6378 53.9051 79.8806C54.4311 80.1233 55.2404 80.3661 56.3329 80.6089C57.5873 80.9326 58.6091 81.2563 59.3981 81.5801C60.1872 81.8835 60.8751 82.3893 61.4618 83.0975C62.0688 83.7854 62.3824 84.716 62.4026 85.8895C62.4026 86.8809 62.1193 87.7711 61.5528 88.5601C61.0066 89.329 60.2074 89.9359 59.1553 90.381C58.1235 90.8261 56.9197 91.0487 55.5439 91.0487ZM64.5457 82.3388C64.5457 80.5786 64.8997 79.0409 65.6079 77.7258C66.3362 76.4108 67.3377 75.3991 68.6123 74.691C69.9072 73.9829 71.3841 73.6288 73.0432 73.6288C75.1676 73.6288 76.9379 74.1852 78.3541 75.298C79.7906 76.4108 80.7314 77.9787 81.1765 80.002H75.6531C75.1878 78.7071 74.2875 78.0597 72.9521 78.0597C72.0012 78.0597 71.2425 78.434 70.676 79.1826C70.1095 79.9109 69.8263 80.963 69.8263 82.3388C69.8263 83.7145 70.1095 84.7767 70.676 85.5253C71.2425 86.2537 72.0012 86.6179 72.9521 86.6179C74.2875 86.6179 75.1878 85.9704 75.6531 84.6756H81.1765C80.7314 86.6583 79.7906 88.2162 78.3541 89.3492C76.9176 90.4822 75.1473 91.0487 73.0432 91.0487C71.3841 91.0487 69.9072 90.6946 68.6123 89.9865C67.3377 89.2784 66.3362 88.2668 65.6079 86.9517C64.8997 85.6366 64.5457 84.099 64.5457 82.3388ZM100.674 73.8716V90.8059H95.4847V88.4994C94.9587 89.248 94.2404 89.855 93.33 90.3203C92.4398 90.7654 91.4484 90.988 90.3559 90.988C89.061 90.988 87.9179 90.7047 86.9265 90.1382C85.9352 89.5515 85.1663 88.7119 84.6201 87.6193C84.0738 86.5268 83.8007 85.2421 83.8007 83.7651V73.8716H88.9599V83.0671C88.9599 84.2001 89.2532 85.0802 89.84 85.7074C90.4267 86.3346 91.2157 86.6482 92.2071 86.6482C93.2187 86.6482 94.0179 86.3346 94.6046 85.7074C95.1913 85.0802 95.4847 84.2001 95.4847 83.0671V73.8716H100.674ZM120.365 82.0656C120.365 82.5512 120.335 83.057 120.274 83.583H108.529C108.61 84.6351 108.944 85.4444 109.531 86.0109C110.138 86.5572 110.876 86.8303 111.746 86.8303C113.041 86.8303 113.941 86.284 114.447 85.1915H119.97C119.687 86.3043 119.171 87.3058 118.423 88.196C117.694 89.0862 116.774 89.7842 115.661 90.29C114.548 90.7958 113.304 91.0487 111.928 91.0487C110.269 91.0487 108.792 90.6946 107.497 89.9865C106.203 89.2784 105.191 88.2668 104.463 86.9517C103.734 85.6366 103.37 84.099 103.37 82.3388C103.37 80.5786 103.724 79.0409 104.432 77.7258C105.161 76.4108 106.172 75.3991 107.467 74.691C108.762 73.9829 110.249 73.6288 111.928 73.6288C113.567 73.6288 115.024 73.9728 116.298 74.6607C117.573 75.3486 118.564 76.3298 119.272 77.6044C120.001 78.8791 120.365 80.3661 120.365 82.0656ZM115.054 80.7C115.054 79.8097 114.751 79.1016 114.144 78.5756C113.537 78.0496 112.778 77.7865 111.868 77.7865C110.998 77.7865 110.259 78.0394 109.652 78.5452C109.065 79.051 108.701 79.7693 108.56 80.7H115.054Z" fill="#7E3822"/>
<mask id="path-28-outside-1_1423_8504" maskUnits="userSpaceOnUse" x="0" y="0" width="130" height="103" fill="black">
<rect fill="white" width="130" height="103"/>
<path fill-rule="evenodd" clip-rule="evenodd" d="M104.907 38.5563C104.986 39.0823 105.429 39.4789 105.959 39.5265C112.922 40.1513 118.38 46.0023 118.38 53.128C118.38 56.1155 117.42 58.879 115.793 61.1272C115.252 61.875 115.685 63.0829 116.573 63.3347C121.664 64.7785 125.393 69.4611 125.393 75.0147V86.5472C125.393 93.2516 119.958 98.6865 113.254 98.6865H16.1393C9.43494 98.6865 4 93.2516 4 86.5472V75.0147C4 69.3597 7.86686 64.6078 13.1007 63.2589C14.0281 63.0199 14.5055 61.7235 13.9375 60.9525C12.2691 58.6878 11.2832 55.8894 11.2832 52.8607C11.2832 45.8082 16.629 40.0042 23.4896 39.28C24.0091 39.2252 24.4409 38.8348 24.5218 38.3187C27.5697 18.8742 44.3958 4 64.696 4C85.0787 4 101.959 18.9955 104.907 38.5563Z"/>
</mask>
<path fill-rule="evenodd" clip-rule="evenodd" d="M104.907 38.5563C104.986 39.0823 105.429 39.4789 105.959 39.5265C112.922 40.1513 118.38 46.0023 118.38 53.128C118.38 56.1155 117.42 58.879 115.793 61.1272C115.252 61.875 115.685 63.0829 116.573 63.3347C121.664 64.7785 125.393 69.4611 125.393 75.0147V86.5472C125.393 93.2516 119.958 98.6865 113.254 98.6865H16.1393C9.43494 98.6865 4 93.2516 4 86.5472V75.0147C4 69.3597 7.86686 64.6078 13.1007 63.2589C14.0281 63.0199 14.5055 61.7235 13.9375 60.9525C12.2691 58.6878 11.2832 55.8894 11.2832 52.8607C11.2832 45.8082 16.629 40.0042 23.4896 39.28C24.0091 39.2252 24.4409 38.8348 24.5218 38.3187C27.5697 18.8742 44.3958 4 64.696 4C85.0787 4 101.959 18.9955 104.907 38.5563Z" fill="#F7FCF8"/>
<path d="M13.1007 63.2589L14.0396 66.9019L13.1007 63.2589ZM13.9375 60.9525L10.9085 63.1839L10.9085 63.1839L13.9375 60.9525ZM115.793 61.1272L118.84 63.3332L115.793 61.1272ZM116.573 63.3347L115.546 66.9541L116.573 63.3347ZM23.4896 39.28L23.8845 43.0214L23.4896 39.28ZM105.959 39.5265L106.295 35.7794L105.959 39.5265ZM104.907 38.5563L101.187 39.1168L104.907 38.5563ZM122.142 53.128C122.142 44.0373 115.181 36.5767 106.295 35.7794L105.623 43.2735C110.664 43.7258 114.617 47.9673 114.617 53.128H122.142ZM118.84 63.3332C120.917 60.4647 122.142 56.9339 122.142 53.128H114.617C114.617 55.2972 113.924 57.2933 112.745 58.9213L118.84 63.3332ZM129.155 75.0147C129.155 67.7345 124.266 61.606 117.599 59.7154L115.546 66.9541C119.062 67.951 121.631 71.1877 121.631 75.0147H129.155ZM129.155 86.5472V75.0147H121.631V86.5472H129.155ZM113.254 102.449C122.036 102.449 129.155 95.3293 129.155 86.5472H121.631C121.631 91.1738 117.881 94.9244 113.254 94.9244V102.449ZM16.1393 102.449H113.254V94.9244H16.1393V102.449ZM0.237897 86.5472C0.237897 95.3293 7.35718 102.449 16.1393 102.449V94.9244C11.5127 94.9244 7.7621 91.1738 7.7621 86.5472H0.237897ZM0.237897 75.0147V86.5472H7.7621V75.0147H0.237897ZM12.1618 59.6158C5.30675 61.3825 0.237897 67.6019 0.237897 75.0147H7.7621C7.7621 71.1174 10.427 67.833 14.0396 66.9019L12.1618 59.6158ZM7.52107 52.8607C7.52107 56.7192 8.78006 60.2946 10.9085 63.1839L16.9664 58.7211C15.7581 57.0809 15.0453 55.0596 15.0453 52.8607H7.52107ZM23.0947 35.5387C14.3402 36.4628 7.52107 43.863 7.52107 52.8607H15.0453C15.0453 47.7534 18.9179 43.5456 23.8845 43.0214L23.0947 35.5387ZM28.2385 38.9013C31.004 21.2588 46.2773 7.7621 64.696 7.7621V0.237897C42.5143 0.237897 24.1355 16.4896 20.805 37.7361L28.2385 38.9013ZM64.696 7.7621C83.1897 7.7621 98.5121 21.369 101.187 39.1168L108.627 37.9957C105.406 16.622 86.9677 0.237897 64.696 0.237897V7.7621ZM14.0396 66.9019C15.9718 66.404 17.1301 64.9216 17.6142 63.5944C18.0987 62.2662 18.1726 60.3585 16.9664 58.7211L10.9085 63.1839C10.2703 62.3176 10.3896 61.4435 10.5455 61.016C10.7011 60.5895 11.157 59.8748 12.1618 59.6158L14.0396 66.9019ZM112.745 58.9213C111.604 60.4983 111.626 62.3368 112.102 63.6762C112.577 65.0138 113.707 66.4325 115.546 66.9541L117.599 59.7154C118.55 59.9851 119.02 60.6739 119.192 61.1577C119.364 61.6433 119.441 62.504 118.84 63.3332L112.745 58.9213ZM23.8845 43.0214C26.0062 42.7974 27.8795 41.1916 28.2385 38.9013L20.805 37.7361C21.0023 36.4779 22.0121 35.653 23.0947 35.5387L23.8845 43.0214ZM106.295 35.7794C107.397 35.8783 108.434 36.7133 108.627 37.9957L101.187 39.1168C101.538 41.4513 103.461 43.0795 105.623 43.2735L106.295 35.7794Z" fill="#C17930" mask="url(#path-28-outside-1_1423_8504)"/>
<path d="M27.6448 47.0974C26.9355 48.5007 27.1623 50.0181 28.1599 50.5224C29.1642 51.03 30.5138 50.3093 31.2231 48.9059C31.9391 47.4892 31.7157 45.9818 30.7114 45.4742C29.7071 44.9666 28.3608 45.6807 27.6448 47.0974ZM32.1676 49.3832C31.4583 50.7866 31.6784 52.3007 32.6827 52.8083C33.6803 53.3125 35.0366 52.5951 35.7458 51.1918C36.4619 49.7751 36.2318 48.2643 35.2341 47.7601C34.2298 47.2525 32.8836 47.9665 32.1676 49.3832ZM22.2256 49.4269C21.5096 50.8436 21.733 52.351 22.724 52.8518C23.735 53.3628 25.0846 52.6421 25.7972 51.232C26.5065 49.8287 26.2864 48.3146 25.2755 47.8037C24.2845 47.3028 22.9349 48.0235 22.2256 49.4269ZM33.5125 55.1315C32.7998 56.5415 33.0199 58.0556 34.0242 58.5632C35.0219 59.0674 36.3681 58.3533 37.0841 56.9367C37.7934 55.5333 37.5733 54.0192 36.5757 53.515C35.5714 53.0074 34.2218 53.7281 33.5125 55.1315ZM21.7145 55.857C20.9683 57.3335 21.4281 58.8853 22.8714 59.6147C23.5698 59.9677 24.1794 60.0337 24.719 60.106C25.1653 60.1646 25.5617 60.223 25.9874 60.4381C26.4064 60.6499 26.6951 60.9377 27.0003 61.259C27.3786 61.6506 27.7932 62.1023 28.4916 62.4553C29.9349 63.1847 31.457 62.6348 32.2033 61.1582C32.8185 59.9411 32.3995 58.9361 32.0101 58.0545C31.7889 57.567 31.5842 57.1128 31.5263 56.6327C31.478 56.2492 31.4763 55.8559 31.4915 55.4294C31.5204 54.133 31.6524 52.8971 30.1759 52.1508C28.6927 51.4012 27.7759 52.2405 26.7559 53.0359C26.4149 53.2977 26.1006 53.523 25.7698 53.7149C25.3455 53.9597 24.8518 54.0608 24.3281 54.1719C23.3873 54.3811 22.3297 54.6398 21.7145 55.857Z" fill="#F39ABB"/>
<path d="M72.7184 27.8091C65.8504 23.2304 59.9998 25.9013 57.933 27.8091C55.8662 24.4704 50.2065 18.0793 44.1015 19.224C42.5117 20.6548 40.4767 26.569 45.0554 38.7789C41.5573 46.887 40.8567 63.1032 66.0396 63.1032C75.4206 63.2622 92.37 58.62 85.1191 38.7789C88.9347 27.8091 88.1398 22.4036 86.073 19.224C78.4418 19.6055 73.8313 24.3115 72.7184 27.8091Z" fill="#858B86"/>
<path d="M57.4551 28.3948C60.3842 35.7687 67.5375 46.0922 72.7174 28.3948C70.5591 25.6911 64.485 21.9058 57.4551 28.3948Z" fill="#6C6C6C"/>
<path d="M72.7242 49.5253C77.523 55.844 87.182 63.8718 87.4279 45.4336C84.6237 43.4074 77.7572 41.3891 72.7242 49.5253Z" fill="#6C6C6C"/>
<path d="M57.6137 49.5253C52.8149 55.844 43.1559 63.8718 42.91 45.4336C45.7142 43.4074 52.5807 41.3891 57.6137 49.5253Z" fill="#6C6C6C"/>
<ellipse cx="65.5636" cy="47.8409" rx="3.81559" ry="1.9078" fill="#444348"/>
<path d="M61.6602 47.8408C63.091 49.2717 66.525 51.2749 68.8144 47.8408" stroke="#1B0701" stroke-width="0.953894" stroke-linecap="round"/>
<path d="M65.4746 49.7487V54.5181" stroke="#1B0701" stroke-width="0.953894" stroke-linecap="round"/>
<ellipse cx="57.4543" cy="43.5484" rx="2.38474" ry="1.43085" transform="rotate(-90 57.4543 43.5484)" fill="black"/>
<ellipse cx="72.718" cy="43.5484" rx="2.38474" ry="1.43085" transform="rotate(-90 72.718 43.5484)" fill="black"/>
<path d="M59.9492 27.4944L59.9492 38.345" stroke="#444348" stroke-width="1.90779" stroke-linecap="round"/>
<path d="M65.6738 25.7655V39.1201" stroke="#444348" stroke-width="1.90779" stroke-linecap="round"/>
<path d="M71.3965 27.4944L71.3965 38.345" stroke="#444348" stroke-width="1.90779" stroke-linecap="round"/>
<path d="M77.0117 49.7487L83.2121 48.7948" stroke="#1B0701" stroke-width="0.953894" stroke-linecap="round"/>
<path d="M77.4871 52.0537L81.3041 53.0872" stroke="#1B0701" stroke-width="0.953894" stroke-linecap="round"/>
<path d="M53.6406 49.7487L47.4403 48.7948" stroke="#1B0701" stroke-width="0.953894" stroke-linecap="round"/>
<path d="M53.1633 52.0537L49.3463 53.0872" stroke="#1B0701" stroke-width="0.953894" stroke-linecap="round"/>
<path d="M57.9316 27.8093C59.9984 25.9015 65.849 23.2305 72.7171 27.8093C73.8299 24.3116 78.4404 19.6057 86.0716 19.2241C88.1384 22.4038 88.9333 27.8093 85.1177 38.779" stroke="#1B0701" stroke-width="1.61233" stroke-linecap="round"/>
<path d="M57.457 27.8092C56.3442 24.3116 51.7336 19.6057 44.1025 19.2241C42.0357 22.4038 40.7638 27.8092 45.0564 38.779" stroke="#1B0701" stroke-width="1.61233" stroke-linecap="round"/>
<path d="M45.0546 38.7789C41.557 46.8871 40.7621 63.1033 65.5634 63.1033" stroke="#1B0701" stroke-width="1.61233" stroke-linecap="round"/>
<path d="M85.1211 38.7789C88.6188 46.8871 89.4137 63.1033 64.6123 63.1033" stroke="#1B0701" stroke-width="1.61233" stroke-linecap="round"/>
<path d="M93.3707 52.5049C94.3284 53.7521 95.7943 54.2049 96.6809 53.5241C97.5734 52.8388 97.5084 51.3102 96.5507 50.063C95.5839 48.804 94.1285 48.3525 93.236 49.0379C92.3434 49.7233 92.404 51.2459 93.3707 52.5049ZM97.39 49.4185C98.3477 50.6657 99.8077 51.1231 100.7 50.4377C101.587 49.7569 101.528 48.2238 100.57 46.9766C99.6032 45.7176 98.1418 45.2707 97.2552 45.9515C96.3627 46.6369 96.4232 48.1595 97.39 49.4185ZM93.1232 58.3984C94.0899 59.6574 95.5454 60.1089 96.4261 59.4326C97.3245 58.7427 97.2594 57.2141 96.2972 55.9611C95.3395 54.7139 93.8795 54.2565 92.9811 54.9464C92.1004 55.6227 92.1655 57.1513 93.1232 58.3984ZM103.154 50.696C104.116 51.9491 105.576 52.4065 106.468 51.7212C107.355 51.0403 107.294 49.5177 106.328 48.2587C105.37 47.0115 103.91 46.5541 103.023 47.2349C102.131 47.9203 102.196 49.4489 103.154 50.696ZM98.6975 61.6441C99.7051 62.9563 101.303 63.2139 102.586 62.229C103.206 61.7524 103.53 61.2315 103.829 60.7765C104.075 60.3996 104.299 60.0676 104.677 59.7771C105.05 59.4912 105.434 59.3556 105.856 59.2197C106.373 59.0484 106.959 58.8703 107.58 58.3937C108.863 57.4088 109.026 55.7986 108.019 54.4864C107.188 53.4048 106.101 53.3471 105.138 53.3163C104.602 53.3045 104.104 53.2922 103.646 53.1365C103.28 53.0139 102.925 52.8451 102.547 52.6466C101.391 52.0591 100.334 51.4048 99.0219 52.4124C97.7038 53.4246 98.0631 54.6144 98.3383 55.8783C98.4266 56.2991 98.4935 56.6799 98.5232 57.0612C98.56 57.5496 98.4374 58.0385 98.3107 58.5586C98.0918 59.4972 97.8669 60.5625 98.6975 61.6441Z" fill="#F39ABB"/>
<path d="M15.677 90.3659C17.0847 90.3659 17.9145 89.5064 17.9145 88.0394V82.2305H21.7229L25.2793 88.6766C26.0054 89.9806 26.4944 90.3659 27.5614 90.3659C28.8654 90.3659 29.8138 89.5064 29.8138 88.3209C29.8138 87.8023 29.71 87.417 29.3396 86.7798L26.2573 81.4452C28.6135 80.4375 29.9323 78.1555 29.9323 75.4882C29.9323 71.2649 27.1168 68.6717 22.1971 68.6717H15.677C14.2692 68.6717 13.4394 69.5311 13.4394 70.9982V88.0394C13.4394 89.5064 14.284 90.3659 15.677 90.3659ZM17.9145 78.9853V72.1688H21.7229C23.9457 72.1688 25.3386 73.5025 25.3386 75.5771C25.3386 77.6961 24.0197 78.9853 21.7673 78.9853H17.9145ZM40.5785 90.3955C43.6459 90.3955 46.1058 89.2397 47.1579 87.2836C47.3505 86.928 47.4542 86.5724 47.4542 86.2315C47.4542 85.2387 46.6985 84.646 45.7649 84.646C45.2018 84.646 44.8166 84.809 44.3572 85.2831C43.1865 86.6613 42.1492 87.1947 40.5637 87.1947C38.3705 87.1947 36.948 85.6536 36.948 83.2975V83.1048H46.0168C47.2171 83.1048 47.8988 82.4232 47.8988 81.2229C47.8988 76.9107 44.8758 73.8285 40.371 73.8285C35.6736 73.8285 32.6951 77.0737 32.6951 82.1861C32.6951 87.3281 35.6143 90.3955 40.5785 90.3955ZM36.9924 80.4523C37.1406 78.4222 38.5187 77.0293 40.4155 77.0293C42.3122 77.0293 43.6459 78.3777 43.7348 80.4523H36.9924ZM57.5225 90.3955C61.7161 90.3955 64.5464 88.3506 64.5464 85.1942C64.5464 82.8233 63.1535 81.5785 59.7749 80.8672L57.152 80.3041C55.5664 79.9633 54.9441 79.415 54.9441 78.5852C54.9441 77.5627 55.9665 76.8663 57.4336 76.8663C58.9895 76.8663 59.849 77.6072 60.6047 78.5704C60.99 79.0298 61.6124 79.2372 62.1755 79.2372C63.2869 79.2372 63.8351 78.6297 63.8351 77.7554C63.8351 77.5479 63.7907 77.3405 63.7314 77.1182C63.2128 75.3251 60.7974 73.8285 57.5077 73.8285C53.3881 73.8285 50.7653 75.7845 50.7653 78.8223C50.7653 81.1784 52.336 82.764 55.4479 83.4308L58.1152 83.9939C59.6712 84.3348 60.2194 84.7941 60.2194 85.6536C60.2194 86.7057 59.197 87.3577 57.6262 87.3577C55.9814 87.3577 55.0033 86.8539 54.1587 85.7425C53.566 85.0757 52.9732 84.7645 52.2768 84.7645C51.2691 84.7645 50.5282 85.4313 50.5282 86.4242C50.5282 86.6613 50.5874 86.9428 50.6912 87.2244C51.4469 89.0915 53.8771 90.3955 57.5225 90.3955ZM74.8518 90.3955C77.8896 90.3955 80.6013 88.884 81.5497 86.7205C81.7424 86.2908 81.8313 85.9352 81.8313 85.5943C81.8313 84.5274 81.0163 83.8606 80.0086 83.8606C79.0899 83.8606 78.6157 84.231 78.0377 85.135C77.3709 86.2612 76.4373 87.0021 74.9259 87.0021C72.7624 87.0021 71.4139 85.2239 71.4139 82.0972C71.4139 79.0298 72.7624 77.2219 74.9555 77.2219C76.3336 77.2219 77.2968 77.8591 78.0822 79.252C78.5268 80.0374 79.0454 80.3782 79.9049 80.3782C80.9273 80.3782 81.7572 79.7559 81.7572 78.6889C81.7572 78.3777 81.6683 77.9925 81.5201 77.622C80.6606 75.3696 78.0081 73.8285 74.8221 73.8285C70.0506 73.8285 67.0276 77.0293 67.0276 82.112C67.0276 87.254 70.0654 90.3955 74.8518 90.3955ZM90.6992 90.3511C93.0998 90.3511 94.6706 89.1952 95.4559 87.1947H95.5448V88.1727C95.5448 89.6101 96.3895 90.3659 97.6342 90.3659C98.879 90.3659 99.7236 89.6101 99.7236 88.1727V76.1105C99.7236 74.6287 98.8345 73.8433 97.5602 73.8433C96.3006 73.8433 95.3967 74.6287 95.3967 76.1105V83.2678C95.3967 85.3721 94.1964 86.7502 92.27 86.7502C90.3584 86.7502 89.3063 85.624 89.3063 83.5049V76.1105C89.3063 74.6287 88.4172 73.8433 87.1428 73.8433C85.8832 73.8433 84.9793 74.6287 84.9793 76.1105V84.4089C84.9793 88.1135 87.2613 90.3511 90.6992 90.3511ZM110.755 90.3955C113.823 90.3955 116.282 89.2397 117.334 87.2836C117.527 86.928 117.631 86.5724 117.631 86.2315C117.631 85.2387 116.875 84.646 115.942 84.646C115.378 84.646 114.993 84.809 114.534 85.2831C113.363 86.6613 112.326 87.1947 110.74 87.1947C108.547 87.1947 107.125 85.6536 107.125 83.2975V83.1048H116.193C117.394 83.1048 118.075 82.4232 118.075 81.2229C118.075 76.9107 115.052 73.8285 110.548 73.8285C105.85 73.8285 102.872 77.0737 102.872 82.1861C102.872 87.3281 105.791 90.3955 110.755 90.3955ZM107.169 80.4523C107.317 78.4222 108.695 77.0293 110.592 77.0293C112.489 77.0293 113.823 78.3777 113.911 80.4523H107.169Z" fill="#7E3822"/>
<path d="M61.8828 54.6718C62.5602 55.7861 64.2296 57.3463 65.4882 54.6718" stroke="#1B0701" stroke-width="0.954438" stroke-linecap="round"/>
<path d="M65.4883 54.6718C66.1657 55.7861 67.8351 57.3463 69.0937 54.6718" stroke="#1B0701" stroke-width="0.954438" stroke-linecap="round"/>
</svg>
