<svg width="138" height="94" viewBox="0 0 138 94" fill="none" xmlns="http://www.w3.org/2000/svg">
<path d="M95.162 9.92016C76.2053 -4.72336 53.4122 3.81869 44.3853 9.92016C29.7164 7.58392 0.830124 6.35698 2.63552 20.1391C4.51564 25.1639 10.4064 37.5706 23.9468 43.6003C15.296 61.1869 13.2407 95.0795 69.208 93.3567C89.8958 94.799 127.886 87.022 114.344 44.3755C161.285 8.19741 121.115 6.33107 95.162 9.92016Z" fill="#858B86"/>
<path d="M116.73 55.7753C116.188 96.4085 96.1649 82.2673 84.4022 68.114C83.0553 66.4934 82.9367 64.166 84.1885 62.4708C95.7604 46.7995 110.508 51.2791 116.73 55.7753Z" fill="#6C6C6C"/>
<path d="M18.8872 55.7753C19.429 96.4085 39.4523 82.2673 51.215 68.114C52.5619 66.4934 52.6805 64.166 51.4287 62.4708C39.8568 46.7995 25.1097 51.2791 18.8872 55.7753Z" fill="#6C6C6C"/>
<path d="M45.2779 44.7149C44.7472 47.1904 46.3237 49.6273 48.7991 50.1581C51.2746 50.6888 55.3833 51.0335 55.914 48.558C56.4447 46.0826 53.1965 41.7244 50.7211 41.1937C48.2456 40.663 45.8086 42.2395 45.2779 44.7149Z" fill="#19618A"/>
<path d="M46.8672 10.4936C49.4139 30.8671 76.9181 57.8619 92.7075 9.47498C86.6572 1.84408 66.5739 -7.82059 46.8672 10.4936Z" fill="#6C6C6C"/>
<path d="M57.0547 6.02759L57.0547 37.622" stroke="#444348" stroke-width="4.51349" stroke-linecap="round"/>
<path d="M70.5938 3.77075V39.8786" stroke="#444348" stroke-width="4.51349" stroke-linecap="round"/>
<path d="M84.1367 6.02759L84.1367 37.622" stroke="#444348" stroke-width="4.51349" stroke-linecap="round"/>
<path d="M33.8937 26.283C17.7693 48.3542 2.16989 92.4967 68.7674 92.4967" stroke="#1B0701" stroke-width="3" stroke-linecap="round"/>
<path d="M102.622 26.283C118.746 48.3542 134.346 92.4967 67.7482 92.4967" stroke="#1B0701" stroke-width="3" stroke-linecap="round"/>
<path d="M44.3828 10.308C53.4098 3.91385 76.2029 -5.0379 95.1595 10.308C121.112 6.54672 161.282 8.50258 114.342 46.4159" stroke="#1B0701" stroke-width="3" stroke-linecap="round"/>
<path d="M43.4727 10.3079C17.5201 6.54667 -23.5028 7.21549 23.4374 45.1288" stroke="#1B0701" stroke-width="3" stroke-linecap="round"/>
<path d="M90.5463 44.7149C91.077 47.1904 89.5005 49.6273 87.0251 50.1581C84.5497 50.6888 80.4409 51.0335 79.9102 48.558C79.3795 46.0826 82.6277 41.7244 85.1032 41.1937C87.5786 40.663 90.0156 42.2395 90.5463 44.7149Z" fill="#19618A"/>
<path d="M91.7773 64.4691L106.446 62.2124" stroke="#1B0701" stroke-width="2.25674" stroke-linecap="round"/>
<path d="M92.9012 69.9234L101.932 72.3685" stroke="#1B0701" stroke-width="2.25674" stroke-linecap="round"/>
<path d="M42.1289 64.4691L27.4601 62.2124" stroke="#1B0701" stroke-width="2.25674" stroke-linecap="round"/>
<path d="M41.005 69.9234L31.9747 72.3685" stroke="#1B0701" stroke-width="2.25674" stroke-linecap="round"/>
<ellipse cx="68.0122" cy="56.5022" rx="9.00442" ry="4.50221" fill="#444348"/>
<path d="M59 56.5022C62.3767 59.8789 70.5 63.6494 76.5 56.5022" stroke="#1B0701" stroke-width="2.2511" stroke-linecap="round"/>
<path d="M68.0156 60.6494L68.0156 68.6494" stroke="#1B0701" stroke-width="2.2511" stroke-linecap="round"/>
<path d="M61.0156 68.6494C62.4156 70.1587 65.7756 72.2716 68.0156 68.6494" stroke="#1B0701" stroke-width="2.25" stroke-linecap="round"/>
<path d="M68.0156 68.6494C69.4156 70.1587 72.7756 72.2716 75.0156 68.6494" stroke="#1B0701" stroke-width="2.25" stroke-linecap="round"/>
</svg>
