<svg width="116" height="49" viewBox="0 0 116 49" fill="none" xmlns="http://www.w3.org/2000/svg">
<path d="M96.8173 10.2927L111.429 38.7253C113.516 42.7883 110.566 47.6211 105.998 47.6211H10.0017C5.4336 47.6211 2.48353 42.7883 4.57145 38.7253L19.5199 9.63644C21.4046 5.96893 25.1818 3.66321 29.3053 3.66321H85.9569C90.5334 3.66321 94.7256 6.22225 96.8173 10.2927Z" fill="#B8CE7B" stroke="#1B0701" stroke-width="1.22105" stroke-linecap="round"/>
<circle cx="45.7882" cy="17.7053" r="3.05263" fill="#8A3920" stroke="#1B0701" stroke-width="1.22105"/>
<path d="M94.5498 39.6842L108.064 48.2316H7.9375L23.2943 39.6842H30.0513H94.5498Z" fill="#94A663"/>
<circle cx="50.6749" cy="14.0421" r="3.05263" fill="#8A3920" stroke="#1B0701" stroke-width="1.22105"/>
<circle cx="39.6827" cy="18.9263" r="3.05263" fill="#8A3920" stroke="#1B0701" stroke-width="1.22105"/>
<circle cx="44.5694" cy="20.1474" r="3.05263" fill="#8A3920" stroke="#1B0701" stroke-width="1.22105"/>
<circle cx="50.6749" cy="20.1474" r="3.05263" fill="#8A3920" stroke="#1B0701" stroke-width="1.22105"/>
<path d="M96.8173 10.2927L111.429 38.7253C113.516 42.7883 110.566 47.6211 105.998 47.6211H10.0017C5.4336 47.6211 2.48353 42.7883 4.57145 38.7253L19.5199 9.63644C21.4046 5.96893 25.1818 3.66321 29.3053 3.66321H85.9569C90.5334 3.66321 94.7256 6.22225 96.8173 10.2927Z" stroke="#1B0701" stroke-width="1.22105" stroke-linecap="round"/>
<path d="M89.7454 12.821C89.7454 18.8904 74.985 23.8105 56.777 23.8105C38.5691 23.8105 23.8086 18.8904 23.8086 12.821" stroke="#1B0701" stroke-width="1.22105"/>
<circle cx="29.9171" cy="15.2631" r="3.05263" fill="#8A3920" stroke="#1B0701" stroke-width="1.22105"/>
<circle cx="34.7999" cy="11.6" r="3.05263" fill="#8A3920" stroke="#1B0701" stroke-width="1.22105"/>
<circle cx="34.7999" cy="17.7053" r="3.05263" fill="#8A3920" stroke="#1B0701" stroke-width="1.22105"/>
<circle cx="39.6827" cy="15.2631" r="3.05263" fill="#8A3920" stroke="#1B0701" stroke-width="1.22105"/>
<circle cx="44.5694" cy="11.6" r="3.05263" fill="#8A3920" stroke="#1B0701" stroke-width="1.22105"/>
<circle cx="70.21" cy="20.1474" r="3.05263" fill="#8A3920" stroke="#1B0701" stroke-width="1.22105"/>
<circle cx="50.6749" cy="18.9263" r="3.05263" fill="#8A3920" stroke="#1B0701" stroke-width="1.22105"/>
<circle cx="55.5577" cy="15.2631" r="3.05263" fill="#8A3920" stroke="#1B0701" stroke-width="1.22105"/>
<circle cx="66.546" cy="15.2631" r="3.05263" fill="#8A3920" stroke="#1B0701" stroke-width="1.22105"/>
<circle cx="65.3272" cy="17.7053" r="3.05263" fill="#8A3920" stroke="#1B0701" stroke-width="1.22105"/>
<circle cx="65.3272" cy="9.15791" r="3.05263" fill="#8A3920" stroke="#1B0701" stroke-width="1.22105"/>
<circle cx="71.4327" cy="16.4842" r="3.05263" fill="#8A3920" stroke="#1B0701" stroke-width="1.22105"/>
<circle cx="76.3155" cy="12.821" r="3.05263" fill="#8A3920" stroke="#1B0701" stroke-width="1.22105"/>
<circle cx="55.5577" cy="20.1474" r="3.05263" fill="#8A3920" stroke="#1B0701" stroke-width="1.22105"/>
<circle cx="60.4405" cy="20.1474" r="3.05263" fill="#8A3920" stroke="#1B0701" stroke-width="1.22105"/>
<circle cx="60.4405" cy="16.4842" r="3.05263" fill="#8A3920" stroke="#1B0701" stroke-width="1.22105"/>
<circle cx="73.8741" cy="18.9263" r="3.05263" fill="#8A3920" stroke="#1B0701" stroke-width="1.22105"/>
<circle cx="77.5382" cy="18.9263" r="3.05263" fill="#8A3920" stroke="#1B0701" stroke-width="1.22105"/>
<circle cx="78.7569" cy="14.0421" r="3.05263" fill="#8A3920" stroke="#1B0701" stroke-width="1.22105"/>
<circle cx="82.421" cy="16.4842" r="3.05263" fill="#8A3920" stroke="#1B0701" stroke-width="1.22105"/>
<circle cx="84.8624" cy="14.0421" r="3.05263" fill="#8A3920" stroke="#1B0701" stroke-width="1.22105"/>
<circle cx="72.6514" cy="15.2631" r="3.05263" fill="#8A3920" stroke="#1B0701" stroke-width="1.22105"/>
<circle cx="68.9892" cy="4.8842" r="3.05263" transform="rotate(-180 68.9892 4.8842)" fill="#8A3920" stroke="#1B0701" stroke-width="1.22105"/>
<circle cx="64.1064" cy="11.6" r="3.05263" transform="rotate(-180 64.1064 11.6)" fill="#8A3920" stroke="#1B0701" stroke-width="1.22105"/>
<circle cx="75.0947" cy="3.66314" r="3.05263" transform="rotate(-180 75.0947 3.66314)" fill="#8A3920" stroke="#1B0701" stroke-width="1.22105"/>
<circle cx="64.1064" cy="5.49468" r="3.05263" transform="rotate(-180 64.1064 5.49468)" fill="#8A3920" stroke="#1B0701" stroke-width="1.22105"/>
<circle cx="79.9775" cy="10.9894" r="3.05263" transform="rotate(-180 79.9775 10.9894)" fill="#8A3920" stroke="#1B0701" stroke-width="1.22105"/>
<circle cx="82.4228" cy="9.15789" r="3.05263" transform="rotate(-180 82.4228 9.15789)" fill="#8A3920" stroke="#1B0701" stroke-width="1.22105"/>
<circle cx="75.0947" cy="7.32634" r="3.05263" transform="rotate(-180 75.0947 7.32634)" fill="#8A3920" stroke="#1B0701" stroke-width="1.22105"/>
<circle cx="70.2118" cy="10.9894" r="3.05263" transform="rotate(-180 70.2118 10.9894)" fill="#8A3920" stroke="#1B0701" stroke-width="1.22105"/>
<circle cx="51.8954" cy="4.27373" r="3.05263" transform="rotate(-180 51.8954 4.27373)" fill="#8A3920" stroke="#1B0701" stroke-width="1.22105"/>
<circle cx="59.2197" cy="7.93682" r="3.05263" transform="rotate(-180 59.2197 7.93682)" fill="#8A3920" stroke="#1B0701" stroke-width="1.22105"/>
<circle cx="58.0009" cy="11.6" r="3.05263" transform="rotate(-180 58.0009 11.6)" fill="#8A3920" stroke="#1B0701" stroke-width="1.22105"/>
<circle cx="48.2314" cy="7.32634" r="3.05263" transform="rotate(-180 48.2314 7.32634)" fill="#8A3920" stroke="#1B0701" stroke-width="1.22105"/>
<circle cx="56.7782" cy="6.71575" r="3.05263" transform="rotate(-180 56.7782 6.71575)" fill="#8A3920" stroke="#1B0701" stroke-width="1.22105"/>
<circle cx="49.454" cy="13.4316" r="3.05263" transform="rotate(-180 49.454 13.4316)" fill="#8A3920" stroke="#1B0701" stroke-width="1.22105"/>
<circle cx="43.3486" cy="6.10527" r="3.05263" transform="rotate(-180 43.3486 6.10527)" fill="#8A3920" stroke="#1B0701" stroke-width="1.22105"/>
<circle cx="38.4618" cy="9.76836" r="3.05263" transform="rotate(-180 38.4618 9.76836)" fill="#8A3920" stroke="#1B0701" stroke-width="1.22105"/>
<circle cx="53.1142" cy="9.15789" r="3.05263" transform="rotate(-180 53.1142 9.15789)" fill="#8A3920" stroke="#1B0701" stroke-width="1.22105"/>
<circle cx="40.9072" cy="3.66314" r="3.05263" transform="rotate(-180 40.9072 3.66314)" fill="#8A3920" stroke="#1B0701" stroke-width="1.22105"/>
<circle cx="31.1376" cy="9.15789" r="3.05263" transform="rotate(-180 31.1376 9.15789)" fill="#8A3920" stroke="#1B0701" stroke-width="1.22105"/>
<circle cx="36.0204" cy="8.54741" r="3.05263" transform="rotate(-180 36.0204 8.54741)" fill="#8A3920" stroke="#1B0701" stroke-width="1.22105"/>
<circle cx="42.1259" cy="7.32634" r="3.05263" transform="rotate(-180 42.1259 7.32634)" fill="#8A3920" stroke="#1B0701" stroke-width="1.22105"/>
<circle cx="65.3272" cy="20.1474" r="3.05263" fill="#8A3920" stroke="#1B0701" stroke-width="1.22105"/>
</svg>
