<svg width="240" height="191" viewBox="0 0 240 191" fill="none" xmlns="http://www.w3.org/2000/svg">
<circle cx="187.131" cy="97.913" r="25.4105" fill="#F7FCF8"/>
<circle cx="45.9632" cy="97.913" r="25.4105" fill="#F7FCF8"/>
<rect x="8.12891" y="116.547" width="225.871" height="66.6319" rx="22.5871" fill="#F7FCF8"/>
<circle cx="119.934" cy="82.6667" r="75.6667" fill="#F7FCF8"/>
<path d="M134.861 51.3003C122.082 42.781 111.196 47.7506 107.35 51.3003C103.505 45.0883 92.9738 33.1965 81.6147 35.3264C78.6565 37.9887 74.8702 48.993 83.3895 71.7113C76.8807 86.7977 75.5772 116.97 122.434 116.97C139.889 117.266 171.426 108.629 157.934 71.7113C165.034 51.3003 163.555 41.2426 159.709 35.3264C145.51 36.0363 136.932 44.7924 134.861 51.3003Z" fill="#FFFCF3"/>
<path d="M106.463 52.3906C111.913 66.1109 125.223 85.3193 134.861 52.3906C130.845 47.3598 119.543 40.3167 106.463 52.3906Z" fill="#FFE38F"/>
<path d="M134.871 91.707C143.8 103.464 161.772 118.401 162.23 84.0938C157.012 80.3238 144.236 76.5684 134.871 91.707Z" fill="#FFE38F"/>
<path d="M106.758 91.707C97.8288 103.464 79.8567 118.401 79.3993 84.0938C84.6168 80.3238 97.3931 76.5684 106.758 91.707Z" fill="#FFE38F"/>
<ellipse cx="121.549" cy="88.5728" rx="7.09949" ry="3.54975" fill="#FEC6C6"/>
<path d="M114.447 88.5729C117.11 91.2352 123.499 94.9624 127.759 88.5729" stroke="#1B0701" stroke-width="1.77487" stroke-linecap="round"/>
<path d="M121.547 92.1226V100.997" stroke="#1B0701" stroke-width="1.77487" stroke-linecap="round"/>
<ellipse cx="106.463" cy="80.5859" rx="4.43718" ry="2.66231" transform="rotate(-90 106.463 80.5859)" fill="black"/>
<ellipse cx="134.86" cy="80.5859" rx="4.43718" ry="2.66231" transform="rotate(-90 134.86 80.5859)" fill="black"/>
<path d="M111.104 50.7153L111.104 70.9045" stroke="#444348" stroke-width="3.54975" stroke-linecap="round"/>
<path d="M121.754 47.4985V72.3468" stroke="#444348" stroke-width="3.54975" stroke-linecap="round"/>
<path d="M132.402 50.7153L132.402 70.9045" stroke="#444348" stroke-width="3.54975" stroke-linecap="round"/>
<path d="M142.848 92.1227L154.384 90.3478" stroke="#1B0701" stroke-width="1.77487" stroke-linecap="round"/>
<path d="M143.733 96.4115L150.835 98.3345" stroke="#1B0701" stroke-width="1.77487" stroke-linecap="round"/>
<path d="M99.3652 92.1227L87.8286 90.3478" stroke="#1B0701" stroke-width="1.77487" stroke-linecap="round"/>
<path d="M98.4779 96.4115L91.3758 98.3345" stroke="#1B0701" stroke-width="1.77487" stroke-linecap="round"/>
<path d="M107.354 51.3007C111.199 47.751 122.085 42.7814 134.864 51.3007C136.935 44.7928 145.513 36.0367 159.712 35.3268C163.558 41.243 165.037 51.3007 157.937 71.7117" stroke="#1B0701" stroke-width="2.66231" stroke-linecap="round"/>
<path d="M106.467 51.3006C104.396 44.7927 95.8176 36.0367 81.6186 35.3268C77.773 41.243 75.4065 51.3006 83.3935 71.7117" stroke="#1B0701" stroke-width="2.66231" stroke-linecap="round"/>
<path d="M83.3932 71.7118C76.8854 86.7982 75.4063 116.971 121.553 116.971" stroke="#1B0701" stroke-width="2.66231" stroke-linecap="round"/>
<path d="M157.941 71.7118C164.449 86.7982 165.928 116.971 119.781 116.971" stroke="#1B0701" stroke-width="2.66231" stroke-linecap="round"/>
<path d="M48.4507 87.3334C47.131 89.9446 47.5529 92.768 49.4092 93.7062C51.2779 94.6507 53.7889 93.3097 55.1087 90.6985C56.441 88.0625 56.0252 85.2578 54.1565 84.3133C52.2878 83.3689 49.783 84.6975 48.4507 87.3334ZM56.866 91.5867C55.5462 94.1979 55.9557 97.015 57.8244 97.9594C59.6807 98.8977 62.2042 97.5629 63.5239 94.9517C64.8562 92.3158 64.4281 89.5048 62.5718 88.5665C60.7031 87.6221 58.1983 88.9507 56.866 91.5867ZM38.3674 91.6679C37.0352 94.3038 37.4509 97.1086 39.2949 98.0405C41.1759 98.9912 43.687 97.6502 45.013 95.0267C46.3328 92.4155 45.9233 89.5983 44.0422 88.6476C42.1983 87.7157 39.6872 89.0567 38.3674 91.6679ZM59.3684 102.282C58.0424 104.906 58.4519 107.723 60.3206 108.667C62.1769 109.606 64.6817 108.277 66.014 105.641C67.3337 103.03 66.9242 100.213 65.0679 99.2744C63.1993 98.33 60.6882 99.671 59.3684 102.282ZM37.4165 103.632C36.028 106.379 36.8836 109.267 39.5691 110.624C40.8685 111.281 42.0028 111.403 43.0068 111.538C43.8373 111.647 44.5748 111.756 45.3668 112.156C46.1464 112.55 46.6836 113.086 47.2516 113.683C47.9553 114.412 48.7269 115.252 50.0263 115.909C52.7117 117.266 55.5439 116.243 56.9325 113.496C58.0771 111.231 57.2976 109.361 56.573 107.721C56.1614 106.814 55.7806 105.969 55.6728 105.075C55.5829 104.362 55.5799 103.63 55.6081 102.836C55.6619 100.424 55.9075 98.1248 53.1602 96.7362C50.4005 95.3414 48.6946 96.903 46.7968 98.383C46.1622 98.8702 45.5775 99.2893 44.962 99.6463C44.1725 100.102 43.2539 100.29 42.2794 100.497C40.529 100.886 38.5611 101.367 37.4165 103.632Z" fill="#F39ABB"/>
<path d="M172.92 96.9016C174.702 99.2221 177.429 100.065 179.079 98.798C180.74 97.5228 180.619 94.6786 178.837 92.3581C177.038 90.0156 174.33 89.1755 172.669 90.4507C171.009 91.7259 171.121 94.5591 172.92 96.9016ZM180.398 91.1589C182.18 93.4794 184.897 94.3305 186.558 93.0553C188.207 91.7885 188.097 88.9359 186.315 86.6154C184.516 84.2729 181.797 83.4412 180.148 84.708C178.487 85.9832 178.6 88.8164 180.398 91.1589ZM172.459 107.867C174.258 110.21 176.966 111.05 178.605 109.792C180.277 108.508 180.155 105.664 178.365 103.332C176.583 101.012 173.867 100.161 172.195 101.444C170.556 102.703 170.677 105.547 172.459 107.867ZM191.122 93.5359C192.913 95.8674 195.629 96.7185 197.29 95.4433C198.94 94.1765 198.827 91.3434 197.028 89.0009C195.246 86.6803 192.53 85.8293 190.88 87.096C189.22 88.3712 189.341 91.2154 191.122 93.5359ZM182.831 113.907C184.706 116.348 187.679 116.827 190.065 114.995C191.22 114.108 191.822 113.139 192.378 112.292C192.836 111.591 193.254 110.973 193.957 110.433C194.65 109.901 195.366 109.648 196.151 109.395C197.112 109.077 198.204 108.745 199.359 107.859C201.745 106.026 202.049 103.03 200.175 100.589C198.629 98.5759 196.606 98.4686 194.814 98.4113C193.818 98.3893 192.891 98.3665 192.039 98.0767C191.357 97.8487 190.696 97.5345 189.993 97.1653C187.843 96.072 185.876 94.8546 183.435 96.7295C180.982 98.6127 181.651 100.827 182.163 103.178C182.327 103.961 182.452 104.67 182.507 105.379C182.575 106.288 182.347 107.198 182.111 108.165C181.704 109.912 181.286 111.894 182.831 113.907Z" fill="#F39ABB"/>
<path d="M39.0454 167.254L30.8011 152.29H28.4859V167.254H18.8299V127.613H35.0361C38.1607 127.613 40.8147 128.159 42.9981 129.251C45.2192 130.343 46.8755 131.849 47.9672 133.768C49.059 135.651 49.6048 137.759 49.6048 140.093C49.6048 142.728 48.8519 145.081 47.3461 147.151C45.8779 149.222 43.6945 150.69 40.7959 151.556L49.9436 167.254H39.0454ZM28.4859 145.457H34.4715C36.2408 145.457 37.5584 145.024 38.4242 144.158C39.3277 143.293 39.7794 142.069 39.7794 140.488C39.7794 138.982 39.3277 137.796 38.4242 136.931C37.5584 136.065 36.2408 135.632 34.4715 135.632H28.4859V145.457ZM85.3683 150.991C85.3683 151.895 85.3118 152.836 85.1989 153.814H63.3459C63.4964 155.772 64.1176 157.278 65.2093 158.332C66.3387 159.348 67.7127 159.857 69.3314 159.857C71.7407 159.857 73.4159 158.84 74.3571 156.807H84.6342C84.1072 158.878 83.1472 160.741 81.7543 162.398C80.3991 164.054 78.6863 165.353 76.6158 166.294C74.5453 167.235 72.2301 167.706 69.6702 167.706C66.5833 167.706 63.8353 167.047 61.426 165.729C59.0167 164.412 57.1344 162.529 55.7792 160.082C54.424 157.635 53.7464 154.774 53.7464 151.499C53.7464 148.224 54.4051 145.363 55.7227 142.916C57.078 140.469 58.9602 138.587 61.3695 137.269C63.7788 135.952 66.5457 135.293 69.6702 135.293C72.7195 135.293 75.43 135.933 77.8016 137.213C80.1732 138.493 82.0179 140.319 83.3354 142.69C84.6907 145.062 85.3683 147.829 85.3683 150.991ZM75.4864 148.45C75.4864 146.794 74.9217 145.476 73.7924 144.497C72.663 143.519 71.2513 143.029 69.5573 143.029C67.9386 143.029 66.5645 143.5 65.4352 144.441C64.3435 145.382 63.6659 146.718 63.4023 148.45H75.4864ZM103.28 167.706C100.532 167.706 98.0854 167.235 95.9396 166.294C93.7939 165.353 92.0998 164.073 90.8575 162.454C89.6153 160.798 88.9188 158.953 88.7682 156.92H98.3113C98.4242 158.012 98.9324 158.897 99.8359 159.574C100.739 160.252 101.85 160.591 103.168 160.591C104.372 160.591 105.294 160.365 105.934 159.913C106.612 159.424 106.951 158.802 106.951 158.05C106.951 157.146 106.48 156.487 105.539 156.073C104.598 155.621 103.073 155.132 100.965 154.605C98.7066 154.078 96.8243 153.532 95.3185 152.967C93.8127 152.365 92.5139 151.443 91.4222 150.201C90.3305 148.921 89.7847 147.208 89.7847 145.062C89.7847 143.255 90.274 141.617 91.2528 140.149C92.2692 138.643 93.7374 137.458 95.6573 136.592C97.6148 135.726 99.93 135.293 102.603 135.293C106.556 135.293 109.661 136.272 111.92 138.229C114.216 140.187 115.534 142.784 115.873 146.022H106.951C106.8 144.93 106.311 144.064 105.483 143.424C104.692 142.784 103.638 142.464 102.32 142.464C101.191 142.464 100.325 142.69 99.723 143.142C99.1207 143.556 98.8195 144.14 98.8195 144.893C98.8195 145.796 99.2901 146.474 100.231 146.925C101.21 147.377 102.716 147.829 104.749 148.281C107.083 148.883 108.984 149.485 110.452 150.088C111.92 150.652 113.2 151.593 114.292 152.911C115.421 154.191 116.004 155.923 116.042 158.106C116.042 159.951 115.515 161.607 114.461 163.075C113.445 164.506 111.958 165.635 110 166.463C108.08 167.291 105.84 167.706 103.28 167.706ZM120.03 151.499C120.03 148.224 120.689 145.363 122.006 142.916C123.361 140.469 125.225 138.587 127.596 137.269C130.006 135.952 132.754 135.293 135.841 135.293C139.793 135.293 143.087 136.328 145.723 138.399C148.395 140.469 150.146 143.387 150.974 147.151H140.697C139.831 144.742 138.156 143.537 135.671 143.537C133.902 143.537 132.49 144.234 131.436 145.627C130.382 146.982 129.855 148.939 129.855 151.499C129.855 154.059 130.382 156.036 131.436 157.428C132.49 158.784 133.902 159.461 135.671 159.461C138.156 159.461 139.831 158.257 140.697 155.847H150.974C150.146 159.537 148.395 162.435 145.723 164.543C143.05 166.651 139.756 167.706 135.841 167.706C132.754 167.706 130.006 167.047 127.596 165.729C125.225 164.412 123.361 162.529 122.006 160.082C120.689 157.635 120.03 154.774 120.03 151.499ZM187.253 135.745V167.254H177.597V162.962C176.618 164.355 175.282 165.484 173.588 166.35C171.931 167.178 170.087 167.593 168.054 167.593C165.644 167.593 163.517 167.066 161.673 166.011C159.828 164.92 158.398 163.358 157.381 161.325C156.365 159.292 155.857 156.901 155.857 154.153V135.745H165.456V152.855C165.456 154.963 166.002 156.6 167.094 157.767C168.185 158.934 169.654 159.518 171.498 159.518C173.381 159.518 174.867 158.934 175.959 157.767C177.051 156.6 177.597 154.963 177.597 152.855V135.745H187.253ZM223.891 150.991C223.891 151.895 223.834 152.836 223.721 153.814H201.868C202.019 155.772 202.64 157.278 203.732 158.332C204.861 159.348 206.235 159.857 207.854 159.857C210.263 159.857 211.938 158.84 212.879 156.807H223.157C222.629 158.878 221.67 160.741 220.277 162.398C218.921 164.054 217.209 165.353 215.138 166.294C213.068 167.235 210.752 167.706 208.193 167.706C205.106 167.706 202.358 167.047 199.948 165.729C197.539 164.412 195.657 162.529 194.302 160.082C192.946 157.635 192.269 154.774 192.269 151.499C192.269 148.224 192.927 145.363 194.245 142.916C195.6 140.469 197.483 138.587 199.892 137.269C202.301 135.952 205.068 135.293 208.193 135.293C211.242 135.293 213.952 135.933 216.324 137.213C218.696 138.493 220.54 140.319 221.858 142.69C223.213 145.062 223.891 147.829 223.891 150.991ZM214.009 148.45C214.009 146.794 213.444 145.476 212.315 144.497C211.185 143.519 209.774 143.029 208.08 143.029C206.461 143.029 205.087 143.5 203.957 144.441C202.866 145.382 202.188 146.718 201.925 148.45H214.009Z" fill="#7E3822"/>
<mask id="path-28-outside-1_1423_8464" maskUnits="userSpaceOnUse" x="0" y="0" width="240" height="191" fill="black">
<rect fill="white" width="240" height="191"/>
<path fill-rule="evenodd" clip-rule="evenodd" d="M43.2636 72.6443C44.2302 72.5422 45.0335 71.8157 45.184 70.8555C50.855 34.676 82.1626 7 119.934 7C157.86 7 189.268 34.9016 194.753 71.2974C194.9 72.2762 195.725 73.0143 196.711 73.1027C209.667 74.2652 219.821 85.152 219.821 98.4105C219.821 103.969 218.036 109.111 215.008 113.294C214.001 114.686 214.807 116.933 216.459 117.402C225.932 120.088 232.871 128.801 232.871 139.134V160.592C232.871 173.067 222.758 183.179 210.284 183.179H29.5871C17.1126 183.179 7 173.067 7 160.592V139.134C7 128.612 14.1953 119.77 23.9342 117.26C25.6598 116.816 26.5482 114.404 25.4913 112.969C22.3871 108.755 20.5527 103.548 20.5527 97.913C20.5527 84.7911 30.499 73.9922 43.2636 72.6443Z"/>
</mask>
<path fill-rule="evenodd" clip-rule="evenodd" d="M43.2636 72.6443C44.2302 72.5422 45.0335 71.8157 45.184 70.8555C50.855 34.676 82.1626 7 119.934 7C157.86 7 189.268 34.9016 194.753 71.2974C194.9 72.2762 195.725 73.0143 196.711 73.1027C209.667 74.2652 219.821 85.152 219.821 98.4105C219.821 103.969 218.036 109.111 215.008 113.294C214.001 114.686 214.807 116.933 216.459 117.402C225.932 120.088 232.871 128.801 232.871 139.134V160.592C232.871 173.067 222.758 183.179 210.284 183.179H29.5871C17.1126 183.179 7 173.067 7 160.592V139.134C7 128.612 14.1953 119.77 23.9342 117.26C25.6598 116.816 26.5482 114.404 25.4913 112.969C22.3871 108.755 20.5527 103.548 20.5527 97.913C20.5527 84.7911 30.499 73.9922 43.2636 72.6443Z" fill="#F7FCF8"/>
<path d="M23.9342 117.26L25.6809 124.039L23.9342 117.26ZM25.4913 112.969L31.1271 108.817L25.4913 112.969ZM215.008 113.294L209.338 109.19L215.008 113.294ZM216.459 117.402L218.369 110.667L216.459 117.402ZM194.753 71.2974L187.831 72.3405L194.753 71.2974ZM196.711 73.1027L197.336 66.1307L196.711 73.1027ZM43.2636 72.6443L43.9987 79.6056L43.2636 72.6443ZM52.0996 71.9395C57.245 39.1129 85.6635 14 119.934 14V0C78.6618 0 44.465 30.2391 38.2684 69.7715L52.0996 71.9395ZM119.934 14C154.345 14 182.855 39.3179 187.831 72.3405L201.674 70.2544C195.682 30.4853 161.374 0 119.934 0V14ZM226.821 98.4105C226.821 81.4958 213.869 67.6141 197.336 66.1307L196.085 80.0747C205.465 80.9163 212.821 88.8082 212.821 98.4105H226.821ZM220.678 117.399C224.542 112.062 226.821 105.492 226.821 98.4105H212.821C212.821 102.447 211.53 106.161 209.338 109.19L220.678 117.399ZM239.871 139.134C239.871 125.588 230.774 114.185 218.369 110.667L214.549 124.136C221.09 125.991 225.871 132.014 225.871 139.134H239.871ZM239.871 160.592V139.134H225.871V160.592H239.871ZM210.284 190.179C226.624 190.179 239.871 176.933 239.871 160.592H225.871C225.871 169.201 218.892 176.179 210.284 176.179V190.179ZM29.5871 190.179H210.284V176.179H29.5871V190.179ZM0 160.592C0 176.933 13.2466 190.179 29.5871 190.179V176.179C20.9786 176.179 14 169.201 14 160.592H0ZM0 139.134V160.592H14V139.134H0ZM22.1875 110.482C9.43197 113.769 0 125.341 0 139.134H14C14 131.883 18.9587 125.771 25.6809 124.039L22.1875 110.482ZM13.5527 97.913C13.5527 105.092 15.8952 111.745 19.8554 117.121L31.1271 108.817C28.879 105.765 27.5527 102.004 27.5527 97.913H13.5527ZM42.5285 65.683C26.24 67.403 13.5527 81.1718 13.5527 97.913H27.5527C27.5527 88.4104 34.7579 80.5814 43.9987 79.6056L42.5285 65.683ZM25.6809 124.039C29.2763 123.113 31.4315 120.354 32.3323 117.885C33.2338 115.413 33.3715 111.864 31.1271 108.817L19.8554 117.121C18.6679 115.509 18.8899 113.882 19.1801 113.087C19.4695 112.293 20.3177 110.964 22.1875 110.482L25.6809 124.039ZM209.338 109.19C207.214 112.124 207.255 115.545 208.14 118.037C209.024 120.526 211.127 123.166 214.549 124.136L218.369 110.667C220.139 111.169 221.013 112.451 221.332 113.351C221.653 114.255 221.795 115.856 220.678 117.399L209.338 109.19ZM187.831 72.3405C188.485 76.684 192.062 79.7138 196.085 80.0747L197.336 66.1307C199.387 66.3147 201.315 67.8683 201.674 70.2544L187.831 72.3405ZM38.2684 69.7715C38.6354 67.4305 40.5142 65.8957 42.5285 65.683L43.9987 79.6056C47.9462 79.1887 51.4316 76.2009 52.0996 71.9395L38.2684 69.7715Z" fill="#C17930" mask="url(#path-28-outside-1_1423_8464)"/>
<path d="M50.9941 87.1893C49.6744 89.8005 50.0963 92.6239 51.9526 93.5621C53.8212 94.5066 56.3323 93.1656 57.6521 90.5544C58.9843 87.9184 58.5686 85.1137 56.6999 84.1692C54.8312 83.2247 52.3264 84.5534 50.9941 87.1893ZM59.4094 91.4425C58.0896 94.0537 58.4991 96.8709 60.3678 97.8153C62.2241 98.7535 64.7476 97.4188 66.0673 94.8076C67.3996 92.1716 66.9715 89.3606 65.1152 88.4224C63.2465 87.478 60.7416 88.8066 59.4094 91.4425ZM40.9108 91.5238C39.5786 94.1597 39.9943 96.9645 41.8383 97.8964C43.7193 98.8471 46.2304 97.5061 47.5564 94.8826C48.8762 92.2714 48.4667 89.4542 46.5856 88.5035C44.7417 87.5716 42.2306 88.9126 40.9108 91.5238ZM61.9118 102.138C60.5858 104.762 60.9953 107.579 62.864 108.523C64.7203 109.461 67.2251 108.133 68.5574 105.497C69.8771 102.886 69.4676 100.069 67.6113 99.1303C65.7427 98.1858 63.2316 99.5268 61.9118 102.138ZM39.9599 103.488C38.5714 106.235 39.427 109.123 42.1125 110.48C43.4119 111.137 44.5462 111.259 45.5502 111.394C46.3807 111.503 47.1182 111.612 47.9102 112.012C48.6898 112.406 49.227 112.941 49.795 113.539C50.4987 114.268 51.2703 115.108 52.5697 115.765C55.2551 117.122 58.0873 116.099 59.4759 113.352C60.6205 111.087 59.841 109.217 59.1164 107.577C58.7048 106.67 58.324 105.825 58.2162 104.931C58.1263 104.218 58.1233 103.486 58.1515 102.692C58.2053 100.28 58.4509 97.9807 55.7036 96.5921C52.9439 95.1973 51.238 96.7588 49.3402 98.2389C48.7056 98.7261 48.1209 99.1452 47.5054 99.5022C46.7159 99.9577 45.7973 100.146 44.8228 100.353C43.0724 100.742 41.1045 101.223 39.9599 103.488Z" fill="#F39ABB"/>
<path d="M134.861 51.3003C122.082 42.781 111.196 47.7506 107.35 51.3003C103.505 45.0883 92.9738 33.1965 81.6147 35.3264C78.6565 37.9887 74.8702 48.993 83.3895 71.7113C76.8807 86.7977 75.5772 116.97 122.434 116.97C139.889 117.266 171.426 108.629 157.934 71.7113C165.034 51.3003 163.555 41.2426 159.709 35.3264C145.51 36.0363 136.932 44.7924 134.861 51.3003Z" fill="#858B86"/>
<path d="M106.463 52.3906C111.913 66.1109 125.223 85.3193 134.861 52.3906C130.845 47.3598 119.543 40.3167 106.463 52.3906Z" fill="#6C6C6C"/>
<path d="M134.871 91.707C143.8 103.464 161.772 118.401 162.23 84.0938C157.012 80.3238 144.236 76.5684 134.871 91.707Z" fill="#6C6C6C"/>
<path d="M106.758 91.707C97.8288 103.464 79.8567 118.401 79.3993 84.0938C84.6168 80.3238 97.3931 76.5684 106.758 91.707Z" fill="#6C6C6C"/>
<ellipse cx="121.549" cy="88.5728" rx="7.09949" ry="3.54975" fill="#444348"/>
<path d="M114.287 88.5729C116.949 91.2352 123.339 94.9624 127.599 88.5729" stroke="#1B0701" stroke-width="1.77487" stroke-linecap="round"/>
<path d="M121.387 92.1226V100.997" stroke="#1B0701" stroke-width="1.77487" stroke-linecap="round"/>
<ellipse cx="106.463" cy="80.5859" rx="4.43718" ry="2.66231" transform="rotate(-90 106.463 80.5859)" fill="black"/>
<ellipse cx="134.86" cy="80.5859" rx="4.43718" ry="2.66231" transform="rotate(-90 134.86 80.5859)" fill="black"/>
<path d="M111.104 50.7153L111.104 70.9045" stroke="#444348" stroke-width="3.54975" stroke-linecap="round"/>
<path d="M121.754 47.4985V72.3468" stroke="#444348" stroke-width="3.54975" stroke-linecap="round"/>
<path d="M132.402 50.7153L132.402 70.9045" stroke="#444348" stroke-width="3.54975" stroke-linecap="round"/>
<path d="M142.848 92.1227L154.384 90.3478" stroke="#1B0701" stroke-width="1.77487" stroke-linecap="round"/>
<path d="M143.733 96.4115L150.835 98.3345" stroke="#1B0701" stroke-width="1.77487" stroke-linecap="round"/>
<path d="M99.3652 92.1227L87.8286 90.3478" stroke="#1B0701" stroke-width="1.77487" stroke-linecap="round"/>
<path d="M98.4779 96.4115L91.3758 98.3345" stroke="#1B0701" stroke-width="1.77487" stroke-linecap="round"/>
<path d="M107.354 51.3007C111.199 47.751 122.085 42.7814 134.864 51.3007C136.935 44.7928 145.513 36.0367 159.712 35.3268C163.558 41.243 165.037 51.3007 157.937 71.7117" stroke="#1B0701" stroke-width="3" stroke-linecap="round"/>
<path d="M106.467 51.3006C104.396 44.7927 95.8176 36.0367 81.6186 35.3268C77.773 41.243 75.4065 51.3006 83.3935 71.7117" stroke="#1B0701" stroke-width="3" stroke-linecap="round"/>
<path d="M83.3932 71.7118C76.8854 86.7982 75.4063 116.971 121.553 116.971" stroke="#1B0701" stroke-width="3" stroke-linecap="round"/>
<path d="M157.941 71.7118C164.449 86.7982 165.928 116.971 119.781 116.971" stroke="#1B0701" stroke-width="3" stroke-linecap="round"/>
<path d="M173.289 97.2509C175.07 99.5714 177.798 100.414 179.448 99.1473C181.108 97.8721 180.987 95.0279 179.205 92.7074C177.407 90.3649 174.698 89.5248 173.038 90.8C171.377 92.0752 171.49 94.9084 173.289 97.2509ZM180.767 91.5082C182.549 93.8287 185.265 94.6798 186.926 93.4046C188.576 92.1378 188.466 89.2852 186.684 86.9647C184.885 84.6222 182.166 83.7905 180.516 85.0573C178.856 86.3325 178.968 89.1657 180.767 91.5082ZM172.828 108.217C174.627 110.559 177.335 111.399 178.973 110.141C180.645 108.857 180.524 106.013 178.734 103.682C176.952 101.361 174.235 100.51 172.564 101.794C170.925 103.052 171.046 105.896 172.828 108.217ZM191.491 93.8852C193.281 96.2168 195.998 97.0678 197.659 95.7926C199.308 94.5259 199.196 91.6927 197.397 89.3502C195.615 87.0297 192.898 86.1786 191.249 87.4453C189.588 88.7206 189.709 91.5647 191.491 93.8852ZM183.2 114.256C185.075 116.697 188.048 117.177 190.434 115.344C191.589 114.457 192.191 113.488 192.747 112.641C193.205 111.94 193.622 111.322 194.326 110.782C195.019 110.25 195.734 109.998 196.519 109.745C197.481 109.426 198.572 109.095 199.727 108.208C202.114 106.375 202.418 103.379 200.543 100.938C198.998 98.9252 196.975 98.8179 195.182 98.7606C194.186 98.7386 193.26 98.7158 192.408 98.426C191.726 98.198 191.065 97.8838 190.362 97.5146C188.211 96.4213 186.245 95.2039 183.803 97.0788C181.351 98.962 182.019 101.176 182.532 103.528C182.696 104.311 182.82 105.019 182.875 105.729C182.944 106.637 182.716 107.547 182.48 108.515C182.073 110.261 181.654 112.243 183.2 114.256Z" fill="#F39ABB"/>
<path d="M28.2523 167.738C30.8717 167.738 32.4157 166.139 32.4157 163.409V152.601H39.5017L46.119 164.595C47.4701 167.021 48.38 167.738 50.3652 167.738C52.7915 167.738 54.5561 166.139 54.5561 163.933C54.5561 162.968 54.3631 162.251 53.6738 161.066L47.9388 151.14C52.3228 149.265 54.7767 145.019 54.7767 140.056C54.7767 132.198 49.538 127.373 40.384 127.373H28.2523C25.633 127.373 24.0889 128.972 24.0889 131.702V163.409C24.0889 166.139 25.6605 167.738 28.2523 167.738ZM32.4157 146.563V133.88H39.5017C43.6376 133.88 46.2293 136.361 46.2293 140.221C46.2293 144.164 43.7754 146.563 39.5845 146.563H32.4157ZM74.5856 167.793C80.293 167.793 84.87 165.643 86.8276 162.003C87.1861 161.342 87.3791 160.68 87.3791 160.046C87.3791 158.198 85.9729 157.095 84.2358 157.095C83.1881 157.095 82.4712 157.399 81.6165 158.281C79.4383 160.845 77.5082 161.838 74.558 161.838C70.4774 161.838 67.8304 158.97 67.8304 154.586V154.228H84.7046C86.9379 154.228 88.2062 152.96 88.2062 150.726C88.2062 142.703 82.5815 136.968 74.1996 136.968C65.4592 136.968 59.9172 143.006 59.9172 152.519C59.9172 162.086 65.3489 167.793 74.5856 167.793ZM67.9132 149.293C68.1889 145.515 70.7531 142.923 74.2823 142.923C77.8115 142.923 80.293 145.432 80.4585 149.293H67.9132ZM106.113 167.793C113.916 167.793 119.182 163.989 119.182 158.116C119.182 153.704 116.59 151.388 110.304 150.065L105.423 149.017C102.473 148.383 101.315 147.363 101.315 145.818C101.315 143.916 103.218 142.62 105.947 142.62C108.842 142.62 110.441 143.999 111.848 145.791C112.565 146.646 113.723 147.032 114.77 147.032C116.838 147.032 117.858 145.901 117.858 144.274C117.858 143.888 117.776 143.502 117.665 143.089C116.7 139.753 112.206 136.968 106.085 136.968C98.42 136.968 93.5398 140.607 93.5398 146.26C93.5398 150.644 96.4624 153.594 102.253 154.835L107.216 155.882C110.111 156.516 111.131 157.371 111.131 158.97C111.131 160.928 109.228 162.141 106.306 162.141C103.245 162.141 101.425 161.204 99.8538 159.136C98.7509 157.895 97.648 157.316 96.3521 157.316C94.4772 157.316 93.0986 158.557 93.0986 160.404C93.0986 160.845 93.2089 161.369 93.4019 161.893C94.8081 165.367 99.3299 167.793 106.113 167.793ZM138.357 167.793C144.009 167.793 149.055 164.981 150.819 160.956C151.178 160.156 151.343 159.494 151.343 158.86C151.343 156.875 149.827 155.634 147.952 155.634C146.242 155.634 145.36 156.323 144.285 158.005C143.044 160.101 141.307 161.479 138.494 161.479C134.469 161.479 131.96 158.171 131.96 152.353C131.96 146.646 134.469 143.282 138.55 143.282C141.114 143.282 142.906 144.467 144.367 147.059C145.194 148.521 146.16 149.155 147.759 149.155C149.661 149.155 151.205 147.997 151.205 146.011C151.205 145.432 151.04 144.716 150.764 144.026C149.165 139.835 144.229 136.968 138.301 136.968C129.423 136.968 123.799 142.923 123.799 152.381C123.799 161.948 129.451 167.793 138.357 167.793ZM167.843 167.711C172.31 167.711 175.233 165.56 176.694 161.838H176.859V163.658C176.859 166.332 178.431 167.738 180.747 167.738C183.063 167.738 184.635 166.332 184.635 163.658V141.214C184.635 138.457 182.98 136.995 180.609 136.995C178.266 136.995 176.584 138.457 176.584 141.214V154.531C176.584 158.447 174.35 161.011 170.766 161.011C167.209 161.011 165.252 158.915 165.252 154.972V141.214C165.252 138.457 163.597 136.995 161.226 136.995C158.882 136.995 157.2 138.457 157.2 141.214V156.654C157.2 163.547 161.447 167.711 167.843 167.711ZM205.161 167.793C210.868 167.793 215.445 165.643 217.403 162.003C217.761 161.342 217.954 160.68 217.954 160.046C217.954 158.198 216.548 157.095 214.811 157.095C213.763 157.095 213.046 157.399 212.191 158.281C210.013 160.845 208.083 161.838 205.133 161.838C201.052 161.838 198.405 158.97 198.405 154.586V154.228H215.279C217.513 154.228 218.781 152.96 218.781 150.726C218.781 142.703 213.156 136.968 204.775 136.968C196.034 136.968 190.492 143.006 190.492 152.519C190.492 162.086 195.924 167.793 205.161 167.793ZM198.488 149.293C198.764 145.515 201.328 142.923 204.857 142.923C208.386 142.923 210.868 145.432 211.033 149.293H198.488Z" fill="#7E3822"/>
<path d="M114.699 101.283C115.96 103.357 119.066 106.259 121.408 101.283" stroke="#1B0701" stroke-width="1.77589" stroke-linecap="round"/>
<path d="M121.408 101.283C122.669 103.357 125.775 106.259 128.117 101.283" stroke="#1B0701" stroke-width="1.77589" stroke-linecap="round"/>
</svg>
